<svg xmlns="http://www.w3.org/2000/svg" viewBox="0 0 800 1100" preserveAspectRatio="xMidYMid slice">
    <defs><radialGradient id="vg-01" cx="50%" cy="50%" r="65%"><stop offset="60%" stop-color="#0a0a0a" stop-opacity="0"></stop><stop offset="100%" stop-color="#0a0a0a" stop-opacity="0.55"></stop></radialGradient></defs>
    <rect width="800" height="1100" fill="#0a0a0a"></rect>
    
      <path d="M 64 990 A 336 336 0 0 1 736 990" fill="none" stroke="#c8a96a" stroke-width="1" opacity="0.5"></path>
      <path d="M 164.8 990 A 235.2 235.2 0 0 1 635.2 990" fill="none" stroke="#c8a96a" stroke-width="0.5" opacity="0.35"></path>
      <path d="M 248.79999999999998 990 A 151.20000000000002 151.20000000000002 0 0 1 551.2 990" fill="none" stroke="#c8a96a" stroke-width="0.5" opacity="0.25"></path>
    
    <circle cx="693.6171793059722" cy="1049.7304724094652" r="0.3552489000459509" fill="#c8a96a" opacity="0.013068976101147784"></circle><circle cx="94.79834554101423" cy="301.29270379633374" r="0.31754505584885273" fill="#c8a96a" opacity="0.01829033042511094"></circle><circle cx="772.8047368059378" cy="298.84974499294196" r="0.3224392038075905" fill="#c8a96a" opacity="0.043977768706670084"></circle><circle cx="224.96947571465685" cy="441.0272480029589" r="0.610224787564845" fill="#c8a96a" opacity="0.022742172881638496"></circle><circle cx="65.35717402678749" cy="1000.9740360953475" r="0.43596146950824943" fill="#c8a96a" opacity="0.005921897205198723"></circle><circle cx="680.0163025420625" cy="37.277494340846864" r="0.7688345226288608" fill="#c8a96a" opacity="0.028828635014342914"></circle><circle cx="124.44718396460104" cy="62.71164416952541" r="0.5443236558327743" fill="#c8a96a" opacity="0.03682183560013598"></circle><circle cx="195.19589540699513" cy="864.4374419914626" r="0.7187503914004979" fill="#c8a96a" opacity="0.039031569961936796"></circle><circle cx="207.49839526149376" cy="121.00691702901514" r="0.5942564112519854" fill="#c8a96a" opacity="0.04455911671067649"></circle><circle cx="145.1658217336185" cy="645.1742364317577" r="0.5115242168277389" fill="#c8a96a" opacity="0.014669390291755641"></circle><circle cx="517.7090621551072" cy="701.8209569160099" r="0.5595239940605549" fill="#c8a96a" opacity="0.03951800925149939"></circle><circle cx="543.8027950615189" cy="812.3156646890089" r="0.19149392163499135" fill="#c8a96a" opacity="0.03735691455733001"></circle><circle cx="442.12502934152076" cy="25.275959778016322" r="0.7834357715041271" fill="#c8a96a" opacity="0.03680645990834086"></circle><circle cx="480.2538961373969" cy="82.53823900998917" r="0.5939331310915653" fill="#c8a96a" opacity="0.02240560482912948"></circle><circle cx="532.8481577887753" cy="425.7664501190082" r="0.6587752264941971" fill="#c8a96a" opacity="0.009154252677982106"></circle><circle cx="525.0612571937891" cy="926.5214585033183" r="0.4153383593262574" fill="#c8a96a" opacity="0.04464641938241089"></circle><circle cx="161.13658344399857" cy="5.569228009286764" r="0.7153810104112243" fill="#c8a96a" opacity="0.04864821346745576"></circle><circle cx="283.74230065963457" cy="864.6327350034405" r="0.7287064995786948" fill="#c8a96a" opacity="0.012832628883538283"></circle><circle cx="347.1374412751662" cy="988.5413843290729" r="0.3299722632827675" fill="#c8a96a" opacity="0.04520153058464653"></circle><circle cx="537.6735868495322" cy="235.59955636006785" r="0.35918916823413777" fill="#c8a96a" opacity="0.02156560541069536"></circle><circle cx="727.5934150948616" cy="367.71232059604745" r="0.033801039375136545" fill="#c8a96a" opacity="0.008459111900645388"></circle><circle cx="426.48681700638235" cy="269.07748707541737" r="0.4398267899245843" fill="#c8a96a" opacity="0.04193637574560596"></circle><circle cx="309.2950779908647" cy="461.36041465456674" r="0.3077595107113677" fill="#c8a96a" opacity="0.04451016700551919"></circle><circle cx="700.0512483147658" cy="518.0318314394917" r="0.25427249300243215" fill="#c8a96a" opacity="0.029989455657290054"></circle><circle cx="102.42494068767752" cy="188.6426997395833" r="0.5016613552001651" fill="#c8a96a" opacity="0.030495995831534863"></circle><circle cx="766.4916361407387" cy="1042.5755399986836" r="0.43272348236795505" fill="#c8a96a" opacity="0.02619553893537212"></circle><circle cx="714.9185266816381" cy="68.59140482081824" r="0.3119469312460701" fill="#c8a96a" opacity="0.026743674715996937"></circle><circle cx="4.740059855305656" cy="141.87546738429936" r="0.5868078610728631" fill="#c8a96a" opacity="0.021494441226680636"></circle><circle cx="601.7925224079918" cy="64.98076193386827" r="0.026565764024270244" fill="#c8a96a" opacity="0.000037705739722349034"></circle><circle cx="263.3728635121183" cy="129.11429509156042" r="0.6647444698800566" fill="#c8a96a" opacity="0.01615972807472209"></circle><circle cx="780.0569077620762" cy="27.327787257904244" r="0.6839814477224038" fill="#c8a96a" opacity="0.034302287621820714"></circle><circle cx="228.3335136948601" cy="359.7709879048663" r="0.6552886758118333" fill="#c8a96a" opacity="0.04725674642230695"></circle><circle cx="445.9525171275427" cy="43.02433519925155" r="0.6956966045176889" fill="#c8a96a" opacity="0.009064435445443293"></circle><circle cx="329.6768231171004" cy="527.1014221725316" r="0.09085160045940893" fill="#c8a96a" opacity="0.0217495872483715"></circle><circle cx="463.2800825071301" cy="286.8827758779302" r="0.03534838433265737" fill="#c8a96a" opacity="0.0014861866671551094"></circle><circle cx="148.07680060936096" cy="619.5218777112555" r="0.5442734552065752" fill="#c8a96a" opacity="0.010579390269024281"></circle><circle cx="176.055795080054" cy="838.4482885058034" r="0.18752678044618226" fill="#c8a96a" opacity="0.0007843169533743977"></circle><circle cx="635.5721491853064" cy="787.2908748052462" r="0.33734059338910943" fill="#c8a96a" opacity="0.004817513491529302"></circle><circle cx="208.61412064804856" cy="139.77445680977436" r="0.04690654828018124" fill="#c8a96a" opacity="0.009322534519049042"></circle><circle cx="733.2486829296085" cy="988.622681739228" r="0.2288496428333228" fill="#c8a96a" opacity="0.016558670681018857"></circle><circle cx="308.3090152172643" cy="814.9888876937817" r="0.6256696309252785" fill="#c8a96a" opacity="0.01627358921603379"></circle><circle cx="156.64190463084128" cy="69.39866195721342" r="0.17979504075310465" fill="#c8a96a" opacity="0.041634615237961116"></circle><circle cx="417.42599380791887" cy="260.8315498612822" r="0.3381300691695902" fill="#c8a96a" opacity="0.008751165755689473"></circle><circle cx="779.4103766572891" cy="457.3376673911111" r="0.2532068610181675" fill="#c8a96a" opacity="0.021374717339728528"></circle><circle cx="783.1601970555898" cy="477.1553452764477" r="0.6715841902767073" fill="#c8a96a" opacity="0.014817988220396539"></circle><circle cx="138.60279335056075" cy="363.8053683625923" r="0.7478062894133902" fill="#c8a96a" opacity="0.0030059839311757375"></circle><circle cx="313.15171499970137" cy="646.5967135239824" r="0.5069767415610331" fill="#c8a96a" opacity="0.026726946383762773"></circle><circle cx="6.428732156096562" cy="435.4917066668496" r="0.3850293009920076" fill="#c8a96a" opacity="0.008051454005168513"></circle><circle cx="663.2665415583166" cy="724.8171345431941" r="0.24064449912267022" fill="#c8a96a" opacity="0.0371932616016668"></circle><circle cx="208.9971250022729" cy="42.595355949731086" r="0.05360628734608861" fill="#c8a96a" opacity="0.03601776471236765"></circle><circle cx="795.5862252236775" cy="178.08848827825076" r="0.5865748935032297" fill="#c8a96a" opacity="0.016543225677625503"></circle><circle cx="651.4750687285443" cy="670.5840541384549" r="0.24703717400859118" fill="#c8a96a" opacity="0.008158453817980832"></circle><circle cx="16.066909458691292" cy="540.8421700458426" r="0.5888492331910722" fill="#c8a96a" opacity="0.030664972185603913"></circle><circle cx="758.702174501249" cy="727.2832463620773" r="0.1737646629602841" fill="#c8a96a" opacity="0.03370146980425974"></circle><circle cx="213.86414153329792" cy="626.6127000208116" r="0.6356983654087999" fill="#c8a96a" opacity="0.02500574939345568"></circle><circle cx="57.87893614293722" cy="157.99886932118542" r="0.7791759518822167" fill="#c8a96a" opacity="0.043349116898272415"></circle><circle cx="555.4631884544069" cy="18.084914026541288" r="0.7842326486493097" fill="#c8a96a" opacity="0.026133320086084322"></circle><circle cx="426.8582454896239" cy="903.5042767753428" r="0.055709812101498724" fill="#c8a96a" opacity="0.044723145071041776"></circle><circle cx="572.6713075904817" cy="482.52060160738273" r="0.4413774297411881" fill="#c8a96a" opacity="0.04832891992983253"></circle><circle cx="253.55800658125344" cy="368.0639213488572" r="0.5133710741265389" fill="#c8a96a" opacity="0.03063572780845385"></circle><circle cx="757.505591938917" cy="312.8926888945454" r="0.6592895938357661" fill="#c8a96a" opacity="0.022237913826750524"></circle><circle cx="644.6521458690113" cy="1058.7198968451942" r="0.6890299126073183" fill="#c8a96a" opacity="0.033264844952611575"></circle><circle cx="16.210195650964376" cy="854.5236306259817" r="0.408251498925988" fill="#c8a96a" opacity="0.025259227734291508"></circle><circle cx="320.20793845969166" cy="441.75128426148314" r="0.042826633939821515" fill="#c8a96a" opacity="0.03311584595144028"></circle><circle cx="569.7472585589512" cy="900.2859669726352" r="0.22362483279220202" fill="#c8a96a" opacity="0.011538640993808436"></circle><circle cx="475.1059902889201" cy="89.40893900273166" r="0.6879752036661317" fill="#c8a96a" opacity="0.030266516753084467"></circle><circle cx="642.3522164322843" cy="534.6477072752883" r="0.5832253386294837" fill="#c8a96a" opacity="0.021265150940219347"></circle><circle cx="280.02837649729076" cy="540.0074267470048" r="0.5581348711753333" fill="#c8a96a" opacity="0.04921620322722028"></circle><circle cx="3.2593042925972426" cy="49.16306574714804" r="0.5093752490853898" fill="#c8a96a" opacity="0.018217753113312852"></circle><circle cx="32.73643857563178" cy="104.78308158749753" r="0.15276290068700105" fill="#c8a96a" opacity="0.039084039247358746"></circle><circle cx="530.8750203220421" cy="27.496676888582673" r="0.6305547286898668" fill="#c8a96a" opacity="0.018088631850443706"></circle><circle cx="691.7306622565468" cy="23.648739337605797" r="0.14719485455989023" fill="#c8a96a" opacity="0.0019102685063131732"></circle><circle cx="196.21483232425535" cy="926.1481292473961" r="0.21891896232065272" fill="#c8a96a" opacity="0.013706992390030532"></circle><circle cx="495.62085772510704" cy="480.73005576894" r="0.6326220419622353" fill="#c8a96a" opacity="0.03731734183397017"></circle><circle cx="300.1813033875321" cy="545.1316442049642" r="0.7553243819203782" fill="#c8a96a" opacity="0.03195214087009524"></circle><circle cx="144.1831127750385" cy="35.80978474823803" r="0.44659216262915696" fill="#c8a96a" opacity="0.0028986958732036385"></circle><circle cx="202.6067983486472" cy="142.84336854876702" r="0.007270872811365248" fill="#c8a96a" opacity="0.044950586529571124"></circle><circle cx="264.97008308370573" cy="1017.214148185385" r="0.31730430669791876" fill="#c8a96a" opacity="0.0009667421903345186"></circle><circle cx="393.49404554899036" cy="926.0870588167363" r="0.09381835924328286" fill="#c8a96a" opacity="0.0480483014262747"></circle><circle cx="100.85284999997519" cy="410.3801864029481" r="0.2483371431876562" fill="#c8a96a" opacity="0.04499098679193922"></circle><circle cx="223.49760484677157" cy="649.6395016472317" r="0.0017546000365326721" fill="#c8a96a" opacity="0.039443371422887376"></circle><circle cx="51.26363218840595" cy="657.0747151551021" r="0.6252250911002196" fill="#c8a96a" opacity="0.04585448660959224"></circle><circle cx="671.9207956220644" cy="801.545631994129" r="0.37320779409234267" fill="#c8a96a" opacity="0.011804428681545643"></circle><circle cx="554.8522995174029" cy="200.34466202495352" r="0.18908832131521464" fill="#c8a96a" opacity="0.015445506731501558"></circle><circle cx="207.06769905343023" cy="531.8360426186745" r="0.19021014688906313" fill="#c8a96a" opacity="0.0022979508776280687"></circle><circle cx="628.8418763125835" cy="186.97076712641802" r="0.09596936575185638" fill="#c8a96a" opacity="0.03117725135390977"></circle><circle cx="162.09171296274" cy="324.80033954380485" r="0.16683741726817064" fill="#c8a96a" opacity="0.03561256333533638"></circle><circle cx="20.058862665890942" cy="124.19832418702987" r="0.6974112002409116" fill="#c8a96a" opacity="0.03548250205067567"></circle><circle cx="463.0806663305359" cy="449.6322289373682" r="0.11003997875658059" fill="#c8a96a" opacity="0.014716197158023093"></circle><circle cx="186.57989042523556" cy="508.16507266808406" r="0.5828778743870269" fill="#c8a96a" opacity="0.0399010328584569"></circle><circle cx="288.6419828622568" cy="872.6167573827647" r="0.3154093642118868" fill="#c8a96a" opacity="0.019045084208033632"></circle><circle cx="599.0317578956355" cy="126.50758696795074" r="0.5040567186951618" fill="#c8a96a" opacity="0.049089454382103985"></circle><circle cx="239.49727512833138" cy="1082.2205036964262" r="0.6427928814781672" fill="#c8a96a" opacity="0.04704799128431433"></circle><circle cx="299.18783743104643" cy="632.8892282743535" r="0.3043095759171472" fill="#c8a96a" opacity="0.04922500592805133"></circle><circle cx="0.7810005552258303" cy="647.4840961092916" r="0.46378391604953895" fill="#c8a96a" opacity="0.01014918559835098"></circle><circle cx="469.95487559640594" cy="106.57117328014724" r="0.3975100509100769" fill="#c8a96a" opacity="0.014053959366184017"></circle><circle cx="344.62483308867434" cy="871.6493092464416" r="0.7224649051619512" fill="#c8a96a" opacity="0.03216645428946185"></circle><circle cx="648.6427433091359" cy="780.8161425388165" r="0.4850545700382631" fill="#c8a96a" opacity="0.02635446653154762"></circle><circle cx="300.1785731568988" cy="1096.8244063004825" r="0.7889641410707212" fill="#c8a96a" opacity="0.03633936795143228"></circle><circle cx="243.04843533299243" cy="878.8621842717909" r="0.616180155628894" fill="#c8a96a" opacity="0.020926484244463313"></circle><circle cx="402.24831504280655" cy="488.4341838173728" r="0.7340835578571345" fill="#c8a96a" opacity="0.01881390146082514"></circle><circle cx="718.3824835249554" cy="172.73056866497137" r="0.419319413839234" fill="#c8a96a" opacity="0.04091327526857502"></circle><circle cx="258.1904379936847" cy="1084.121660597004" r="0.6894303526452766" fill="#c8a96a" opacity="0.0248902194114719"></circle><circle cx="496.90809396500583" cy="1001.0468703053524" r="0.16975966011598206" fill="#c8a96a" opacity="0.040488907635438276"></circle><circle cx="621.132583232468" cy="891.3381014264163" r="0.5064244868715406" fill="#c8a96a" opacity="0.018248675223314588"></circle><circle cx="602.971742787166" cy="95.83144458235437" r="0.12371511505382991" fill="#c8a96a" opacity="0.007088380609824041"></circle><circle cx="617.0871990651378" cy="115.79289736677293" r="0.2929352737024816" fill="#c8a96a" opacity="0.016670052275104576"></circle><circle cx="583.8746358487182" cy="844.7187901465705" r="0.690819938365628" fill="#c8a96a" opacity="0.028210702725576464"></circle><circle cx="48.26034458680182" cy="768.6226831114756" r="0.22878224039215242" fill="#c8a96a" opacity="0.01996903308128775"></circle><circle cx="708.1218030090397" cy="288.0842350216137" r="0.2610624398921197" fill="#c8a96a" opacity="0.03475801738892017"></circle><circle cx="603.3216615605988" cy="753.2029761251351" r="0.6081707758554773" fill="#c8a96a" opacity="0.0032917081734495316"></circle><circle cx="217.76323558564448" cy="695.1626449404058" r="0.18172167465757472" fill="#c8a96a" opacity="0.012673483218261434"></circle><circle cx="358.30258314186665" cy="684.5551183126304" r="0.46746745959505376" fill="#c8a96a" opacity="0.02806058286995578"></circle><circle cx="615.3309542412229" cy="228.39736933022982" r="0.43277489179352585" fill="#c8a96a" opacity="0.019372576804512084"></circle><circle cx="116.39955475062989" cy="1019.1902423767897" r="0.48053177975089567" fill="#c8a96a" opacity="0.010826846803165336"></circle><circle cx="598.5104002579297" cy="856.8612663432831" r="0.2535351905130159" fill="#c8a96a" opacity="0.009790544755514385"></circle><circle cx="422.4811160260646" cy="855.3837311499344" r="0.2485609941560134" fill="#c8a96a" opacity="0.03532558196582033"></circle><circle cx="38.601389162613664" cy="115.56386265075552" r="0.035425186499372784" fill="#c8a96a" opacity="0.011211148205156575"></circle><circle cx="174.29170397487974" cy="670.1835185174718" r="0.11007177865586329" fill="#c8a96a" opacity="0.005593701872820062"></circle><circle cx="266.64539419139163" cy="671.5111794311073" r="0.23497438440274712" fill="#c8a96a" opacity="0.04252387966974384"></circle><circle cx="669.7582631509767" cy="748.6473085680002" r="0.22554046520345114" fill="#c8a96a" opacity="0.03595873643992744"></circle><circle cx="492.2892285844789" cy="91.93160165908346" r="0.2167037176357205" fill="#c8a96a" opacity="0.04501015975836293"></circle><circle cx="784.8322726641522" cy="295.6406586754821" r="0.5666041000867484" fill="#c8a96a" opacity="0.03133787624398151"></circle><circle cx="493.9693969427563" cy="865.110465847925" r="0.3786919169806548" fill="#c8a96a" opacity="0.00996402211252066"></circle><circle cx="270.5690746206052" cy="714.708534438273" r="0.23730459965317002" fill="#c8a96a" opacity="0.009197833726916294"></circle><circle cx="510.5289225833914" cy="681.4886539678281" r="0.7838782312871029" fill="#c8a96a" opacity="0.0030290377513080505"></circle><circle cx="328.5780715201543" cy="238.50643656129284" r="0.15403079504415268" fill="#c8a96a" opacity="0.03732243322404726"></circle><circle cx="255.42266212783895" cy="1050.5269215530745" r="0.3134644722259558" fill="#c8a96a" opacity="0.0016156230211843148"></circle><circle cx="237.41221348368953" cy="353.2408738902749" r="0.017323494176531274" fill="#c8a96a" opacity="0.03642425521042982"></circle><circle cx="794.0708431774099" cy="554.1780416426354" r="0.5879298950744475" fill="#c8a96a" opacity="0.04394363252690275"></circle><circle cx="71.40977903811354" cy="210.23181579115973" r="0.6636316574374191" fill="#c8a96a" opacity="0.035570615956390154"></circle><circle cx="553.0970395620226" cy="371.38102430860465" r="0.26560985131703607" fill="#c8a96a" opacity="0.015795352489181153"></circle><circle cx="170.46191974615726" cy="905.3964803686233" r="0.0879179478024482" fill="#c8a96a" opacity="0.0067019646947285684"></circle><circle cx="597.8230503874331" cy="158.29023246909253" r="0.09591939110605062" fill="#c8a96a" opacity="0.029391101843835855"></circle><circle cx="155.0285112843005" cy="364.684378882644" r="0.0023715840694986667" fill="#c8a96a" opacity="0.007424148786266216"></circle><circle cx="209.67675381129683" cy="617.7846939588543" r="0.6787574129029083" fill="#c8a96a" opacity="0.0471021751446097"></circle><circle cx="713.0941702871265" cy="585.9271403940593" r="0.2761862917945787" fill="#c8a96a" opacity="0.04590244933484193"></circle><circle cx="543.8991414964268" cy="468.6983107321376" r="0.5188720669686282" fill="#c8a96a" opacity="0.048802535210343695"></circle><circle cx="159.1117041733857" cy="1050.0337831511215" r="0.29775758764956173" fill="#c8a96a" opacity="0.04952380910486616"></circle><circle cx="297.72951565495924" cy="652.7351283347169" r="0.4819535619193516" fill="#c8a96a" opacity="0.033538327531139916"></circle><circle cx="480.0958126496114" cy="344.3852448593389" r="0.6513478183327225" fill="#c8a96a" opacity="0.008363947027142955"></circle><circle cx="311.8304346158121" cy="582.112127051669" r="0.03252364712787026" fill="#c8a96a" opacity="0.025542712199256076"></circle><circle cx="306.3790402896051" cy="481.4230157169501" r="0.034358872102032124" fill="#c8a96a" opacity="0.0014349016264904202"></circle><circle cx="641.7807746731478" cy="814.1502731927734" r="0.0194391153260856" fill="#c8a96a" opacity="0.03085072986524011"></circle><circle cx="401.3535691109469" cy="499.487219998435" r="0.17330424705416184" fill="#c8a96a" opacity="0.025031618704381822"></circle><circle cx="506.5505647524825" cy="881.2075140077802" r="0.10732975317496214" fill="#c8a96a" opacity="0.045630411345575855"></circle><circle cx="571.3616313209568" cy="491.8387458054995" r="0.191210698172059" fill="#c8a96a" opacity="0.038921523034704246"></circle><circle cx="351.90612356692685" cy="1055.7443115949497" r="0.35091428354739373" fill="#c8a96a" opacity="0.03936840782392681"></circle><circle cx="376.09618867804284" cy="865.2601029923903" r="0.3440288607638986" fill="#c8a96a" opacity="0.02392771891913878"></circle><circle cx="73.87093595439768" cy="212.42828857800308" r="0.6827024211492997" fill="#c8a96a" opacity="0.04097660871322699"></circle><circle cx="599.7854916283316" cy="208.07838003314103" r="0.46791068133448493" fill="#c8a96a" opacity="0.024043649488545704"></circle><circle cx="210.67413018464327" cy="394.43595024980596" r="0.30190884707976573" fill="#c8a96a" opacity="0.027732880155652354"></circle><circle cx="238.1092210530155" cy="1065.7622512247003" r="0.667633696741525" fill="#c8a96a" opacity="0.01301905170368063"></circle><circle cx="31.11957286209215" cy="624.9851159624072" r="0.1114941701980282" fill="#c8a96a" opacity="0.0037901492605079802"></circle><circle cx="125.8741593241468" cy="44.69389635532748" r="0.5820155233620997" fill="#c8a96a" opacity="0.02032314968004703"></circle><circle cx="685.0254962077927" cy="830.1913766760407" r="0.5057729492445926" fill="#c8a96a" opacity="0.01993284517336083"></circle><circle cx="300.2853497837214" cy="822.0381910965302" r="0.020149120601234485" fill="#c8a96a" opacity="0.0035804101212920272"></circle><circle cx="425.74362473592294" cy="534.0455205714331" r="0.3553401519709831" fill="#c8a96a" opacity="0.029162623730007043"></circle><circle cx="131.03379879051369" cy="672.3075358159041" r="0.17098071417110194" fill="#c8a96a" opacity="0.020395879034256048"></circle><circle cx="778.7287501546373" cy="820.8828749950746" r="0.4985702136262205" fill="#c8a96a" opacity="0.020439327713563306"></circle><circle cx="285.2490587484791" cy="88.58366631065994" r="0.26230121687081803" fill="#c8a96a" opacity="0.03499376447642553"></circle><circle cx="504.3435339688548" cy="620.8751771447122" r="0.5782555662330257" fill="#c8a96a" opacity="0.011670672583881315"></circle><circle cx="37.12095574751855" cy="311.67430247741174" r="0.7624823002528359" fill="#c8a96a" opacity="0.004210999187073051"></circle><circle cx="346.96710758476144" cy="961.2497377820167" r="0.6790300695633884" fill="#c8a96a" opacity="0.019022860557288097"></circle><circle cx="347.5615349081966" cy="826.2144205376121" r="0.44826376517112687" fill="#c8a96a" opacity="0.0333779233451054"></circle><circle cx="357.5573798162831" cy="636.6071596844497" r="0.2789214225656133" fill="#c8a96a" opacity="0.017767308049836488"></circle><circle cx="501.0916358285879" cy="206.55688822499732" r="0.6222500594713347" fill="#c8a96a" opacity="0.040151029673111294"></circle><circle cx="153.71198159995822" cy="280.59111216854285" r="0.7882254168846918" fill="#c8a96a" opacity="0.041639249731536855"></circle><circle cx="702.0998979772797" cy="133.29126675150962" r="0.29382554380748743" fill="#c8a96a" opacity="0.033710887059689255"></circle><circle cx="795.5316841583954" cy="800.0199106640387" r="0.49485079115725006" fill="#c8a96a" opacity="0.03128972230929593"></circle><circle cx="73.38964133189174" cy="851.88875176341" r="0.43724304339142156" fill="#c8a96a" opacity="0.036528211148524864"></circle><circle cx="473.2438658636294" cy="802.8856602866094" r="0.050819676129204794" fill="#c8a96a" opacity="0.04322003405843698"></circle><circle cx="321.63607260144664" cy="513.7570595013607" r="0.7841718818397752" fill="#c8a96a" opacity="0.0023622483417376217"></circle><circle cx="739.0257942199926" cy="757.3472075878877" r="0.18258167161938463" fill="#c8a96a" opacity="0.034070410409660655"></circle><circle cx="67.60833165513915" cy="944.7177416290405" r="0.19278149885309823" fill="#c8a96a" opacity="0.0033011901435168636"></circle><circle cx="735.5093984964712" cy="745.4013280951917" r="0.5373749189469434" fill="#c8a96a" opacity="0.043761201911330656"></circle><circle cx="648.7810832233105" cy="743.537980738835" r="0.4860174454628785" fill="#c8a96a" opacity="0.022187689202401287"></circle><circle cx="335.06931547513415" cy="360.1150070579481" r="0.3901068405288455" fill="#c8a96a" opacity="0.012948083011365963"></circle><circle cx="611.9599321356636" cy="142.03984291517605" r="0.5864182827829355" fill="#c8a96a" opacity="0.014166812830411036"></circle><circle cx="217.09468070419345" cy="969.6728097742377" r="0.7631925970398225" fill="#c8a96a" opacity="0.046602158902077154"></circle><circle cx="71.3932062395533" cy="928.9227225867852" r="0.2739350878834838" fill="#c8a96a" opacity="0.038250453662372036"></circle><circle cx="292.12441992089975" cy="476.86562203822604" r="0.6019250567562714" fill="#c8a96a" opacity="0.028550894522508877"></circle><circle cx="580.5850894233954" cy="662.4718977253394" r="0.25131002071962855" fill="#c8a96a" opacity="0.04680450128897166"></circle><circle cx="95.83478116646269" cy="803.8482633966096" r="0.4468171184272225" fill="#c8a96a" opacity="0.03143075306492906"></circle><circle cx="104.31587125695447" cy="301.6228715372545" r="0.19996145635839238" fill="#c8a96a" opacity="0.04874983430338881"></circle><circle cx="94.61952784709044" cy="148.54864067318258" r="0.6254907384970475" fill="#c8a96a" opacity="0.04486797003891414"></circle><circle cx="599.112755767068" cy="272.0238819733364" r="0.15976412800702136" fill="#c8a96a" opacity="0.011783434857733262"></circle><circle cx="112.1190922858414" cy="242.20109463055763" r="0.03218240484174233" fill="#c8a96a" opacity="0.017360808072662503"></circle><circle cx="584.005095179323" cy="544.6010844898316" r="0.4509172603704554" fill="#c8a96a" opacity="0.01241096672597718"></circle><circle cx="553.6466591690721" cy="345.44248070832367" r="0.7638083740379117" fill="#c8a96a" opacity="0.029076921551503765"></circle><circle cx="32.311508755076446" cy="560.4084656982426" r="0.43143987000976747" fill="#c8a96a" opacity="0.020712444875256666"></circle><circle cx="547.838777520903" cy="525.4326116725595" r="0.49906360663839333" fill="#c8a96a" opacity="0.04212463676418009"></circle><circle cx="626.5923897752805" cy="94.03923119262826" r="0.11992185971843083" fill="#c8a96a" opacity="0.006715531317841095"></circle><circle cx="401.68833600345357" cy="1069.8730162290076" r="0.24604070623315605" fill="#c8a96a" opacity="0.04578794514135139"></circle><circle cx="602.1321404771865" cy="660.7638246426629" r="0.47700397945607254" fill="#c8a96a" opacity="0.009736286545698948"></circle><circle cx="100.80581643320441" cy="932.3613032989126" r="0.008325744395770052" fill="#c8a96a" opacity="0.01265171111938312"></circle><circle cx="419.00365039460956" cy="984.8055944631892" r="0.415541235318681" fill="#c8a96a" opacity="0.005246028280480425"></circle><circle cx="429.3709771785899" cy="796.7211828380202" r="0.19754399529517636" fill="#c8a96a" opacity="0.018040586415344367"></circle><circle cx="425.86637013546704" cy="385.8096497446108" r="0.18831087248335976" fill="#c8a96a" opacity="0.020716583540277396"></circle><circle cx="787.0778388665855" cy="731.8560910816104" r="0.195814329275403" fill="#c8a96a" opacity="0.02043688689421514"></circle>
    <rect width="800" height="1100" fill="url(#vg-01)"></rect>
    
    <g transform="translate(48, 88)">
      <text x="0" y="0" font-family="Playfair Display, serif" font-style="italic" font-size="30.4" fill="#c8a96a">Le Bien</text>
      <line x1="0" y1="16" x2="112.00000000000001" y2="16" stroke="#c8a96a" stroke-width="0.6" opacity="0.8"></line>
      <text x="0" y="35.199999999999996" font-family="Playfair Display, serif" font-style="italic" font-size="14.399999999999999" fill="#c8a96a" letter-spacing="3">DÉCO</text>
    </g>
  
    
    <text x="752" y="99" text-anchor="end" font-family="Playfair Display, serif" font-style="italic" font-size="40" fill="#c8a96a" opacity="0.9">— 01</text>
  
    
    <g transform="translate(48, 990)">
      <text x="0" y="0" font-family="&#39;Courier New&#39;, monospace" font-size="12" fill="#c8a96a" letter-spacing="3" opacity="0.7">[ AISLE · CEREMONY ]</text>
      <text x="0" y="29.120000000000005" font-family="Playfair Display, serif" font-style="italic" font-size="22.400000000000002" fill="#cdc7b8">A ceremony in ivory</text>
    </g>
  
  </svg>