<svg xmlns="http://www.w3.org/2000/svg" viewBox="0 0 1200 800" preserveAspectRatio="xMidYMid slice">
    <defs><radialGradient id="vg-02" cx="50%" cy="50%" r="65%"><stop offset="60%" stop-color="#141414" stop-opacity="0"></stop><stop offset="100%" stop-color="#141414" stop-opacity="0.55"></stop></radialGradient></defs>
    <rect width="1200" height="800" fill="#141414"></rect>
    
      <rect x="144" y="336" width="912" height="160" fill="#c8a96a" opacity="0.10"></rect>
      <circle cx="360" cy="416" r="84.00000000000001" fill="none" stroke="#c8a96a" stroke-width="1" opacity="0.5"></circle>
      <circle cx="840" cy="416" r="84.00000000000001" fill="none" stroke="#c8a96a" stroke-width="1" opacity="0.5"></circle>
      <line x1="144" y1="336" x2="1056" y2="336" stroke="#c8a96a" stroke-width="0.5" opacity="0.6"></line>
      <line x1="144" y1="496" x2="1056" y2="496" stroke="#c8a96a" stroke-width="0.5" opacity="0.6"></line>
    
    <circle cx="390.825176993952" cy="650.8770054050613" r="0.4794877055680238" fill="#c8a96a" opacity="0.006249925989685674"></circle><circle cx="893.763761163507" cy="284.976603896655" r="0.7622391798169331" fill="#c8a96a" opacity="0.030911940209333334"></circle><circle cx="952.9189305730001" cy="420.77287784696205" r="0.18530850403019433" fill="#c8a96a" opacity="0.04023859407993584"></circle><circle cx="85.68255708797285" cy="49.586136597450015" r="0.24741933892751905" fill="#c8a96a" opacity="0.046630471635478135"></circle><circle cx="660.5903761358335" cy="412.8585882232787" r="0.6503317925426324" fill="#c8a96a" opacity="0.04907665064753075"></circle><circle cx="787.0646208983669" cy="298.0307745573585" r="0.007937545671870438" fill="#c8a96a" opacity="0.04501417096896465"></circle><circle cx="437.79007911239154" cy="257.920066680994" r="0.483150885777736" fill="#c8a96a" opacity="0.04400294253705849"></circle><circle cx="1071.0954856474941" cy="364.92665463341564" r="0.09461250975765606" fill="#c8a96a" opacity="0.0045013328428499975"></circle><circle cx="698.9705933954277" cy="486.3457393260851" r="0.38436997699630915" fill="#c8a96a" opacity="0.005642633104533718"></circle><circle cx="869.0124887062863" cy="5.54333748700504" r="0.22825984932641508" fill="#c8a96a" opacity="0.016116875148205784"></circle><circle cx="188.59675484336887" cy="390.7514733450318" r="0.3339472874727416" fill="#c8a96a" opacity="0.03717290427281483"></circle><circle cx="857.1043405850116" cy="373.7950804050449" r="0.5131341026398885" fill="#c8a96a" opacity="0.040333705441734605"></circle><circle cx="571.5599747683633" cy="206.62015432235927" r="0.12412315597102844" fill="#c8a96a" opacity="0.04652644411861245"></circle><circle cx="61.48164358806167" cy="623.6564125340601" r="0.46824399396176564" fill="#c8a96a" opacity="0.004661584879199393"></circle><circle cx="305.31302723914695" cy="619.6789625915076" r="0.2798114466019161" fill="#c8a96a" opacity="0.028765678408116536"></circle><circle cx="808.9039848340165" cy="303.1767156948342" r="0.058213557970322065" fill="#c8a96a" opacity="0.035415661242542"></circle><circle cx="1091.7812627705634" cy="262.2689365246289" r="0.2854120193837356" fill="#c8a96a" opacity="0.022289483776759506"></circle><circle cx="626.7794166665624" cy="732.2620543479416" r="0.6218831888655888" fill="#c8a96a" opacity="0.029645161025422462"></circle><circle cx="467.1513202384149" cy="12.37175762279934" r="0.4015470622833259" fill="#c8a96a" opacity="0.002350583288389724"></circle><circle cx="1050.3851761260987" cy="538.2167963930254" r="0.26867851523721104" fill="#c8a96a" opacity="0.03108401844789794"></circle><circle cx="297.22735010265467" cy="535.0575398334047" r="0.7162038360251284" fill="#c8a96a" opacity="0.02024162231131545"></circle><circle cx="950.955359940943" cy="501.8021812311761" r="0.0724308721351905" fill="#c8a96a" opacity="0.04667821805670022"></circle><circle cx="1194.8697338421255" cy="93.17912381454256" r="0.3515933448778902" fill="#c8a96a" opacity="0.005628014865145487"></circle><circle cx="1132.0538940935494" cy="13.867938240445277" r="0.026320366380209317" fill="#c8a96a" opacity="0.01995981109092819"></circle><circle cx="522.9462374202408" cy="378.7237436964053" r="0.6676609232947706" fill="#c8a96a" opacity="0.02589021343968343"></circle><circle cx="694.5297554467696" cy="11.576457261276385" r="0.6396693092652155" fill="#c8a96a" opacity="0.0011615767382949338"></circle><circle cx="764.7291955380158" cy="334.573932688282" r="0.026888155726244367" fill="#c8a96a" opacity="0.001102175746522749"></circle><circle cx="418.1174601977683" cy="123.7953141542282" r="0.5146229122696179" fill="#c8a96a" opacity="0.034339553181296674"></circle><circle cx="360.49057123894596" cy="54.47866445069609" r="0.13846088344055393" fill="#c8a96a" opacity="0.04108429089042966"></circle><circle cx="230.61940511099172" cy="545.9368765929961" r="0.634721762657738" fill="#c8a96a" opacity="0.03690474418785697"></circle><circle cx="305.7737144034051" cy="74.67540712442764" r="0.44922210832299153" fill="#c8a96a" opacity="0.042519413625264665"></circle><circle cx="1190.8467044831864" cy="30.348690847515858" r="0.4331615926946533" fill="#c8a96a" opacity="0.03284035983395747"></circle><circle cx="1190.336331498162" cy="236.0227637991162" r="0.2627285932946563" fill="#c8a96a" opacity="0.022371753631035093"></circle><circle cx="290.76474333484833" cy="628.2672876274139" r="0.11280706787203557" fill="#c8a96a" opacity="0.03683319924104727"></circle><circle cx="1001.9342788704995" cy="387.1227624940133" r="0.20443147894878672" fill="#c8a96a" opacity="0.01407332704799514"></circle><circle cx="1083.0682929668044" cy="517.1772992188082" r="0.029108066529355537" fill="#c8a96a" opacity="0.014143998286953285"></circle><circle cx="755.8620471550804" cy="45.24057277742726" r="0.650631941491109" fill="#c8a96a" opacity="0.005119241971611399"></circle><circle cx="733.3857952396588" cy="604.0843229043868" r="0.5096619141309899" fill="#c8a96a" opacity="0.03436759667993932"></circle><circle cx="506.60607258660946" cy="514.5528880517095" r="0.27017551730408523" fill="#c8a96a" opacity="0.014908417188383778"></circle><circle cx="884.6281233173924" cy="47.24272594930383" r="0.5482587117526899" fill="#c8a96a" opacity="0.008713343467000102"></circle><circle cx="620.9568490725608" cy="506.65281612459233" r="0.7703645366771104" fill="#c8a96a" opacity="0.03151449712392442"></circle><circle cx="300.3425212958369" cy="645.9437668258106" r="0.6220347674267288" fill="#c8a96a" opacity="0.00012480043349687444"></circle><circle cx="60.87687279989575" cy="123.96353432861416" r="0.36270718340144426" fill="#c8a96a" opacity="0.016990262589239125"></circle><circle cx="934.4321852055226" cy="396.7667038147643" r="0.365334248834726" fill="#c8a96a" opacity="0.02555859362226805"></circle><circle cx="826.2514670719773" cy="549.1822817051823" r="0.6532748991338191" fill="#c8a96a" opacity="0.0461722475687059"></circle><circle cx="956.759772433993" cy="446.91652476536206" r="0.16330199934014447" fill="#c8a96a" opacity="0.02677463377254858"></circle><circle cx="208.42578480948805" cy="738.326507478974" r="0.24043000466810663" fill="#c8a96a" opacity="0.03065062621008462"></circle><circle cx="277.45915503695096" cy="295.48766625216666" r="0.45683997322773895" fill="#c8a96a" opacity="0.02538761844388457"></circle><circle cx="1161.0835053748576" cy="181.8959431677535" r="0.749916900138156" fill="#c8a96a" opacity="0.002622518139199043"></circle><circle cx="957.1405910713411" cy="245.03927853953346" r="0.6874197400174077" fill="#c8a96a" opacity="0.011014523291363439"></circle><circle cx="1128.3937429977655" cy="155.11308061221447" r="0.2915599727460128" fill="#c8a96a" opacity="0.02645866487379967"></circle><circle cx="493.25962413738165" cy="578.6477418708993" r="0.6000945627083523" fill="#c8a96a" opacity="0.003450911975393073"></circle><circle cx="1023.3961118497759" cy="358.1667579838303" r="0.41366130865205614" fill="#c8a96a" opacity="0.04987413904501205"></circle><circle cx="757.3952928703733" cy="551.342670693647" r="0.10975218258052727" fill="#c8a96a" opacity="0.04247813427248196"></circle><circle cx="781.2010202881115" cy="292.0953453795772" r="0.7554283890932809" fill="#c8a96a" opacity="0.003842219699392491"></circle><circle cx="1044.2416521357982" cy="689.380186238161" r="0.6710472021613031" fill="#c8a96a" opacity="0.009179539073613458"></circle><circle cx="760.2742351300391" cy="262.2378559110062" r="0.7054091632452063" fill="#c8a96a" opacity="0.01635694964052145"></circle><circle cx="37.251865252038115" cy="158.21423621131805" r="0.4853065075844679" fill="#c8a96a" opacity="0.003931811718350703"></circle><circle cx="61.647366682862526" cy="447.4629901914614" r="0.33590956513627845" fill="#c8a96a" opacity="0.0008389832453748081"></circle><circle cx="726.8364464421967" cy="238.22849594311126" r="0.797126752918203" fill="#c8a96a" opacity="0.019093366407569364"></circle><circle cx="800.1387700424789" cy="490.6389490042345" r="0.10807851021717099" fill="#c8a96a" opacity="0.02702882432041975"></circle><circle cx="1194.7473937348602" cy="694.8685266725163" r="0.6459672023466975" fill="#c8a96a" opacity="0.03165866551549773"></circle><circle cx="584.4707042492895" cy="207.85986434845904" r="0.46075713239091015" fill="#c8a96a" opacity="0.007008242862267123"></circle><circle cx="488.4734104023297" cy="512.8933313561353" r="0.02864064695486661" fill="#c8a96a" opacity="0.04682134673026447"></circle><circle cx="276.7745780845085" cy="430.97937161831766" r="0.05615799612456662" fill="#c8a96a" opacity="0.032575284706613694"></circle><circle cx="685.3380136799866" cy="105.56485955008625" r="0.6794062352930972" fill="#c8a96a" opacity="0.007632788397017732"></circle><circle cx="580.2729327951281" cy="563.8772605839273" r="0.2906279456889922" fill="#c8a96a" opacity="0.022236786612934763"></circle><circle cx="95.76573404224659" cy="295.0981423285861" r="0.002860316288406928" fill="#c8a96a" opacity="0.0181383388002526"></circle><circle cx="659.8426317442867" cy="578.0772660304419" r="0.33536131490182025" fill="#c8a96a" opacity="0.04961101980165142"></circle><circle cx="1042.6869013745727" cy="137.14039015445127" r="0.6181838482148034" fill="#c8a96a" opacity="0.02765015114284416"></circle><circle cx="865.9975910490775" cy="131.45341821123847" r="0.21866472478594387" fill="#c8a96a" opacity="0.043572307580072245"></circle><circle cx="654.9038940622619" cy="612.7774266406042" r="0.41072136631414324" fill="#c8a96a" opacity="0.001486759067953797"></circle><circle cx="796.6921195437898" cy="565.2384034343135" r="0.10915993153470015" fill="#c8a96a" opacity="0.01867198172153231"></circle><circle cx="680.5251225866436" cy="630.5093195973966" r="0.35493898205366947" fill="#c8a96a" opacity="0.046006752660880154"></circle><circle cx="543.8741677287564" cy="599.3893536109813" r="0.7384955761859534" fill="#c8a96a" opacity="0.04453791844405335"></circle><circle cx="420.4980421906645" cy="538.4516921383693" r="0.20317112586504882" fill="#c8a96a" opacity="0.04806512660849449"></circle><circle cx="243.4064609031859" cy="234.68037052754332" r="0.5829590150620859" fill="#c8a96a" opacity="0.017509255039245896"></circle><circle cx="1000.3788860642394" cy="383.16430997693436" r="0.04369407008536541" fill="#c8a96a" opacity="0.008224465540607618"></circle><circle cx="340.26155284627396" cy="213.75054042795804" r="0.584924959900133" fill="#c8a96a" opacity="0.008101290198436762"></circle><circle cx="836.5259565347129" cy="647.023127242014" r="0.36537697605828073" fill="#c8a96a" opacity="0.0016268634349228762"></circle><circle cx="445.39750167497084" cy="562.4056714468986" r="0.5647904993151974" fill="#c8a96a" opacity="0.018204901287223442"></circle><circle cx="513.2575689028577" cy="374.01148773779846" r="0.04902897085966922" fill="#c8a96a" opacity="0.0007164089872615854"></circle><circle cx="1063.0754595471772" cy="103.21366848693651" r="0.26735965565485603" fill="#c8a96a" opacity="0.033761014971611054"></circle><circle cx="755.8092208695418" cy="220.75075423072786" r="0.34078753278858614" fill="#c8a96a" opacity="0.0083227564625676"></circle><circle cx="569.0170858668946" cy="141.0696146701257" r="0.13314261712764486" fill="#c8a96a" opacity="0.02269349681065751"></circle><circle cx="569.3986681920136" cy="283.52349155713483" r="0.5238190433391305" fill="#c8a96a" opacity="0.032674367477531496"></circle><circle cx="1127.0171378349266" cy="626.635885789273" r="0.7734297162510378" fill="#c8a96a" opacity="0.009198242423269871"></circle><circle cx="527.5783924300204" cy="47.66960674029646" r="0.5500183162112531" fill="#c8a96a" opacity="0.016815530011784513"></circle><circle cx="326.22433221971835" cy="75.62679247594417" r="0.6584722519023068" fill="#c8a96a" opacity="0.00003523876918991032"></circle><circle cx="328.3407074133079" cy="224.50189668261044" r="0.7576976717954182" fill="#c8a96a" opacity="0.030956249960570704"></circle><circle cx="845.6575913178665" cy="9.166823714173056" r="0.35447262636231147" fill="#c8a96a" opacity="0.048276499477454944"></circle><circle cx="1128.5915376853607" cy="660.4363597009127" r="0.5875111976199924" fill="#c8a96a" opacity="0.041996258907847"></circle><circle cx="1051.354370664548" cy="422.2975259967309" r="0.5993818137033127" fill="#c8a96a" opacity="0.02666183823235668"></circle><circle cx="800.2378653754331" cy="461.96359615194024" r="0.6016697022771837" fill="#c8a96a" opacity="0.033872178158356255"></circle><circle cx="278.97381408000086" cy="115.93636013342686" r="0.5188138688203163" fill="#c8a96a" opacity="0.01199353757504646"></circle><circle cx="1184.9266320908735" cy="737.6244338786672" r="0.19336669803426298" fill="#c8a96a" opacity="0.01046294059518217"></circle><circle cx="434.029577193022" cy="31.568278040380804" r="0.661668287873537" fill="#c8a96a" opacity="0.03195624969778433"></circle><circle cx="340.23918363060505" cy="644.1971088568082" r="0.3972929859336276" fill="#c8a96a" opacity="0.015294196391100813"></circle><circle cx="1183.298234976732" cy="202.96310998720423" r="0.11729012691125602" fill="#c8a96a" opacity="0.029756980838412207"></circle><circle cx="180.82978273866735" cy="709.554710532655" r="0.34857340420095756" fill="#c8a96a" opacity="0.017866145470964052"></circle><circle cx="787.9319137789752" cy="2.9801351396682385" r="0.14431058566371222" fill="#c8a96a" opacity="0.044734422485573994"></circle><circle cx="1147.8144776103295" cy="243.5714483694275" r="0.4330196553426891" fill="#c8a96a" opacity="0.045822877760178966"></circle><circle cx="1072.4778350906017" cy="343.5986950105901" r="0.6476139743168409" fill="#c8a96a" opacity="0.005757902651998959"></circle><circle cx="379.12344730678103" cy="647.777317411038" r="0.49020718412125436" fill="#c8a96a" opacity="0.035027069825530374"></circle><circle cx="953.9072470767414" cy="186.086938541405" r="0.6853502797940388" fill="#c8a96a" opacity="0.008690675645293534"></circle><circle cx="1149.2371134538932" cy="237.58921759803107" r="0.3666773924684183" fill="#c8a96a" opacity="0.023460218844494382"></circle><circle cx="1018.0923127964045" cy="587.9570317945856" r="0.19386759599120573" fill="#c8a96a" opacity="0.009357527969647018"></circle><circle cx="646.6276330530591" cy="423.4059432234452" r="0.37382578922714976" fill="#c8a96a" opacity="0.04471504083363302"></circle><circle cx="209.0612060631751" cy="406.598114100421" r="0.06776187416886766" fill="#c8a96a" opacity="0.041133488644092775"></circle><circle cx="979.9739443563525" cy="528.970715148376" r="0.6920846928695634" fill="#c8a96a" opacity="0.0015843738777635286"></circle><circle cx="700.3052320825539" cy="511.1059359387606" r="0.6875691361232398" fill="#c8a96a" opacity="0.01914404440783887"></circle><circle cx="225.34348030664256" cy="777.2290308381665" r="0.47184909061995717" fill="#c8a96a" opacity="0.02773943059699593"></circle><circle cx="876.1024811349782" cy="249.4505789384566" r="0.1034388138739006" fill="#c8a96a" opacity="0.00952053595321627"></circle><circle cx="963.264690803733" cy="194.92200403725758" r="0.25780178145717925" fill="#c8a96a" opacity="0.03366366978202211"></circle><circle cx="790.4171083729047" cy="427.8430300215251" r="0.7568141515911461" fill="#c8a96a" opacity="0.008647514716434114"></circle><circle cx="1003.9047158437612" cy="636.9654069428348" r="0.5914752697979946" fill="#c8a96a" opacity="0.037751023112574646"></circle><circle cx="570.7368195554708" cy="118.0577826418114" r="0.5156681027288992" fill="#c8a96a" opacity="0.04724620849430569"></circle><circle cx="40.13832616949564" cy="632.1667925898021" r="0.15309950682425308" fill="#c8a96a" opacity="0.02759212906070703"></circle><circle cx="723.5907186297088" cy="799.1415923833478" r="0.5587467899353874" fill="#c8a96a" opacity="0.02010797082048373"></circle><circle cx="956.8686471038515" cy="394.6063126037308" r="0.11587033833565573" fill="#c8a96a" opacity="0.027373641853644576"></circle><circle cx="77.86584431914551" cy="13.388507993438381" r="0.20184247901400526" fill="#c8a96a" opacity="0.009076750606159634"></circle><circle cx="895.803140169619" cy="119.09684408098151" r="0.5740321574981512" fill="#c8a96a" opacity="0.029461491221189514"></circle><circle cx="908.1335856506337" cy="85.29959324630339" r="0.13910130970951898" fill="#c8a96a" opacity="0.006733930500808194"></circle><circle cx="375.88439458715396" cy="149.21502995726135" r="0.7068837144811567" fill="#c8a96a" opacity="0.02757996826463066"></circle><circle cx="1119.0216389772731" cy="545.7925375130791" r="0.13487667637386025" fill="#c8a96a" opacity="0.048197373318113364"></circle><circle cx="966.5911392854543" cy="227.29982796129303" r="0.5991443426617904" fill="#c8a96a" opacity="0.038277052040863506"></circle><circle cx="1133.4888039062116" cy="133.86545144228697" r="0.5936086196796204" fill="#c8a96a" opacity="0.0418002500441187"></circle><circle cx="853.8169191779306" cy="73.9431575988485" r="0.5808806270809809" fill="#c8a96a" opacity="0.03548622800811977"></circle><circle cx="1141.4336415995742" cy="324.70704685964904" r="0.41924705439822874" fill="#c8a96a" opacity="0.011030595897431411"></circle><circle cx="236.29910951213077" cy="103.87462691779996" r="0.5114718234828655" fill="#c8a96a" opacity="0.037633420579346176"></circle><circle cx="1056.7250872564155" cy="110.28738188120136" r="0.048169178485561306" fill="#c8a96a" opacity="0.049718946510557145"></circle><circle cx="247.0856295327847" cy="203.50828732924492" r="0.7389916537926097" fill="#c8a96a" opacity="0.011691949109272105"></circle><circle cx="325.6300506221605" cy="231.18841671362534" r="0.7714612549681248" fill="#c8a96a" opacity="0.03884873432132846"></circle><circle cx="28.26015986990953" cy="693.2776798812619" r="0.2372623965382922" fill="#c8a96a" opacity="0.009496180821920597"></circle><circle cx="411.3723877019714" cy="710.4660228673727" r="0.5561912143893583" fill="#c8a96a" opacity="0.023167852125782443"></circle><circle cx="903.0115060220546" cy="411.14151539293806" r="0.6055468562148836" fill="#c8a96a" opacity="0.022836257721644267"></circle><circle cx="1069.922867505182" cy="461.00532576687135" r="0.6896475067515224" fill="#c8a96a" opacity="0.041930339939022225"></circle><circle cx="1143.2065462377352" cy="4.831899830782493" r="0.47810711358178787" fill="#c8a96a" opacity="0.035347340360021545"></circle><circle cx="8.481166315908384" cy="765.4069274553749" r="0.5795145695810991" fill="#c8a96a" opacity="0.03929988733590962"></circle><circle cx="599.1139501540266" cy="557.9978004201851" r="0.7186793173816278" fill="#c8a96a" opacity="0.034405335953022254"></circle><circle cx="1179.7521552985754" cy="375.46366336701914" r="0.49487522767643455" fill="#c8a96a" opacity="0.005271815932788521"></circle><circle cx="375.09726281069396" cy="48.54058232294021" r="0.4672190584266644" fill="#c8a96a" opacity="0.006481377682126483"></circle><circle cx="374.8725393051272" cy="281.0623841905543" r="0.4102693120211224" fill="#c8a96a" opacity="0.04077148007694955"></circle><circle cx="223.99490094553252" cy="173.0546501127634" r="0.22969868254425396" fill="#c8a96a" opacity="0.047244096553597376"></circle><circle cx="977.8600348589846" cy="569.6890647123607" r="0.5651944457259528" fill="#c8a96a" opacity="0.03225532563318848"></circle><circle cx="480.16803766073684" cy="372.7793313564142" r="0.23455698012167697" fill="#c8a96a" opacity="0.036253557408823384"></circle><circle cx="875.1905345243559" cy="371.71387017585135" r="0.6866002919280191" fill="#c8a96a" opacity="0.032390923772969045"></circle><circle cx="652.4973744041592" cy="480.331828225821" r="0.7760428279003697" fill="#c8a96a" opacity="0.039762053340799096"></circle><circle cx="1022.8589455842406" cy="69.49529556497352" r="0.10726651783867497" fill="#c8a96a" opacity="0.02265640255273495"></circle><circle cx="155.26189089820556" cy="629.968894843359" r="0.13901609631093176" fill="#c8a96a" opacity="0.0321848347350245"></circle><circle cx="822.2407173698316" cy="538.1409047120912" r="0.6258559154188553" fill="#c8a96a" opacity="0.019883592583539486"></circle><circle cx="1010.476699087189" cy="693.1817487205899" r="0.1073298380367759" fill="#c8a96a" opacity="0.024780047137068426"></circle><circle cx="359.6358325433418" cy="554.8281510225672" r="0.394723989601675" fill="#c8a96a" opacity="0.02902574073007623"></circle><circle cx="544.7404313314879" cy="792.5100438341952" r="0.2320004682922396" fill="#c8a96a" opacity="0.028921921354886856"></circle><circle cx="670.8958283710405" cy="767.7343344802559" r="0.3469192536467036" fill="#c8a96a" opacity="0.00498258843721049"></circle><circle cx="1153.2790356205596" cy="160.12013749017308" r="0.24143200516256016" fill="#c8a96a" opacity="0.03608950606450202"></circle><circle cx="0.4757140175472685" cy="195.11604628499617" r="0.030102799721837582" fill="#c8a96a" opacity="0.007309125975903908"></circle><circle cx="65.48911192583012" cy="105.50563148082759" r="0.369881189588291" fill="#c8a96a" opacity="0.029052244128787697"></circle><circle cx="268.3412919576902" cy="707.8956851637853" r="0.01540163891928943" fill="#c8a96a" opacity="0.010148554675070766"></circle><circle cx="422.23140118768555" cy="236.69024356623706" r="0.704019731980869" fill="#c8a96a" opacity="0.024893568966430853"></circle><circle cx="458.66635775437067" cy="624.4185814000766" r="0.5287405298168245" fill="#c8a96a" opacity="0.047272477966283366"></circle><circle cx="645.2919598282607" cy="427.2823272651065" r="0.636329538163677" fill="#c8a96a" opacity="0.0023778665396379686"></circle><circle cx="361.47638523602933" cy="87.1368307437801" r="0.6260861390029127" fill="#c8a96a" opacity="0.04502784732431681"></circle><circle cx="752.7440794132417" cy="301.13950722955315" r="0.06778282302398263" fill="#c8a96a" opacity="0.021666743463356588"></circle><circle cx="230.44311855440358" cy="430.91264730611476" r="0.5777064694394884" fill="#c8a96a" opacity="0.025045920599660505"></circle><circle cx="20.606485082154613" cy="410.7318877325789" r="0.44456567159006194" fill="#c8a96a" opacity="0.04891529641722713"></circle><circle cx="261.3337372772733" cy="341.5862262243471" r="0.4805996314335724" fill="#c8a96a" opacity="0.02045267942065573"></circle><circle cx="12.438126120208892" cy="26.323180767333287" r="0.25403449741795026" fill="#c8a96a" opacity="0.019789380686792996"></circle><circle cx="390.85605479998037" cy="138.94087673860406" r="0.7772061950216705" fill="#c8a96a" opacity="0.023972573561995926"></circle><circle cx="668.5162047319017" cy="723.917106435425" r="0.2317543004175617" fill="#c8a96a" opacity="0.004887754599328076"></circle><circle cx="710.7222627424537" cy="724.9064882751495" r="0.5546014245184895" fill="#c8a96a" opacity="0.018569103428956953"></circle><circle cx="702.5708699188162" cy="158.78381580085036" r="0.6075962649670068" fill="#c8a96a" opacity="0.03974943617340538"></circle><circle cx="665.4646960431485" cy="492.89283926049575" r="0.7407716628777208" fill="#c8a96a" opacity="0.04113595846105449"></circle><circle cx="325.27504532130683" cy="479.4346010784521" r="0.18448417596194977" fill="#c8a96a" opacity="0.025889677625791314"></circle><circle cx="192.05877377858042" cy="215.56698137396052" r="0.07625189852600976" fill="#c8a96a" opacity="0.0061477889318772745"></circle><circle cx="606.6852845161796" cy="184.13468636125785" r="0.4899703632294594" fill="#c8a96a" opacity="0.04849291550283993"></circle><circle cx="1062.8602306816572" cy="663.2029837480383" r="0.04345248807855038" fill="#c8a96a" opacity="0.02740214358988176"></circle><circle cx="665.495404505688" cy="393.09954489247997" r="0.32474417393864397" fill="#c8a96a" opacity="0.016514680660699204"></circle><circle cx="51.88208991398482" cy="17.237716535604264" r="0.44783843908772375" fill="#c8a96a" opacity="0.0000734831043454065"></circle><circle cx="954.0169208999886" cy="210.60909917612366" r="0.7964231971828932" fill="#c8a96a" opacity="0.036217033815558644"></circle><circle cx="919.2686886287707" cy="315.26790476230764" r="0.6718069755298713" fill="#c8a96a" opacity="0.005273568749068575"></circle><circle cx="1155.0983266549722" cy="549.3679904851689" r="0.7388990569598433" fill="#c8a96a" opacity="0.03716179433668683"></circle><circle cx="734.2338618686676" cy="247.15093028474087" r="0.4269176164010368" fill="#c8a96a" opacity="0.010967832771828036"></circle><circle cx="236.525843722296" cy="155.49719609459947" r="0.4701905181066427" fill="#c8a96a" opacity="0.009442906369661226"></circle><circle cx="375.6010927513142" cy="395.2249521758069" r="0.36816985885295017" fill="#c8a96a" opacity="0.04736096879584852"></circle><circle cx="649.2160444315741" cy="788.7963878352982" r="0.7873676680333624" fill="#c8a96a" opacity="0.021586713403935462"></circle><circle cx="103.11708046736739" cy="236.61893746252983" r="0.42818195124225555" fill="#c8a96a" opacity="0.004376597446028335"></circle><circle cx="656.514642751954" cy="247.076633029325" r="0.6492146568869692" fill="#c8a96a" opacity="0.023733669686341115"></circle><circle cx="70.48725134232656" cy="394.7073849987664" r="0.08065579313865677" fill="#c8a96a" opacity="0.034631077521823754"></circle><circle cx="1173.6445621793025" cy="90.60536476577985" r="0.0702005461455161" fill="#c8a96a" opacity="0.04434369452158075"></circle><circle cx="990.1579808842998" cy="1.4859019894588599" r="0.28063343299943666" fill="#c8a96a" opacity="0.004941318921114835"></circle><circle cx="984.0485674427332" cy="660.8369845616628" r="0.05497961638224842" fill="#c8a96a" opacity="0.011027223112824653"></circle><circle cx="1180.639562198759" cy="182.2873632714246" r="0.10299292858583407" fill="#c8a96a" opacity="0.022563419941269022"></circle><circle cx="605.092611064161" cy="477.8359855924566" r="0.7049895319296919" fill="#c8a96a" opacity="0.015839785166540755"></circle><circle cx="609.7114638799351" cy="50.78059312518137" r="0.6040445971796752" fill="#c8a96a" opacity="0.04311763836957852"></circle><circle cx="1000.3911841383125" cy="461.9598488029176" r="0.2877017625271449" fill="#c8a96a" opacity="0.008811787396482602"></circle><circle cx="196.81000619768648" cy="224.3687201456491" r="0.7656491611822234" fill="#c8a96a" opacity="0.03549728336425676"></circle><circle cx="844.3692612335744" cy="313.0672463048893" r="0.6824000499467255" fill="#c8a96a" opacity="0.014433293708996115"></circle><circle cx="220.3519471961557" cy="740.5647129242273" r="0.4320097996716248" fill="#c8a96a" opacity="0.0018933496334544832"></circle><circle cx="128.4524045969111" cy="101.9757088807446" r="0.7201018219054837" fill="#c8a96a" opacity="0.041986138042807146"></circle>
    <rect width="1200" height="800" fill="url(#vg-02)"></rect>
    
    <g transform="translate(72, 64)">
      <text x="0" y="0" font-family="Playfair Display, serif" font-style="italic" font-size="30.4" fill="#c8a96a">Le Bien</text>
      <line x1="0" y1="16" x2="112.00000000000001" y2="16" stroke="#c8a96a" stroke-width="0.6" opacity="0.8"></line>
      <text x="0" y="35.199999999999996" font-family="Playfair Display, serif" font-style="italic" font-size="14.399999999999999" fill="#c8a96a" letter-spacing="3">DÉCO</text>
    </g>
  
    
    <text x="1128" y="72" text-anchor="end" font-family="Playfair Display, serif" font-style="italic" font-size="40" fill="#c8a96a" opacity="0.9">— 02</text>
  
    
    <g transform="translate(72, 720)">
      <text x="0" y="0" font-family="&#39;Courier New&#39;, monospace" font-size="12" fill="#c8a96a" letter-spacing="3" opacity="0.7">[ TABLESCAPE · RECEPTION ]</text>
      <text x="0" y="29.120000000000005" font-family="Playfair Display, serif" font-style="italic" font-size="22.400000000000002" fill="#cdc7b8">The first course is set</text>
    </g>
  
  </svg>