<svg xmlns="http://www.w3.org/2000/svg" viewBox="0 0 1200 800" preserveAspectRatio="xMidYMid slice">
    <defs><radialGradient id="vg-04" cx="50%" cy="50%" r="65%"><stop offset="60%" stop-color="#060606" stop-opacity="0"></stop><stop offset="100%" stop-color="#060606" stop-opacity="0.55"></stop></radialGradient></defs>
    <rect width="1200" height="800" fill="#060606"></rect>
    <rect x="0" y="144" width="238" height="576" fill="#c8a96a" opacity="0.1"></rect><rect x="240" y="144" width="238" height="576" fill="#c8a96a" opacity="0.16"></rect><rect x="480" y="144" width="238" height="576" fill="#c8a96a" opacity="0.22"></rect><rect x="720" y="144" width="238" height="576" fill="#c8a96a" opacity="0.1"></rect><rect x="960" y="144" width="238" height="576" fill="#c8a96a" opacity="0.16"></rect>
    <circle cx="252.01041816389034" cy="751.2700341335005" r="0.748566942025591" fill="#c8a96a" opacity="0.03309613304606439"></circle><circle cx="968.4140846043525" cy="602.2130409004078" r="0.371771858951631" fill="#c8a96a" opacity="0.02497021132389898"></circle><circle cx="340.7326342052274" cy="625.5142149699259" r="0.17011182045935982" fill="#c8a96a" opacity="0.04238118335272811"></circle><circle cx="1199.4502481108173" cy="797.6850658148273" r="0.04889811846311423" fill="#c8a96a" opacity="0.019930312157581193"></circle><circle cx="195.49882599482032" cy="338.9167155055503" r="0.31668928350574144" fill="#c8a96a" opacity="0.03898643209185271"></circle><circle cx="979.9834106522616" cy="168.61097272433722" r="0.17105991315424696" fill="#c8a96a" opacity="0.024464145374892443"></circle><circle cx="706.7231209477075" cy="646.9207020481838" r="0.13089977964365423" fill="#c8a96a" opacity="0.047378096166718474"></circle><circle cx="186.29084287857472" cy="422.42391033385627" r="0.4106777116599425" fill="#c8a96a" opacity="0.0382624826640178"></circle><circle cx="427.8301072235451" cy="683.5823771110284" r="0.21402809879953635" fill="#c8a96a" opacity="0.013172979077717074"></circle><circle cx="439.5700929625594" cy="401.6856097932118" r="0.39422718459486106" fill="#c8a96a" opacity="0.018332818889786214"></circle><circle cx="1101.9673265751092" cy="191.32453799733727" r="0.42007210409890033" fill="#c8a96a" opacity="0.02891602984396903"></circle><circle cx="450.0738039944206" cy="788.9891920689112" r="0.6010743038296664" fill="#c8a96a" opacity="0.03309591178793175"></circle><circle cx="149.21918590110153" cy="723.4535987943505" r="0.735068427559941" fill="#c8a96a" opacity="0.01818395477340129"></circle><circle cx="170.8918398449323" cy="611.3486244719429" r="0.6070787268390607" fill="#c8a96a" opacity="0.0049481147132543705"></circle><circle cx="943.4249740482737" cy="322.90789767690643" r="0.24876186171263148" fill="#c8a96a" opacity="0.006894795713447821"></circle><circle cx="598.48062469997" cy="522.5783069044413" r="0.0751610523095879" fill="#c8a96a" opacity="0.04784527709452242"></circle><circle cx="886.754948036421" cy="602.2212987780385" r="0.6760483580634855" fill="#c8a96a" opacity="0.030136327134088627"></circle><circle cx="870.032934785798" cy="562.2185197980128" r="0.15916273877527526" fill="#c8a96a" opacity="0.041788043528230845"></circle><circle cx="402.7699409773341" cy="618.2305598065615" r="0.4049071259442092" fill="#c8a96a" opacity="0.02274841839131732"></circle><circle cx="156.35975763212326" cy="613.0238206015188" r="0.09354395759342032" fill="#c8a96a" opacity="0.04619835283890213"></circle><circle cx="353.95296236237033" cy="473.425051752467" r="0.31537083724600656" fill="#c8a96a" opacity="0.046409303693570776"></circle><circle cx="1081.1562214384305" cy="224.55811032508547" r="0.7375969372138573" fill="#c8a96a" opacity="0.02858052314038442"></circle><circle cx="39.37802566931925" cy="671.276628874819" r="0.4936352504621119" fill="#c8a96a" opacity="0.0420806650003454"></circle><circle cx="581.006707199108" cy="604.9171428837994" r="0.05899703326205703" fill="#c8a96a" opacity="0.021398696703798004"></circle><circle cx="126.01475166846647" cy="119.27409501443469" r="0.5456759260108076" fill="#c8a96a" opacity="0.02317317244682897"></circle><circle cx="1148.486969435657" cy="384.52139098528437" r="0.24693100340231855" fill="#c8a96a" opacity="0.032007125401982514"></circle><circle cx="530.8063904027243" cy="715.8039958013137" r="0.6102164807421975" fill="#c8a96a" opacity="0.01962349736665327"></circle><circle cx="712.7104277322466" cy="25.620542326701923" r="0.7291517701651211" fill="#c8a96a" opacity="0.01005734394665217"></circle><circle cx="189.5804474410753" cy="516.4325296195992" r="0.2656403747633297" fill="#c8a96a" opacity="0.0445962083388165"></circle><circle cx="169.60078921787408" cy="666.9409224969326" r="0.023348385554428842" fill="#c8a96a" opacity="0.023185376922303498"></circle><circle cx="123.10057896718503" cy="52.9901942598169" r="0.23486269024168493" fill="#c8a96a" opacity="0.015151876691288075"></circle><circle cx="12.690210567462001" cy="630.4893392602445" r="0.21137003857738065" fill="#c8a96a" opacity="0.014095710461472006"></circle><circle cx="20.366478420728296" cy="292.5991380511413" r="0.7624083199315057" fill="#c8a96a" opacity="0.019862254350561832"></circle><circle cx="481.83075161132933" cy="402.49972404890826" r="0.5583167465733647" fill="#c8a96a" opacity="0.0454404392844483"></circle><circle cx="402.7741849785037" cy="724.4782900673056" r="0.7984600613724313" fill="#c8a96a" opacity="0.009930174886819843"></circle><circle cx="806.860054932175" cy="205.53129598734117" r="0.744561828810259" fill="#c8a96a" opacity="0.0326629469577422"></circle><circle cx="272.51565535461384" cy="428.3006631171287" r="0.2593553527417862" fill="#c8a96a" opacity="0.01268798352599555"></circle><circle cx="1170.4490596001708" cy="360.4964442072661" r="0.19510299682538446" fill="#c8a96a" opacity="0.04465210386647611"></circle><circle cx="563.9000002890044" cy="505.8261933409259" r="0.403100742598759" fill="#c8a96a" opacity="0.028979589248454868"></circle><circle cx="351.5736175500619" cy="203.3614596530172" r="0.5061209991206033" fill="#c8a96a" opacity="0.03393455818061255"></circle><circle cx="1185.5233279461563" cy="615.3331377479376" r="0.5102616961200649" fill="#c8a96a" opacity="0.011456873530550188"></circle><circle cx="1164.580123881717" cy="287.3854048337254" r="0.14646644469968015" fill="#c8a96a" opacity="0.009636450594972007"></circle><circle cx="692.1741894742089" cy="266.3302379040921" r="0.4353600299927818" fill="#c8a96a" opacity="0.0418937526286498"></circle><circle cx="871.675076673502" cy="716.4799698860712" r="0.39646423585718804" fill="#c8a96a" opacity="0.027049887479571755"></circle><circle cx="55.3813933274693" cy="31.12063942828245" r="0.7391070426888401" fill="#c8a96a" opacity="0.02446575468223369"></circle><circle cx="1125.4223770430895" cy="757.9885960373094" r="0.25983880103636914" fill="#c8a96a" opacity="0.030553360337662"></circle><circle cx="675.3994350277659" cy="546.2495583951095" r="0.654248399058803" fill="#c8a96a" opacity="0.0371099688882582"></circle><circle cx="1164.822714858344" cy="441.9358920628405" r="0.44127989105074317" fill="#c8a96a" opacity="0.034879965768469946"></circle><circle cx="1060.8076231511031" cy="162.75722844750806" r="0.44356540281787105" fill="#c8a96a" opacity="0.031351386691033566"></circle><circle cx="299.24251806649806" cy="36.62033809597229" r="0.7473121418349946" fill="#c8a96a" opacity="0.018797954261127427"></circle><circle cx="941.2665595072784" cy="709.7236174369882" r="0.755677742689286" fill="#c8a96a" opacity="0.046637172243551434"></circle><circle cx="169.67524068796735" cy="480.0259959585067" r="0.728788323626715" fill="#c8a96a" opacity="0.011052190721012234"></circle><circle cx="542.438634119963" cy="421.1866125169479" r="0.639270714860068" fill="#c8a96a" opacity="0.033635718432609873"></circle><circle cx="716.1642676495247" cy="538.5133028933298" r="0.4880100697761413" fill="#c8a96a" opacity="0.03569240404831394"></circle><circle cx="627.5689183958946" cy="229.28881720338782" r="0.14260016461524483" fill="#c8a96a" opacity="0.018383893455349937"></circle><circle cx="526.7645715922474" cy="387.0441038695565" r="0.2777223178705633" fill="#c8a96a" opacity="0.042899662135730335"></circle><circle cx="1127.5036326320635" cy="620.2292611333312" r="0.5869936991692928" fill="#c8a96a" opacity="0.018361059358462103"></circle><circle cx="350.50600883312575" cy="502.4348005485944" r="0.027355414165330407" fill="#c8a96a" opacity="0.042719852522708705"></circle><circle cx="922.2719162997716" cy="139.7063491198489" r="0.007578434945573243" fill="#c8a96a" opacity="0.022300734448245842"></circle><circle cx="359.04323638670826" cy="533.0565750273114" r="0.5265791157291639" fill="#c8a96a" opacity="0.018351390211763935"></circle><circle cx="848.4900000804508" cy="546.6483384826328" r="0.20831815795815445" fill="#c8a96a" opacity="0.008199652709268746"></circle><circle cx="1180.106160544344" cy="189.62425704844313" r="0.24530706241100309" fill="#c8a96a" opacity="0.002139183293729774"></circle><circle cx="1132.335191696835" cy="749.7513738671643" r="0.4527968933895255" fill="#c8a96a" opacity="0.03762553261723635"></circle><circle cx="998.8790083115673" cy="737.3253676369975" r="0.5214107811459118" fill="#c8a96a" opacity="0.024604909472871417"></circle><circle cx="111.67813745705222" cy="299.33567426796014" r="0.14047745287489885" fill="#c8a96a" opacity="0.012911559302209398"></circle><circle cx="218.07487753302937" cy="5.294566515063792" r="0.6805513298506906" fill="#c8a96a" opacity="0.0061479313450735484"></circle><circle cx="82.63220112514804" cy="117.30530685588994" r="0.7320718848472803" fill="#c8a96a" opacity="0.009063723189844669"></circle><circle cx="760.4195763375315" cy="99.74349292678424" r="0.32478342865899096" fill="#c8a96a" opacity="0.048162671575466234"></circle><circle cx="1056.5475496906292" cy="119.80984340363338" r="0.6684425767347011" fill="#c8a96a" opacity="0.046683050606547156"></circle><circle cx="261.0370323571491" cy="686.564866814709" r="0.0019795762856013254" fill="#c8a96a" opacity="0.032471677641892"></circle><circle cx="801.3566511585303" cy="64.76032135880149" r="0.4378850094383151" fill="#c8a96a" opacity="0.008131669043753077"></circle><circle cx="737.5315190312136" cy="441.3272534660175" r="0.0846002261385726" fill="#c8a96a" opacity="0.035395080366074035"></circle><circle cx="114.3836218334676" cy="84.35721110594923" r="0.529222145394063" fill="#c8a96a" opacity="0.0011008820328688885"></circle><circle cx="335.69128806987345" cy="757.5733008066956" r="0.1585740525873165" fill="#c8a96a" opacity="0.03591785666980392"></circle><circle cx="975.0477806832789" cy="327.8980550138278" r="0.2209430889149208" fill="#c8a96a" opacity="0.0008492091791344581"></circle><circle cx="957.0496612350692" cy="615.9816722305475" r="0.5711451300213531" fill="#c8a96a" opacity="0.0005408976432487889"></circle><circle cx="913.1602086281899" cy="726.6468854689709" r="0.5725817372931351" fill="#c8a96a" opacity="0.011237687724271046"></circle><circle cx="467.4092717855073" cy="294.5174529848346" r="0.09489251548587987" fill="#c8a96a" opacity="0.0465535882456729"></circle><circle cx="1020.9411658425519" cy="234.7188352280785" r="0.5091358365876575" fill="#c8a96a" opacity="0.02493169773682958"></circle><circle cx="151.79182118207794" cy="64.49254009680257" r="0.7897567542385243" fill="#c8a96a" opacity="0.010901949923960243"></circle><circle cx="899.5162787247091" cy="286.8917629850696" r="0.009458622565650377" fill="#c8a96a" opacity="0.0347261714426058"></circle><circle cx="153.86072785569357" cy="407.1552106596748" r="0.7334114110945769" fill="#c8a96a" opacity="0.016187238170293366"></circle><circle cx="320.1561006599916" cy="586.3401577653814" r="0.1474294453525217" fill="#c8a96a" opacity="0.03031328823194946"></circle><circle cx="198.68463315430884" cy="432.8644856659614" r="0.4750919193406502" fill="#c8a96a" opacity="0.023408719282720127"></circle><circle cx="639.4883258249107" cy="639.9649873003553" r="0.34570072839512705" fill="#c8a96a" opacity="0.04543618706416632"></circle><circle cx="801.1458015961448" cy="278.4886804037645" r="0.623393330524937" fill="#c8a96a" opacity="0.028734432842470112"></circle><circle cx="72.39013250935038" cy="91.04257852562645" r="0.7418668153099547" fill="#c8a96a" opacity="0.03331420335870013"></circle><circle cx="1021.0516134317301" cy="310.2248206797076" r="0.2053966254836655" fill="#c8a96a" opacity="0.04869487026011028"></circle><circle cx="831.2695910058695" cy="666.7638798835013" r="0.0619843182342291" fill="#c8a96a" opacity="0.02519861918080977"></circle><circle cx="224.62839072254002" cy="310.7568545355539" r="0.5335207438728053" fill="#c8a96a" opacity="0.01105990375146933"></circle><circle cx="877.5497235923318" cy="519.8657884230555" r="0.7156115626437762" fill="#c8a96a" opacity="0.02684271520010478"></circle><circle cx="177.07465457818662" cy="51.16258711780057" r="0.07924577565464119" fill="#c8a96a" opacity="0.03313663943438184"></circle><circle cx="304.7552543260237" cy="487.4770065369289" r="0.5705161439143452" fill="#c8a96a" opacity="0.038657449451567044"></circle><circle cx="193.4360649264919" cy="109.45699221930809" r="0.12766855325340246" fill="#c8a96a" opacity="0.019579022320546577"></circle><circle cx="544.3020426240224" cy="211.5849688264132" r="0.20803480632952198" fill="#c8a96a" opacity="0.003133642139196663"></circle><circle cx="458.48612244167606" cy="336.3926806034841" r="0.4415666115622527" fill="#c8a96a" opacity="0.035607734038306464"></circle><circle cx="254.92186469419283" cy="598.0613949898784" r="0.11683749124055903" fill="#c8a96a" opacity="0.0404806161712637"></circle><circle cx="654.3623315575544" cy="378.9902928523419" r="0.7636675800159224" fill="#c8a96a" opacity="0.042139915477894065"></circle><circle cx="207.19025246327857" cy="240.5347760460609" r="0.4829393782348305" fill="#c8a96a" opacity="0.016823053675823096"></circle><circle cx="1188.5148872105299" cy="541.4341919475851" r="0.704825707394498" fill="#c8a96a" opacity="0.02180415258098971"></circle><circle cx="729.0862202479162" cy="210.02661871999226" r="0.3625878082052615" fill="#c8a96a" opacity="0.019910823993221693"></circle><circle cx="472.08631998210257" cy="325.2899725412948" r="0.31726900256933654" fill="#c8a96a" opacity="0.017894587623565918"></circle><circle cx="453.03691701653645" cy="175.029783317044" r="0.6780133301069303" fill="#c8a96a" opacity="0.014244331976239056"></circle><circle cx="595.7362256715223" cy="386.88905001248946" r="0.07240811490812016" fill="#c8a96a" opacity="0.014700785679084989"></circle><circle cx="217.42034383395762" cy="544.9352572733762" r="0.018803749125651414" fill="#c8a96a" opacity="0.011413020751593995"></circle><circle cx="486.4812230516542" cy="351.24270821051834" r="0.49274132594231096" fill="#c8a96a" opacity="0.000870280513920474"></circle><circle cx="926.8861318588262" cy="798.5545449763796" r="0.5829281334712817" fill="#c8a96a" opacity="0.006581676684706223"></circle><circle cx="207.5553746241468" cy="153.61958834686993" r="0.7439830268935501" fill="#c8a96a" opacity="0.0026935774687489645"></circle><circle cx="205.5722304635682" cy="80.70878823944918" r="0.5736210548576453" fill="#c8a96a" opacity="0.04449497028296951"></circle><circle cx="417.47493268042257" cy="199.8105784659189" r="0.49142473093280525" fill="#c8a96a" opacity="0.02605435456870038"></circle><circle cx="436.99786052425924" cy="245.22567048376987" r="0.033575954102469566" fill="#c8a96a" opacity="0.014187851959172654"></circle><circle cx="207.79848372590203" cy="77.90944790739917" r="0.028502284547586233" fill="#c8a96a" opacity="0.007781220416060986"></circle><circle cx="507.86074886547976" cy="108.75634039298454" r="0.39953157664805455" fill="#c8a96a" opacity="0.009853322311773112"></circle><circle cx="1148.8718426754222" cy="151.37343032387162" r="0.24345882402122349" fill="#c8a96a" opacity="0.024294360755098127"></circle><circle cx="442.5102442938859" cy="366.8431920465055" r="0.7467656224356748" fill="#c8a96a" opacity="0.045974102099733724"></circle><circle cx="411.13509266585095" cy="490.1879606940358" r="0.24702007550990024" fill="#c8a96a" opacity="0.037061161281709554"></circle><circle cx="1090.7642182025347" cy="625.4657390695069" r="0.4845530288664793" fill="#c8a96a" opacity="0.001972018623174637"></circle><circle cx="229.0121970560671" cy="386.8078392071288" r="0.17347088920981202" fill="#c8a96a" opacity="0.036910450755358565"></circle><circle cx="459.79151317936385" cy="745.4057135902485" r="0.6108787450087825" fill="#c8a96a" opacity="0.029317675549093272"></circle><circle cx="54.57069292108949" cy="511.7996136591887" r="0.7424806306111404" fill="#c8a96a" opacity="0.020601864510827107"></circle><circle cx="89.66010431083103" cy="719.0704562857458" r="0.3542115339554621" fill="#c8a96a" opacity="0.001976975818913296"></circle><circle cx="1194.4053578936362" cy="303.71451769453444" r="0.08461525707621816" fill="#c8a96a" opacity="0.012424656847517519"></circle><circle cx="1175.6125902345725" cy="378.2474271667251" r="0.29166067730502654" fill="#c8a96a" opacity="0.03839782994018343"></circle><circle cx="1147.7467873647236" cy="630.0874107975824" r="0.7262865918270426" fill="#c8a96a" opacity="0.014837051501534082"></circle><circle cx="1105.663284304256" cy="284.06917937423907" r="0.04434577037249241" fill="#c8a96a" opacity="0.0009862922625654747"></circle><circle cx="958.6859921304664" cy="401.9805223307358" r="0.349083067349373" fill="#c8a96a" opacity="0.04518600048827093"></circle><circle cx="413.38804393156965" cy="730.8235612122453" r="0.16228261971932964" fill="#c8a96a" opacity="0.012099640906101322"></circle><circle cx="700.5932022848374" cy="381.8364241680957" r="0.544015316345943" fill="#c8a96a" opacity="0.043640248944330114"></circle><circle cx="981.3179432782825" cy="799.356489389369" r="0.6145589263522621" fill="#c8a96a" opacity="0.014401468282348768"></circle><circle cx="1088.7833972219894" cy="283.5279651640998" r="0.25057858144185013" fill="#c8a96a" opacity="0.026102230323890085"></circle><circle cx="550.2128720540863" cy="614.0013533666723" r="0.5346312627245383" fill="#c8a96a" opacity="0.029948964406273107"></circle><circle cx="391.4161818694558" cy="438.9604250699394" r="0.31694068784899276" fill="#c8a96a" opacity="0.01585936231434338"></circle><circle cx="185.85637577645983" cy="575.1701230520711" r="0.05051922808189682" fill="#c8a96a" opacity="0.020165607718528378"></circle><circle cx="33.74393277714596" cy="320.22083122372794" r="0.10421097385028971" fill="#c8a96a" opacity="0.0075374399362193485"></circle><circle cx="1139.9148086903442" cy="704.4941011511511" r="0.32764134524869626" fill="#c8a96a" opacity="0.01875436811557913"></circle><circle cx="660.6890814868898" cy="337.1287103921492" r="0.6185858633415158" fill="#c8a96a" opacity="0.0407171758286726"></circle><circle cx="1107.8779248443416" cy="43.711750984362574" r="0.3723917270242021" fill="#c8a96a" opacity="0.013762302063058491"></circle><circle cx="199.30052397094866" cy="431.0255606183624" r="0.4574662092961648" fill="#c8a96a" opacity="0.04652665942536078"></circle><circle cx="1199.3888295933752" cy="139.7961512858247" r="0.044001688169019816" fill="#c8a96a" opacity="0.0445294082320358"></circle><circle cx="877.2327051288562" cy="491.84348796914634" r="0.01614195064617521" fill="#c8a96a" opacity="0.021117930948729952"></circle><circle cx="412.0424058158852" cy="352.2604506268615" r="0.7982534383933779" fill="#c8a96a" opacity="0.0023544879085607598"></circle><circle cx="705.3904372598239" cy="535.7333306311706" r="0.562464964794147" fill="#c8a96a" opacity="0.03658800547097956"></circle><circle cx="319.9981553142539" cy="470.87002499101527" r="0.6753440550310336" fill="#c8a96a" opacity="0.04385162966707873"></circle><circle cx="497.19934910936394" cy="392.2923997096588" r="0.5232690260574366" fill="#c8a96a" opacity="0.0407762327897909"></circle><circle cx="307.8944782217248" cy="653.7545797245904" r="0.19052216462343347" fill="#c8a96a" opacity="0.028557982328785227"></circle><circle cx="562.9997989614048" cy="544.5155413280723" r="0.43959687257879243" fill="#c8a96a" opacity="0.0002462201945915066"></circle><circle cx="836.8992459314912" cy="453.5078644173045" r="0.10911510155257807" fill="#c8a96a" opacity="0.024549573939883593"></circle><circle cx="1163.010887797035" cy="44.17633874054676" r="0.7344092544231153" fill="#c8a96a" opacity="0.01170787743634314"></circle><circle cx="786.5381472128835" cy="204.16229871029694" r="0.3793537735405904" fill="#c8a96a" opacity="0.01176540842150093"></circle><circle cx="495.8474318064421" cy="533.2616293427468" r="0.5626170557246777" fill="#c8a96a" opacity="0.042112735138627455"></circle><circle cx="158.28465664526433" cy="344.5729359554436" r="0.10025966890631884" fill="#c8a96a" opacity="0.032786496216799174"></circle><circle cx="780.4089651242978" cy="436.2745936897592" r="0.6076460224277006" fill="#c8a96a" opacity="0.037902038663137974"></circle><circle cx="111.32554954891121" cy="553.1874258716684" r="0.07366557035472523" fill="#c8a96a" opacity="0.02018047562494975"></circle><circle cx="486.3780275015473" cy="750.4242844195621" r="0.30202666826984176" fill="#c8a96a" opacity="0.03554005309820856"></circle><circle cx="1164.795741191342" cy="664.9468845738662" r="0.20587133967441842" fill="#c8a96a" opacity="0.025526397993476935"></circle><circle cx="1150.9682605512987" cy="637.5270749592487" r="0.4017927072637264" fill="#c8a96a" opacity="0.0007970135538855894"></circle><circle cx="29.59678440496676" cy="305.96252645588066" r="0.25561669088814293" fill="#c8a96a" opacity="0.02240491218809017"></circle><circle cx="224.2509937534638" cy="15.154525697353982" r="0.6072558448884042" fill="#c8a96a" opacity="0.019754984047605062"></circle><circle cx="821.4217435030757" cy="82.31409201414888" r="0.03398185960750988" fill="#c8a96a" opacity="0.022381677250090833"></circle><circle cx="600.2059896287374" cy="765.5314536826407" r="0.12913482332593418" fill="#c8a96a" opacity="0.014245879918088185"></circle><circle cx="495.36356072682935" cy="789.9635658121445" r="0.36773978232374455" fill="#c8a96a" opacity="0.006170311027737835"></circle><circle cx="903.8297881065299" cy="137.20516676184457" r="0.4964323713597552" fill="#c8a96a" opacity="0.030874616341296336"></circle><circle cx="732.9523970209286" cy="255.86690123970425" r="0.4066470798639317" fill="#c8a96a" opacity="0.04274412497518861"></circle><circle cx="809.960302003471" cy="191.62203543959802" r="0.20699680509009133" fill="#c8a96a" opacity="0.006494485684475343"></circle><circle cx="249.91173829923775" cy="675.0619187645" r="0.5590193807289462" fill="#c8a96a" opacity="0.012935634537018681"></circle><circle cx="539.0361986690768" cy="29.53988511618313" r="0.5138472609088985" fill="#c8a96a" opacity="0.004198440687723515"></circle><circle cx="839.4223797960458" cy="176.6498219079583" r="0.416960048684816" fill="#c8a96a" opacity="0.007250644072549584"></circle><circle cx="1023.4141245234142" cy="377.277780920462" r="0.6973309277977355" fill="#c8a96a" opacity="0.0074035728403615275"></circle><circle cx="99.87186215994556" cy="292.8274565697267" r="0.049303170805131025" fill="#c8a96a" opacity="0.020891753703896156"></circle><circle cx="884.8244931049471" cy="317.56252449113146" r="0.023431455768989286" fill="#c8a96a" opacity="0.015939502051662658"></circle><circle cx="370.97934589828645" cy="485.42558022073933" r="0.6411337371732884" fill="#c8a96a" opacity="0.029975309785211863"></circle><circle cx="18.607891691856217" cy="205.24999231475735" r="0.16962404514477003" fill="#c8a96a" opacity="0.0014041299547089216"></circle><circle cx="881.569990239939" cy="138.7970419444682" r="0.36077099036135174" fill="#c8a96a" opacity="0.01042032806017893"></circle><circle cx="296.74794081397124" cy="193.09533048386552" r="0.5291742127068393" fill="#c8a96a" opacity="0.029922273118396556"></circle><circle cx="1156.2067493623429" cy="583.4842081099637" r="0.003647061838510091" fill="#c8a96a" opacity="0.03790206635853837"></circle><circle cx="440.0127270540018" cy="689.3251194477042" r="0.3036353954945506" fill="#c8a96a" opacity="0.03694290391451923"></circle><circle cx="676.0270112644188" cy="512.667375423584" r="0.16325293759519077" fill="#c8a96a" opacity="0.025928730993932704"></circle><circle cx="259.4348646749454" cy="765.283993847608" r="0.21774020498587304" fill="#c8a96a" opacity="0.012019324646230012"></circle><circle cx="1165.2181116261215" cy="525.1050103488411" r="0.10038380595666495" fill="#c8a96a" opacity="0.023911368810335745"></circle><circle cx="421.3857726774007" cy="58.11264333244574" r="0.13703810306156158" fill="#c8a96a" opacity="0.030936375326624566"></circle><circle cx="371.4511717716038" cy="429.82189890704666" r="0.4014334338622269" fill="#c8a96a" opacity="0.0369055105819471"></circle><circle cx="25.576790206281828" cy="631.8708800926485" r="0.6026336654580634" fill="#c8a96a" opacity="0.02102312122017155"></circle><circle cx="49.81665040287311" cy="452.04591539605997" r="0.08482153895549081" fill="#c8a96a" opacity="0.03848139369594405"></circle><circle cx="1186.2766869549528" cy="6.983678671087645" r="0.5223158962886383" fill="#c8a96a" opacity="0.025576757942339975"></circle><circle cx="757.7471689372264" cy="429.49930196861914" r="0.631474817766884" fill="#c8a96a" opacity="0.04758493707098047"></circle><circle cx="1040.86622251494" cy="694.4060370607059" r="0.6578108706390737" fill="#c8a96a" opacity="0.03355624241479047"></circle><circle cx="513.9827486029379" cy="776.7516831752423" r="0.3958234836360661" fill="#c8a96a" opacity="0.036799137612910496"></circle><circle cx="526.2181104228913" cy="618.7783054502336" r="0.18857196919894748" fill="#c8a96a" opacity="0.023318100004886697"></circle><circle cx="620.4211624444048" cy="373.26789287815245" r="0.7812582943448776" fill="#c8a96a" opacity="0.036053131287083345"></circle><circle cx="403.2407771667256" cy="334.8294162055465" r="0.07298898928074786" fill="#c8a96a" opacity="0.0051280294060558175"></circle><circle cx="41.181567742924805" cy="344.01440616699784" r="0.348740593455775" fill="#c8a96a" opacity="0.04649142670625177"></circle><circle cx="33.24858871576346" cy="687.5123199038337" r="0.7903099149420854" fill="#c8a96a" opacity="0.04461593153704371"></circle><circle cx="74.40065628701986" cy="6.437233694087752" r="0.041261279949791965" fill="#c8a96a" opacity="0.03432910674319133"></circle><circle cx="45.11051714594263" cy="520.2709868994323" r="0.11469140247006093" fill="#c8a96a" opacity="0.024807608100961893"></circle><circle cx="499.6530441880616" cy="683.7851462239779" r="0.25355681216334863" fill="#c8a96a" opacity="0.030896843780741985"></circle><circle cx="641.3287353295939" cy="373.2114154096295" r="0.30692248214362305" fill="#c8a96a" opacity="0.017880896926565838"></circle><circle cx="267.7862769933144" cy="102.03841139297536" r="0.14149477248577416" fill="#c8a96a" opacity="0.014979936190856186"></circle><circle cx="91.7471432750431" cy="206.29754849316572" r="0.7368643517095723" fill="#c8a96a" opacity="0.04235105554196883"></circle><circle cx="622.7629913797989" cy="465.49769684362553" r="0.6340859127439175" fill="#c8a96a" opacity="0.047351126406779"></circle><circle cx="87.54957017336906" cy="457.8772254868163" r="0.10518278076329574" fill="#c8a96a" opacity="0.02797092552082299"></circle>
    <rect width="1200" height="800" fill="url(#vg-04)"></rect>
    
    <g transform="translate(72, 64)">
      <text x="0" y="0" font-family="Playfair Display, serif" font-style="italic" font-size="30.4" fill="#c8a96a">Le Bien</text>
      <line x1="0" y1="16" x2="112.00000000000001" y2="16" stroke="#c8a96a" stroke-width="0.6" opacity="0.8"></line>
      <text x="0" y="35.199999999999996" font-family="Playfair Display, serif" font-style="italic" font-size="14.399999999999999" fill="#c8a96a" letter-spacing="3">DÉCO</text>
    </g>
  
    
    <text x="1128" y="72" text-anchor="end" font-family="Playfair Display, serif" font-style="italic" font-size="40" fill="#c8a96a" opacity="0.9">— 04</text>
  
    
    <g transform="translate(72, 720)">
      <text x="0" y="0" font-family="&#39;Courier New&#39;, monospace" font-size="12" fill="#c8a96a" letter-spacing="3" opacity="0.7">[ CORPORATE · GALA ]</text>
      <text x="0" y="29.120000000000005" font-family="Playfair Display, serif" font-style="italic" font-size="22.400000000000002" fill="#cdc7b8">The room before the toast</text>
    </g>
  
  </svg>