<svg xmlns="http://www.w3.org/2000/svg" viewBox="0 0 900 1100" preserveAspectRatio="xMidYMid slice">
    <defs><radialGradient id="vg-05" cx="50%" cy="50%" r="65%"><stop offset="60%" stop-color="#f4f0e6" stop-opacity="0"></stop><stop offset="100%" stop-color="#f4f0e6" stop-opacity="0.55"></stop></radialGradient></defs>
    <rect width="900" height="1100" fill="#f4f0e6"></rect>
    
      <rect x="72" y="72" width="756" height="956" fill="none" stroke="#8a7240" stroke-width="0.6" opacity="0.5"></rect>
      <rect x="115.2" y="115.2" width="669.6" height="869.6" fill="none" stroke="#8a7240" stroke-width="0.4" opacity="0.3"></rect>
    
    <circle cx="659.0908434375755" cy="358.1607976002187" r="0.05693049297406638" fill="#8a7240" opacity="0.03338398365163038"></circle><circle cx="355.0648018703019" cy="855.6858105769729" r="0.32831459383904193" fill="#8a7240" opacity="0.019705764880314558"></circle><circle cx="709.9946669725138" cy="490.1387965734457" r="0.6426080578400578" fill="#8a7240" opacity="0.017526894774722548"></circle><circle cx="874.6272294863792" cy="1072.5281974209067" r="0.17520854166027197" fill="#8a7240" opacity="0.04798827601302241"></circle><circle cx="590.9541512234047" cy="593.1802259855299" r="0.38196940133676494" fill="#8a7240" opacity="0.026431486601948325"></circle><circle cx="405.0407765992865" cy="1043.6975395778863" r="0.49180592376078053" fill="#8a7240" opacity="0.030147141587969595"></circle><circle cx="814.9276302424549" cy="861.4498022736889" r="0.6837305984852878" fill="#8a7240" opacity="0.02274881233804619"></circle><circle cx="461.1924254945538" cy="568.7370032268665" r="0.7045063856116744" fill="#8a7240" opacity="0.04316280782408469"></circle><circle cx="4.069254905110997" cy="60.39740361904072" r="0.5726005145456609" fill="#8a7240" opacity="0.04713925440568383"></circle><circle cx="435.77385754868936" cy="54.42973084743421" r="0.1621092212288925" fill="#8a7240" opacity="0.026078745016961058"></circle><circle cx="400.1391177624413" cy="472.5039415997817" r="0.17355277562128535" fill="#8a7240" opacity="0.0148000984158064"></circle><circle cx="189.9448017170406" cy="341.981628507405" r="0.16732529253359063" fill="#8a7240" opacity="0.04620001917714095"></circle><circle cx="119.66092351253998" cy="570.9216197438483" r="0.4536587513652391" fill="#8a7240" opacity="0.042625858313776424"></circle><circle cx="230.50851656991554" cy="405.01693060175137" r="0.4664644686322983" fill="#8a7240" opacity="0.01396180427370224"></circle><circle cx="268.8673246352558" cy="400.56366276080456" r="0.0959088019993457" fill="#8a7240" opacity="0.002848955642723683"></circle><circle cx="91.86965109113694" cy="878.4591323020626" r="0.188736417206101" fill="#8a7240" opacity="0.047038729515172545"></circle><circle cx="423.1118782362407" cy="1022.0697580485933" r="0.5892220246513279" fill="#8a7240" opacity="0.04269145382451082"></circle><circle cx="249.4729884699947" cy="369.2438015292366" r="0.6756365682103028" fill="#8a7240" opacity="0.020087927844305072"></circle><circle cx="310.26230559246653" cy="702.8900725740804" r="0.028747202407195527" fill="#8a7240" opacity="0.029967503718694166"></circle><circle cx="653.2027507072804" cy="891.7824162123092" r="0.29882852659422493" fill="#8a7240" opacity="0.001256667273062978"></circle><circle cx="781.7368680207088" cy="529.3296295443658" r="0.6436937162091807" fill="#8a7240" opacity="0.049646518860226724"></circle><circle cx="331.6027687533743" cy="63.12170178372004" r="0.46630707714644903" fill="#8a7240" opacity="0.020001930734540697"></circle><circle cx="113.78850005772007" cy="412.28384514752344" r="0.3854304089226081" fill="#8a7240" opacity="0.013665168326766675"></circle><circle cx="550.7282213460685" cy="593.24583807552" r="0.0954118546577246" fill="#8a7240" opacity="0.0011286761917325085"></circle><circle cx="806.7015109371916" cy="208.1567896962924" r="0.10090353924135798" fill="#8a7240" opacity="0.02785613169772984"></circle><circle cx="332.64756892688547" cy="657.7082363409095" r="0.7486322809452035" fill="#8a7240" opacity="0.04247135810825195"></circle><circle cx="655.8872433155165" cy="520.3185234283737" r="0.6459525979401248" fill="#8a7240" opacity="0.0007714014993744023"></circle><circle cx="597.7303339337648" cy="901.0887867538855" r="0.707582453541401" fill="#8a7240" opacity="0.00987044056686195"></circle><circle cx="795.139528878674" cy="37.71153190397533" r="0.11294526664101162" fill="#8a7240" opacity="0.030629757013726628"></circle><circle cx="173.4528466061705" cy="912.1676639340587" r="0.6267543918757135" fill="#8a7240" opacity="0.02954215213876259"></circle><circle cx="683.7383149915503" cy="458.45822469166313" r="0.04680723872610564" fill="#8a7240" opacity="0.01705616896427727"></circle><circle cx="170.24204910237793" cy="1038.5925242207907" r="0.7294124811418905" fill="#8a7240" opacity="0.013363107597954439"></circle><circle cx="193.8401557478689" cy="830.1365261150069" r="0.05446610716305669" fill="#8a7240" opacity="0.029506644022426004"></circle><circle cx="269.97902536622274" cy="393.4364388356038" r="0.5820938391612641" fill="#8a7240" opacity="0.04411244105525345"></circle><circle cx="78.36318326495669" cy="688.4183565064761" r="0.6643852433858362" fill="#8a7240" opacity="0.0171187971429221"></circle><circle cx="201.48659309412835" cy="400.90841067477606" r="0.3453295050244112" fill="#8a7240" opacity="0.005007159536860995"></circle><circle cx="170.82811794868223" cy="650.2235479220373" r="0.7538454616425482" fill="#8a7240" opacity="0.02949226057314901"></circle><circle cx="667.1354379543245" cy="849.1266968493647" r="0.17351534973737417" fill="#8a7240" opacity="0.032045063333401166"></circle><circle cx="270.5665332858911" cy="243.4609286942831" r="0.4625895410973233" fill="#8a7240" opacity="0.008395557479721556"></circle><circle cx="806.2906391740789" cy="54.79898324712481" r="0.29992210136404024" fill="#8a7240" opacity="0.03564222667595472"></circle><circle cx="487.7954614446226" cy="896.7786060988417" r="0.6685094416259463" fill="#8a7240" opacity="0.044708464287355566"></circle><circle cx="482.3342736556785" cy="598.0356243872401" r="0.49230120570598834" fill="#8a7240" opacity="0.025984825433935457"></circle><circle cx="849.1691292086283" cy="978.8196114730149" r="0.49347992407846636" fill="#8a7240" opacity="0.025368545758203256"></circle><circle cx="194.82307503114333" cy="136.42258813656616" r="0.016288388751254157" fill="#8a7240" opacity="0.03657744614613917"></circle><circle cx="514.5719401136423" cy="570.6088992362951" r="0.2470670390027938" fill="#8a7240" opacity="0.013448515424577446"></circle><circle cx="135.8959240168684" cy="366.7955393798839" r="0.08815410825947456" fill="#8a7240" opacity="0.012714150495620736"></circle><circle cx="254.91305543905926" cy="1022.2255735559381" r="0.4973192193551776" fill="#8a7240" opacity="0.003617262101167074"></circle><circle cx="423.6455826959728" cy="694.8365745190472" r="0.63724268477429" fill="#8a7240" opacity="0.02195396994882808"></circle><circle cx="334.05680664046054" cy="1086.577667420929" r="0.7096378046183585" fill="#8a7240" opacity="0.030479564935824523"></circle><circle cx="516.7675744115435" cy="970.429437701609" r="0.2734950988179274" fill="#8a7240" opacity="0.011846698704694993"></circle><circle cx="194.76491214613878" cy="632.4446869737085" r="0.4151696298489103" fill="#8a7240" opacity="0.027136423270478705"></circle><circle cx="331.7036959674353" cy="350.8289983925564" r="0.3386295829198064" fill="#8a7240" opacity="0.043281687908478556"></circle><circle cx="605.3608673233452" cy="30.222725039945043" r="0.5213122144428833" fill="#8a7240" opacity="0.024970244652663405"></circle><circle cx="338.95327128842825" cy="136.0008203428888" r="0.6133399944869616" fill="#8a7240" opacity="0.0073894232360089025"></circle><circle cx="644.1250341669487" cy="288.6008164196731" r="0.4411045063593232" fill="#8a7240" opacity="0.0002683116207312486"></circle><circle cx="519.3589082643297" cy="524.9880790724019" r="0.6198463558757378" fill="#8a7240" opacity="0.04935255459390617"></circle><circle cx="840.1112308535749" cy="310.0932770971859" r="0.19710134048888828" fill="#8a7240" opacity="0.0015875543763309741"></circle><circle cx="877.0513216577704" cy="80.00908734208268" r="0.7976796949804278" fill="#8a7240" opacity="0.047166699045574655"></circle><circle cx="408.4789225093188" cy="845.9266483201067" r="0.5990040358151665" fill="#8a7240" opacity="0.03804266880361195"></circle><circle cx="597.5852010629343" cy="825.7382339181081" r="0.14806927705643913" fill="#8a7240" opacity="0.04286368813487641"></circle><circle cx="389.75552117924684" cy="914.2297540629146" r="0.7196848394496911" fill="#8a7240" opacity="0.0047149750763642645"></circle><circle cx="866.6461589600134" cy="740.7168623922449" r="0.4918367354145636" fill="#8a7240" opacity="0.0384245420636074"></circle><circle cx="873.2513827011246" cy="271.4955309379234" r="0.5067365747483364" fill="#8a7240" opacity="0.029506102479958957"></circle><circle cx="544.4071431383269" cy="555.1946541626569" r="0.6517682143338942" fill="#8a7240" opacity="0.028835513560518913"></circle><circle cx="617.9331395698028" cy="818.4778588262773" r="0.6341129078579175" fill="#8a7240" opacity="0.023201233092639197"></circle><circle cx="433.7538799014774" cy="1074.2470672501806" r="0.35646763315799546" fill="#8a7240" opacity="0.009959458069929423"></circle><circle cx="140.05304539972784" cy="219.18930618401504" r="0.0663607693964912" fill="#8a7240" opacity="0.03635628912784208"></circle><circle cx="234.1759953307128" cy="326.22257987253977" r="0.007693957748364167" fill="#8a7240" opacity="0.0069852388865548455"></circle><circle cx="25.169082498753347" cy="790.6062711936264" r="0.6561588879178019" fill="#8a7240" opacity="0.0016632240400854148"></circle><circle cx="63.32077008481137" cy="1010.0731430152226" r="0.10194927764067369" fill="#8a7240" opacity="0.019336176414557777"></circle><circle cx="143.15452747440622" cy="977.9845291978872" r="0.3218441053718961" fill="#8a7240" opacity="0.03036648388726699"></circle><circle cx="306.013133655417" cy="550.2259760322095" r="0.26574953346300767" fill="#8a7240" opacity="0.03619853783404323"></circle><circle cx="457.7260351040395" cy="679.9677660914791" r="0.5423812082085177" fill="#8a7240" opacity="0.035024120751987624"></circle><circle cx="783.6899258624057" cy="12.99026320040728" r="0.5517472727985517" fill="#8a7240" opacity="0.02851298981537913"></circle><circle cx="257.85370428792" cy="790.1740419124125" r="0.13715569476886566" fill="#8a7240" opacity="0.005599885598668031"></circle><circle cx="207.1087456015177" cy="243.4539159568228" r="0.6328326835272753" fill="#8a7240" opacity="0.012758551154363652"></circle><circle cx="426.6851653329286" cy="848.9403807147514" r="0.5795411634258597" fill="#8a7240" opacity="0.022139999770834223"></circle><circle cx="769.9983580372109" cy="720.6310649815719" r="0.1986028243299213" fill="#8a7240" opacity="0.03594423161498845"></circle><circle cx="285.9942607603749" cy="924.8459894735225" r="0.46713467216502613" fill="#8a7240" opacity="0.02632644345385984"></circle><circle cx="532.2068524497429" cy="507.38771392199595" r="0.7625283104123882" fill="#8a7240" opacity="0.0096178967430596"></circle><circle cx="112.54934468405692" cy="771.3004683869405" r="0.5373324753903489" fill="#8a7240" opacity="0.014957550636295159"></circle><circle cx="560.4842689197254" cy="567.2746105208203" r="0.5062265644403992" fill="#8a7240" opacity="0.033003928814476786"></circle><circle cx="755.7022310921669" cy="872.3978867011886" r="0.3101001205504293" fill="#8a7240" opacity="0.025628942923735517"></circle><circle cx="70.44951557389058" cy="80.93652026672095" r="0.7394122056019894" fill="#8a7240" opacity="0.01249924678638863"></circle><circle cx="35.802746691883755" cy="1075.00299885774" r="0.1462799794264953" fill="#8a7240" opacity="0.019169115775137316"></circle><circle cx="669.5443519179145" cy="749.2521262997569" r="0.24496966545760968" fill="#8a7240" opacity="0.04897696604620613"></circle><circle cx="231.06988745003656" cy="421.2113589193144" r="0.03204019739990543" fill="#8a7240" opacity="0.01673754559654636"></circle><circle cx="419.20126835757844" cy="897.8437950631586" r="0.3009906148030447" fill="#8a7240" opacity="0.014912165768707603"></circle><circle cx="848.4655393953284" cy="131.10825647870453" r="0.33269326788332987" fill="#8a7240" opacity="0.008841948928710736"></circle><circle cx="60.53529227777727" cy="230.6142327663934" r="0.4618540210532877" fill="#8a7240" opacity="0.04282374692614995"></circle><circle cx="117.89593145440368" cy="811.2496599445634" r="0.7124853885778962" fill="#8a7240" opacity="0.016751784491774762"></circle><circle cx="681.2767110548749" cy="1097.0195828249025" r="0.40912940142820536" fill="#8a7240" opacity="0.006830718335911024"></circle><circle cx="486.59497081227437" cy="963.6526954741948" r="0.0528439301728513" fill="#8a7240" opacity="0.04813637868945645"></circle><circle cx="129.2070267878344" cy="35.483573861187004" r="0.4538917849805789" fill="#8a7240" opacity="0.049775835281996646"></circle><circle cx="847.1265236371531" cy="132.91026861343977" r="0.6467776883388999" fill="#8a7240" opacity="0.011704674831345914"></circle><circle cx="339.27734755332955" cy="568.3143512999482" r="0.5592654657679426" fill="#8a7240" opacity="0.022604367614174583"></circle><circle cx="280.0953872592691" cy="493.66049625992184" r="0.23271034685879188" fill="#8a7240" opacity="0.039246952944575295"></circle><circle cx="356.49697792767887" cy="430.253166781455" r="0.47209889568614316" fill="#8a7240" opacity="0.016425330208588235"></circle><circle cx="843.620196511664" cy="57.173356412705346" r="0.4166604489075718" fill="#8a7240" opacity="0.026564968005294922"></circle><circle cx="153.30682246338165" cy="681.3392385351909" r="0.11993849819360491" fill="#8a7240" opacity="0.013067580662679025"></circle><circle cx="449.12196327803366" cy="570.1319925137049" r="0.41419234281004186" fill="#8a7240" opacity="0.03291659002290777"></circle><circle cx="791.7257947221124" cy="208.91076733624365" r="0.4328894521505124" fill="#8a7240" opacity="0.04655608750381006"></circle><circle cx="324.71829861111183" cy="99.82046380509686" r="0.6695609223607704" fill="#8a7240" opacity="0.015066209852725589"></circle><circle cx="829.5961366925735" cy="993.8995977670638" r="0.40953076231470054" fill="#8a7240" opacity="0.04980722303344361"></circle><circle cx="498.76748757349753" cy="722.7892288123822" r="0.4583399259890369" fill="#8a7240" opacity="0.0116869498136572"></circle><circle cx="38.396934432851836" cy="306.7726643734158" r="0.11504985407259492" fill="#8a7240" opacity="0.007934632621994104"></circle><circle cx="699.4097931324553" cy="835.493849339944" r="0.4959041460224347" fill="#8a7240" opacity="0.003530247988614527"></circle><circle cx="79.33541118053978" cy="669.406607287317" r="0.24115331468929854" fill="#8a7240" opacity="0.023717648345855043"></circle><circle cx="183.50107334214727" cy="1071.6091607572037" r="0.2003160962243624" fill="#8a7240" opacity="0.03249256089701029"></circle><circle cx="491.6235531693955" cy="707.982703671381" r="0.6004993979753094" fill="#8a7240" opacity="0.0328931000780921"></circle><circle cx="199.5945925109917" cy="768.310029583923" r="0.10759919644998028" fill="#8a7240" opacity="0.03568491188518187"></circle><circle cx="758.8560208764994" cy="798.518854212854" r="0.5944721088790107" fill="#8a7240" opacity="0.0007255558493367009"></circle><circle cx="82.20579069694709" cy="1086.4833797292956" r="0.5946694213684536" fill="#8a7240" opacity="0.03712307499096345"></circle><circle cx="71.98609896998128" cy="363.73479121682715" r="0.36240758422687525" fill="#8a7240" opacity="0.029668554817671833"></circle><circle cx="844.9538040767459" cy="960.5673501220582" r="0.07375057624238189" fill="#8a7240" opacity="0.013143670622661375"></circle><circle cx="733.2144300972145" cy="754.9417597524297" r="0.44945484928368185" fill="#8a7240" opacity="0.03869730965220762"></circle><circle cx="292.2129508577631" cy="950.1398377734066" r="0.4682997747876835" fill="#8a7240" opacity="0.011422070913310706"></circle><circle cx="251.83677818066366" cy="996.1162012097906" r="0.718238214679275" fill="#8a7240" opacity="0.02573503419407669"></circle><circle cx="483.2117475853007" cy="104.39434992160677" r="0.29641388058551643" fill="#8a7240" opacity="0.04950130113103365"></circle><circle cx="476.42009782495705" cy="7.3087513934040675" r="0.6878192538494804" fill="#8a7240" opacity="0.02564320319319859"></circle><circle cx="224.34847859566463" cy="419.29416553152396" r="0.7754748182818441" fill="#8a7240" opacity="0.013377930639873421"></circle><circle cx="64.93592941768665" cy="803.3060773538136" r="0.03121711108312777" fill="#8a7240" opacity="0.048278952572268496"></circle><circle cx="247.05801379928693" cy="663.8017594406073" r="0.6136826816464571" fill="#8a7240" opacity="0.04479794938898818"></circle><circle cx="113.7341377391149" cy="232.1881939244857" r="0.7883549606172711" fill="#8a7240" opacity="0.04174922743032531"></circle><circle cx="878.421454186619" cy="638.7732661378205" r="0.4349053204501771" fill="#8a7240" opacity="0.022759649012139893"></circle><circle cx="215.9090630511658" cy="866.6768551054986" r="0.441550732027129" fill="#8a7240" opacity="0.04409082611983216"></circle><circle cx="375.7415105532595" cy="966.4238547172612" r="0.07874375390078026" fill="#8a7240" opacity="0.004862283935286916"></circle><circle cx="856.1776384789565" cy="930.8918445387009" r="0.7027344719331536" fill="#8a7240" opacity="0.01313646986957246"></circle><circle cx="91.234271308056" cy="616.1872193132517" r="0.49993754121347866" fill="#8a7240" opacity="0.04115567351363704"></circle><circle cx="553.2157408941034" cy="730.2261431105914" r="0.4330559245975645" fill="#8a7240" opacity="0.03331885211893372"></circle><circle cx="554.4109400694085" cy="136.4039257284839" r="0.1346804458379947" fill="#8a7240" opacity="0.017898668707696835"></circle><circle cx="197.42670037169574" cy="658.4184333014922" r="0.3043665888323337" fill="#8a7240" opacity="0.012743023249513525"></circle><circle cx="502.9918462247412" cy="1063.6521890215456" r="0.3363985995503569" fill="#8a7240" opacity="0.020643560991707045"></circle><circle cx="810.9712501712569" cy="38.446140465210846" r="0.7274569785275902" fill="#8a7240" opacity="0.022233466385233602"></circle><circle cx="245.75754992399484" cy="405.2430538233573" r="0.005439463785261812" fill="#8a7240" opacity="0.03436823458089621"></circle><circle cx="143.3599569306898" cy="1051.8769821086908" r="0.35989295587143266" fill="#8a7240" opacity="0.000988003650968855"></circle><circle cx="839.2987784930226" cy="392.2864990581449" r="0.08730605193399121" fill="#8a7240" opacity="0.012205764517945045"></circle><circle cx="614.5041116463772" cy="166.33662021607321" r="0.5915683550373961" fill="#8a7240" opacity="0.033747416232804056"></circle><circle cx="77.57388124547869" cy="990.3529122472055" r="0.4009869277041085" fill="#8a7240" opacity="0.033262937892238935"></circle><circle cx="30.154559891716293" cy="384.4844333209401" r="0.5239086476075918" fill="#8a7240" opacity="0.03180927587541212"></circle><circle cx="191.56795566340492" cy="503.0256979729685" r="0.7960659264271566" fill="#8a7240" opacity="0.018684417987012075"></circle><circle cx="580.6163622742723" cy="183.1127086823831" r="0.14924104597268625" fill="#8a7240" opacity="0.04077480267441823"></circle><circle cx="128.47282187038365" cy="1006.8146227141506" r="0.00922510156093086" fill="#8a7240" opacity="0.04394450913795985"></circle><circle cx="316.65467786687236" cy="318.47621521505926" r="0.33543190687864705" fill="#8a7240" opacity="0.011620854215168503"></circle><circle cx="214.34614071144455" cy="72.93671767114301" r="0.5862645121556527" fill="#8a7240" opacity="0.04348914222876531"></circle><circle cx="628.3572096678697" cy="965.6180206896432" r="0.33202774682790337" fill="#8a7240" opacity="0.015941994088074975"></circle><circle cx="272.9871995691278" cy="982.1534736378434" r="0.6305585939778205" fill="#8a7240" opacity="0.02485177130499744"></circle><circle cx="698.1048631360734" cy="225.80584987108983" r="0.02360473482883556" fill="#8a7240" opacity="0.020017948642194985"></circle><circle cx="220.80297325864257" cy="1048.463449779072" r="0.782237885470215" fill="#8a7240" opacity="0.012471465617609773"></circle><circle cx="737.412477403532" cy="68.37857262446362" r="0.317668244058764" fill="#8a7240" opacity="0.040546044553498056"></circle><circle cx="97.1735146904067" cy="704.4457493600698" r="0.5683500687284185" fill="#8a7240" opacity="0.014006466924085876"></circle><circle cx="598.0214424938655" cy="583.3815110466667" r="0.634084243423385" fill="#8a7240" opacity="0.03760932987824339"></circle><circle cx="567.4429676630566" cy="886.660681159334" r="0.36947751677628093" fill="#8a7240" opacity="0.04461077309611901"></circle><circle cx="685.9985402370003" cy="387.4812084734942" r="0.6982630761245946" fill="#8a7240" opacity="0.005299147453740111"></circle><circle cx="78.61676450205731" cy="96.17287885585839" r="0.5025435078667022" fill="#8a7240" opacity="0.049380710985329736"></circle><circle cx="684.583488887358" cy="708.7336044979456" r="0.13992336515637147" fill="#8a7240" opacity="0.0498390229149439"></circle><circle cx="551.3610229289727" cy="410.9174907854602" r="0.1290481919434386" fill="#8a7240" opacity="0.007074912411954965"></circle><circle cx="866.3838733594906" cy="392.8203086876069" r="0.36279880371121953" fill="#8a7240" opacity="0.013524221891702205"></circle><circle cx="82.34127084966926" cy="663.5615597135669" r="0.24613183039115283" fill="#8a7240" opacity="0.03474962114020458"></circle><circle cx="28.36386623364907" cy="755.9787439325278" r="0.09979481988078104" fill="#8a7240" opacity="0.007017779544711328"></circle><circle cx="289.8365344527891" cy="668.6498255065106" r="0.1437043028665932" fill="#8a7240" opacity="0.018478577112246736"></circle><circle cx="45.772257426102634" cy="759.7587821817358" r="0.40726460348064086" fill="#8a7240" opacity="0.03615176732466319"></circle><circle cx="471.20525644276614" cy="962.3230976398974" r="0.75678307106445" fill="#8a7240" opacity="0.035102536401597356"></circle><circle cx="453.93294715497416" cy="610.9765007386615" r="0.6666509897366217" fill="#8a7240" opacity="0.021481990238540985"></circle><circle cx="76.32831880282498" cy="629.5218688847349" r="0.4495554987117305" fill="#8a7240" opacity="0.03303139348899519"></circle><circle cx="347.25661931911924" cy="468.66167243777016" r="0.1691206737609391" fill="#8a7240" opacity="0.008268914359478175"></circle><circle cx="290.9065519827921" cy="790.8958575791389" r="0.06810652595828888" fill="#8a7240" opacity="0.003260428869863952"></circle><circle cx="244.94102595040036" cy="511.4377857426759" r="0.6138027619780286" fill="#8a7240" opacity="0.015076220043157042"></circle><circle cx="434.36873665042935" cy="275.3532721241749" r="0.17088552030031146" fill="#8a7240" opacity="0.040226517504520894"></circle><circle cx="763.3421221236355" cy="518.0284460055307" r="0.46385550387418734" fill="#8a7240" opacity="0.044180907374298445"></circle><circle cx="818.6054317197564" cy="664.0063966581876" r="0.4825160113509357" fill="#8a7240" opacity="0.04055971466651343"></circle><circle cx="879.4225462691448" cy="644.5373390891604" r="0.16487589891758392" fill="#8a7240" opacity="0.029027628761514504"></circle><circle cx="196.03234122868338" cy="725.1292657411273" r="0.5694350046214331" fill="#8a7240" opacity="0.04011650226464086"></circle><circle cx="293.1455149320632" cy="304.6590665850327" r="0.23781074010391318" fill="#8a7240" opacity="0.021243312410263105"></circle><circle cx="604.5660811315806" cy="370.43111114686445" r="0.5758532666030338" fill="#8a7240" opacity="0.022276058421759466"></circle><circle cx="814.6744175574522" cy="921.3584019465478" r="0.10620052659327409" fill="#8a7240" opacity="0.04135443044162748"></circle><circle cx="551.7032492835001" cy="1056.1365870784034" r="0.6874523651317686" fill="#8a7240" opacity="0.04568480225948345"></circle><circle cx="286.8972520208967" cy="74.0254226799227" r="0.6740220159043511" fill="#8a7240" opacity="0.0055458328206712095"></circle><circle cx="224.4661310810846" cy="1029.6249954825366" r="0.5953364443906015" fill="#8a7240" opacity="0.010123715528008215"></circle><circle cx="424.97606468294475" cy="703.7345271497246" r="0.3532214590780256" fill="#8a7240" opacity="0.009295467234290816"></circle><circle cx="105.12302650067669" cy="620.0642699393188" r="0.7430740755561671" fill="#8a7240" opacity="0.027147937158153057"></circle><circle cx="195.74326350729865" cy="656.3097453094542" r="0.5390615267922283" fill="#8a7240" opacity="0.03505223466295692"></circle><circle cx="590.7540037991282" cy="52.43790505831595" r="0.7198896879128611" fill="#8a7240" opacity="0.022675840045700443"></circle><circle cx="854.4263060136527" cy="663.6817747632714" r="0.39875994615600097" fill="#8a7240" opacity="0.002820675668377931"></circle><circle cx="755.3516563484653" cy="821.3465754843991" r="0.7470490421183991" fill="#8a7240" opacity="0.00759542526179971"></circle><circle cx="713.7654786717761" cy="371.2767016991656" r="0.3911216684744294" fill="#8a7240" opacity="0.026619605010479743"></circle><circle cx="867.4681188095" cy="136.04672391197954" r="0.5234722620234876" fill="#8a7240" opacity="0.03411979696614297"></circle><circle cx="277.88288563300654" cy="345.8476819817833" r="0.502792918524024" fill="#8a7240" opacity="0.047049871821816525"></circle><circle cx="318.31255859241145" cy="835.6578006229497" r="0.4020276935039593" fill="#8a7240" opacity="0.005089328528278681"></circle><circle cx="454.3047209109078" cy="506.15555336750924" r="0.4498365001291939" fill="#8a7240" opacity="0.04224531803966611"></circle><circle cx="178.02817213505475" cy="255.46548351190208" r="0.33374820574556446" fill="#8a7240" opacity="0.033893999495850986"></circle><circle cx="38.95251087471142" cy="66.49379904523012" r="0.18829027717569347" fill="#8a7240" opacity="0.041162393936805104"></circle><circle cx="204.23069484099977" cy="1043.9871922082875" r="0.402755096527905" fill="#8a7240" opacity="0.028376007047887758"></circle><circle cx="205.36362409577322" cy="239.2112181750303" r="0.3119201339223344" fill="#8a7240" opacity="0.0059150279903456456"></circle><circle cx="288.765405580533" cy="248.15135317017914" r="0.7799589522286068" fill="#8a7240" opacity="0.040084355684248625"></circle><circle cx="316.38902654001566" cy="350.38030815307087" r="0.5102089990973204" fill="#8a7240" opacity="0.005473403617033923"></circle><circle cx="113.59221250736067" cy="36.54638338327021" r="0.006514748226762812" fill="#8a7240" opacity="0.017924741703798392"></circle><circle cx="369.06539554291516" cy="589.682538572924" r="0.10337076213527806" fill="#8a7240" opacity="0.026439708851949968"></circle><circle cx="781.04075470132" cy="709.0117066359055" r="0.7153693310260684" fill="#8a7240" opacity="0.0392092135100936"></circle><circle cx="715.0296194405797" cy="720.2981401712049" r="0.0025407830997767004" fill="#8a7240" opacity="0.04283587639475461"></circle>
    <rect width="900" height="1100" fill="url(#vg-05)"></rect>
    
    <g transform="translate(54, 88)">
      <text x="0" y="0" font-family="Playfair Display, serif" font-style="italic" font-size="34.199999999999996" fill="#8a7240">Le Bien</text>
      <line x1="0" y1="18" x2="126.00000000000001" y2="18" stroke="#8a7240" stroke-width="0.6" opacity="0.8"></line>
      <text x="0" y="39.599999999999994" font-family="Playfair Display, serif" font-style="italic" font-size="16.2" fill="#8a7240" letter-spacing="3">DÉCO</text>
    </g>
  
    
    <text x="846" y="99" text-anchor="end" font-family="Playfair Display, serif" font-style="italic" font-size="45" fill="#8a7240" opacity="0.9">— 05</text>
  
    
    <g transform="translate(54, 990)">
      <text x="0" y="0" font-family="&#39;Courier New&#39;, monospace" font-size="13.5" fill="#8a7240" letter-spacing="3" opacity="0.7">[ STATIONERY · DETAIL ]</text>
      <text x="0" y="32.76" font-family="Playfair Display, serif" font-style="italic" font-size="25.2" fill="#3a3528">A menu, weighted in hand</text>
    </g>
  
  </svg>