<svg xmlns="http://www.w3.org/2000/svg" viewBox="0 0 1200 800" preserveAspectRatio="xMidYMid slice">
    <defs><radialGradient id="vg-06" cx="50%" cy="50%" r="65%"><stop offset="60%" stop-color="#1a160d" stop-opacity="0"></stop><stop offset="100%" stop-color="#1a160d" stop-opacity="0.55"></stop></radialGradient></defs>
    <rect width="1200" height="800" fill="#1a160d"></rect>
    <line x1="-1200" y1="0" x2="-400" y2="800" stroke="#d9bd7a" stroke-width="0.5" opacity="0.05"></line><line x1="-1140" y1="0" x2="-340" y2="800" stroke="#d9bd7a" stroke-width="0.5" opacity="-0.009999999999999995"></line><line x1="-1080" y1="0" x2="-280" y2="800" stroke="#d9bd7a" stroke-width="0.5" opacity="0.0050000000000000044"></line><line x1="-1020" y1="0" x2="-220" y2="800" stroke="#d9bd7a" stroke-width="0.5" opacity="0.020000000000000004"></line><line x1="-960" y1="0" x2="-160" y2="800" stroke="#d9bd7a" stroke-width="0.5" opacity="0.035"></line><line x1="-900" y1="0" x2="-100" y2="800" stroke="#d9bd7a" stroke-width="0.5" opacity="0.05"></line><line x1="-840" y1="0" x2="-40" y2="800" stroke="#d9bd7a" stroke-width="0.5" opacity="-0.009999999999999995"></line><line x1="-780" y1="0" x2="20" y2="800" stroke="#d9bd7a" stroke-width="0.5" opacity="0.0050000000000000044"></line><line x1="-720" y1="0" x2="80" y2="800" stroke="#d9bd7a" stroke-width="0.5" opacity="0.020000000000000004"></line><line x1="-660" y1="0" x2="140" y2="800" stroke="#d9bd7a" stroke-width="0.5" opacity="0.035"></line><line x1="-600" y1="0" x2="200" y2="800" stroke="#d9bd7a" stroke-width="0.5" opacity="0.05"></line><line x1="-540" y1="0" x2="260" y2="800" stroke="#d9bd7a" stroke-width="0.5" opacity="-0.009999999999999995"></line><line x1="-480" y1="0" x2="320" y2="800" stroke="#d9bd7a" stroke-width="0.5" opacity="0.0050000000000000044"></line><line x1="-420" y1="0" x2="380" y2="800" stroke="#d9bd7a" stroke-width="0.5" opacity="0.020000000000000004"></line><line x1="-360" y1="0" x2="440" y2="800" stroke="#d9bd7a" stroke-width="0.5" opacity="0.035"></line><line x1="-300" y1="0" x2="500" y2="800" stroke="#d9bd7a" stroke-width="0.5" opacity="0.05"></line><line x1="-240" y1="0" x2="560" y2="800" stroke="#d9bd7a" stroke-width="0.5" opacity="-0.009999999999999995"></line><line x1="-180" y1="0" x2="620" y2="800" stroke="#d9bd7a" stroke-width="0.5" opacity="0.0050000000000000044"></line><line x1="-120" y1="0" x2="680" y2="800" stroke="#d9bd7a" stroke-width="0.5" opacity="0.020000000000000004"></line><line x1="-60" y1="0" x2="740" y2="800" stroke="#d9bd7a" stroke-width="0.5" opacity="0.035"></line><line x1="0" y1="0" x2="800" y2="800" stroke="#d9bd7a" stroke-width="0.5" opacity="0.05"></line><line x1="60" y1="0" x2="860" y2="800" stroke="#d9bd7a" stroke-width="0.5" opacity="0.065"></line><line x1="120" y1="0" x2="920" y2="800" stroke="#d9bd7a" stroke-width="0.5" opacity="0.08"></line><line x1="180" y1="0" x2="980" y2="800" stroke="#d9bd7a" stroke-width="0.5" opacity="0.095"></line><line x1="240" y1="0" x2="1040" y2="800" stroke="#d9bd7a" stroke-width="0.5" opacity="0.11"></line><line x1="300" y1="0" x2="1100" y2="800" stroke="#d9bd7a" stroke-width="0.5" opacity="0.05"></line><line x1="360" y1="0" x2="1160" y2="800" stroke="#d9bd7a" stroke-width="0.5" opacity="0.065"></line><line x1="420" y1="0" x2="1220" y2="800" stroke="#d9bd7a" stroke-width="0.5" opacity="0.08"></line><line x1="480" y1="0" x2="1280" y2="800" stroke="#d9bd7a" stroke-width="0.5" opacity="0.095"></line><line x1="540" y1="0" x2="1340" y2="800" stroke="#d9bd7a" stroke-width="0.5" opacity="0.11"></line><line x1="600" y1="0" x2="1400" y2="800" stroke="#d9bd7a" stroke-width="0.5" opacity="0.05"></line><line x1="660" y1="0" x2="1460" y2="800" stroke="#d9bd7a" stroke-width="0.5" opacity="0.065"></line><line x1="720" y1="0" x2="1520" y2="800" stroke="#d9bd7a" stroke-width="0.5" opacity="0.08"></line><line x1="780" y1="0" x2="1580" y2="800" stroke="#d9bd7a" stroke-width="0.5" opacity="0.095"></line><line x1="840" y1="0" x2="1640" y2="800" stroke="#d9bd7a" stroke-width="0.5" opacity="0.11"></line><line x1="900" y1="0" x2="1700" y2="800" stroke="#d9bd7a" stroke-width="0.5" opacity="0.05"></line><line x1="960" y1="0" x2="1760" y2="800" stroke="#d9bd7a" stroke-width="0.5" opacity="0.065"></line><line x1="1020" y1="0" x2="1820" y2="800" stroke="#d9bd7a" stroke-width="0.5" opacity="0.08"></line><line x1="1080" y1="0" x2="1880" y2="800" stroke="#d9bd7a" stroke-width="0.5" opacity="0.095"></line><line x1="1140" y1="0" x2="1940" y2="800" stroke="#d9bd7a" stroke-width="0.5" opacity="0.11"></line><line x1="1200" y1="0" x2="2000" y2="800" stroke="#d9bd7a" stroke-width="0.5" opacity="0.05"></line><line x1="1260" y1="0" x2="2060" y2="800" stroke="#d9bd7a" stroke-width="0.5" opacity="0.065"></line><line x1="1320" y1="0" x2="2120" y2="800" stroke="#d9bd7a" stroke-width="0.5" opacity="0.08"></line><line x1="1380" y1="0" x2="2180" y2="800" stroke="#d9bd7a" stroke-width="0.5" opacity="0.095"></line><line x1="1440" y1="0" x2="2240" y2="800" stroke="#d9bd7a" stroke-width="0.5" opacity="0.11"></line><line x1="1500" y1="0" x2="2300" y2="800" stroke="#d9bd7a" stroke-width="0.5" opacity="0.05"></line><line x1="1560" y1="0" x2="2360" y2="800" stroke="#d9bd7a" stroke-width="0.5" opacity="0.065"></line><line x1="1620" y1="0" x2="2420" y2="800" stroke="#d9bd7a" stroke-width="0.5" opacity="0.08"></line><line x1="1680" y1="0" x2="2480" y2="800" stroke="#d9bd7a" stroke-width="0.5" opacity="0.095"></line><line x1="1740" y1="0" x2="2540" y2="800" stroke="#d9bd7a" stroke-width="0.5" opacity="0.11"></line><line x1="1800" y1="0" x2="2600" y2="800" stroke="#d9bd7a" stroke-width="0.5" opacity="0.05"></line><line x1="1860" y1="0" x2="2660" y2="800" stroke="#d9bd7a" stroke-width="0.5" opacity="0.065"></line><line x1="1920" y1="0" x2="2720" y2="800" stroke="#d9bd7a" stroke-width="0.5" opacity="0.08"></line><line x1="1980" y1="0" x2="2780" y2="800" stroke="#d9bd7a" stroke-width="0.5" opacity="0.095"></line><line x1="2040" y1="0" x2="2840" y2="800" stroke="#d9bd7a" stroke-width="0.5" opacity="0.11"></line><line x1="2100" y1="0" x2="2900" y2="800" stroke="#d9bd7a" stroke-width="0.5" opacity="0.05"></line><line x1="2160" y1="0" x2="2960" y2="800" stroke="#d9bd7a" stroke-width="0.5" opacity="0.065"></line><line x1="2220" y1="0" x2="3020" y2="800" stroke="#d9bd7a" stroke-width="0.5" opacity="0.08"></line><line x1="2280" y1="0" x2="3080" y2="800" stroke="#d9bd7a" stroke-width="0.5" opacity="0.095"></line><line x1="2340" y1="0" x2="3140" y2="800" stroke="#d9bd7a" stroke-width="0.5" opacity="0.11"></line>
    <circle cx="991.371504713799" cy="396.515043903106" r="0.724946667125469" fill="#d9bd7a" opacity="0.01663859719191396"></circle><circle cx="1066.9045723872805" cy="176.96834701230406" r="0.051249728481736145" fill="#d9bd7a" opacity="0.018743821013635354"></circle><circle cx="23.012894213900204" cy="452.5196507127164" r="0.6477395789217373" fill="#d9bd7a" opacity="0.0017320369928548907"></circle><circle cx="1045.3146874490326" cy="263.91442108136863" r="0.7146069958216708" fill="#d9bd7a" opacity="0.03310441470984892"></circle><circle cx="625.6201393950237" cy="172.0610018740751" r="0.23342393372152906" fill="#d9bd7a" opacity="0.04059243641472774"></circle><circle cx="953.5555389921634" cy="421.20081151185957" r="0.6856489062370109" fill="#d9bd7a" opacity="0.016225624027458703"></circle><circle cx="1092.3460637396101" cy="177.86542137010582" r="0.22554320972770103" fill="#d9bd7a" opacity="0.021266827764230403"></circle><circle cx="670.7225702932858" cy="214.14605287591587" r="0.17926225220571707" fill="#d9bd7a" opacity="0.005849446004742048"></circle><circle cx="782.8072390971196" cy="762.0712113341103" r="0.6209167950565861" fill="#d9bd7a" opacity="0.0017280689000615523"></circle><circle cx="995.6609407943272" cy="299.9379912913805" r="0.7100973756160625" fill="#d9bd7a" opacity="0.019258563804948732"></circle><circle cx="271.1526288468184" cy="81.37590918462311" r="0.2937075101806115" fill="#d9bd7a" opacity="0.008897714558073911"></circle><circle cx="292.9969919530804" cy="702.5044143580055" r="0.27294507513890637" fill="#d9bd7a" opacity="0.04111420260985012"></circle><circle cx="412.44651405603685" cy="307.5128745936051" r="0.6732000518558295" fill="#d9bd7a" opacity="0.047004637194646495"></circle><circle cx="349.3480957802661" cy="487.3215876693288" r="0.1469904790217428" fill="#d9bd7a" opacity="0.018227486772893316"></circle><circle cx="78.76079371813506" cy="75.25545549485591" r="0.24687059217818366" fill="#d9bd7a" opacity="0.008197290146425262"></circle><circle cx="1008.9334240879231" cy="469.7446022079684" r="0.26301428052561837" fill="#d9bd7a" opacity="0.030299679263191423"></circle><circle cx="1094.4025170925263" cy="592.2843638029294" r="0.7126757562171" fill="#d9bd7a" opacity="0.02137284411510086"></circle><circle cx="914.912257931295" cy="202.22164202320164" r="0.08423303568090948" fill="#d9bd7a" opacity="0.017628589273605205"></circle><circle cx="1025.1855453399637" cy="337.3202169306508" r="0.5176767362104525" fill="#d9bd7a" opacity="0.044420723936422844"></circle><circle cx="705.0559715173813" cy="189.6525886749103" r="0.7995208351139126" fill="#d9bd7a" opacity="0.005152109808880451"></circle><circle cx="94.70200027980628" cy="87.93584046551679" r="0.7371102169394387" fill="#d9bd7a" opacity="0.030878948080062182"></circle><circle cx="1162.562833971665" cy="51.44885533514483" r="0.2212198922743477" fill="#d9bd7a" opacity="0.013547771958981509"></circle><circle cx="821.8924737910528" cy="719.3065152459914" r="0.4921931643426707" fill="#d9bd7a" opacity="0.02243078820117699"></circle><circle cx="1000.2151966259356" cy="351.41935714564687" r="0.415994068219466" fill="#d9bd7a" opacity="0.029195845871067123"></circle><circle cx="875.7954208223292" cy="639.7796893081826" r="0.454492234612082" fill="#d9bd7a" opacity="0.009416965849062365"></circle><circle cx="489.7199871565697" cy="115.65398732241317" r="0.48829563864322156" fill="#d9bd7a" opacity="0.03593740013323126"></circle><circle cx="206.7585555629326" cy="713.6893808051449" r="0.034603353119666114" fill="#d9bd7a" opacity="0.014683211721031581"></circle><circle cx="207.9298385950159" cy="382.90637501836875" r="0.04254925234296181" fill="#d9bd7a" opacity="0.037383423523258484"></circle><circle cx="235.63878453419017" cy="230.59223106473237" r="0.6956803950204709" fill="#d9bd7a" opacity="0.039623482669725894"></circle><circle cx="899.8522037364199" cy="535.3755748690384" r="0.15184595705193074" fill="#d9bd7a" opacity="0.04390617840747159"></circle><circle cx="1111.2464573251589" cy="87.94489507598246" r="0.42427619362930935" fill="#d9bd7a" opacity="0.004479307802014054"></circle><circle cx="14.726304205439122" cy="418.73916746992927" r="0.44453668318135514" fill="#d9bd7a" opacity="0.04952594010823696"></circle><circle cx="380.5883097619438" cy="735.767164841122" r="0.7701960487909761" fill="#d9bd7a" opacity="0.007293998950984638"></circle><circle cx="710.9301973777143" cy="197.98212087282022" r="0.16106924539420364" fill="#d9bd7a" opacity="0.029126869629655106"></circle><circle cx="609.2969115934765" cy="722.2130871364008" r="0.34778434714030965" fill="#d9bd7a" opacity="0.04280444856430868"></circle><circle cx="1118.079974031164" cy="244.28250871835456" r="0.013241277461363233" fill="#d9bd7a" opacity="0.04056584757820167"></circle><circle cx="1173.4238422174533" cy="240.3440348004766" r="0.38186980788817826" fill="#d9bd7a" opacity="0.02361033343546995"></circle><circle cx="803.9984124604917" cy="785.2397711415483" r="0.26825951541798715" fill="#d9bd7a" opacity="0.036189445044742634"></circle><circle cx="316.4870200144621" cy="273.87101107387946" r="0.05615205842644899" fill="#d9bd7a" opacity="0.037495487702358735"></circle><circle cx="829.1128619381687" cy="349.1181853020117" r="0.18181414710275323" fill="#d9bd7a" opacity="0.029839337752714204"></circle><circle cx="577.0735494518111" cy="6.745994074242567" r="0.3947446798570973" fill="#d9bd7a" opacity="0.016048980644096402"></circle><circle cx="472.0682943877723" cy="545.3197166426429" r="0.39349162127085374" fill="#d9bd7a" opacity="0.015492048857193925"></circle><circle cx="729.7228342016163" cy="80.3216913348657" r="0.03118559870220654" fill="#d9bd7a" opacity="0.013004137987268322"></circle><circle cx="805.283624506021" cy="416.5272340108929" r="0.3439073966615519" fill="#d9bd7a" opacity="0.04900798224486291"></circle><circle cx="1122.0499464314846" cy="367.7027228387586" r="0.052316981074215986" fill="#d9bd7a" opacity="0.01819750811951238"></circle><circle cx="852.8257864669947" cy="738.5081814851704" r="0.15744857639024368" fill="#d9bd7a" opacity="0.015944140810677836"></circle><circle cx="592.8502856493391" cy="770.7713343847552" r="0.113738001954877" fill="#d9bd7a" opacity="0.03785120632514258"></circle><circle cx="424.6730484744468" cy="581.2662248571459" r="0.020944957638186157" fill="#d9bd7a" opacity="0.0031643734174017116"></circle><circle cx="572.2219612445235" cy="125.09415067222562" r="0.49576340306154143" fill="#d9bd7a" opacity="0.026871777675877312"></circle><circle cx="596.1382738129455" cy="777.6932702472299" r="0.754135939536417" fill="#d9bd7a" opacity="0.01237867299893793"></circle><circle cx="306.76632562387516" cy="310.0300440969005" r="0.5717412628926789" fill="#d9bd7a" opacity="0.03275687871284971"></circle><circle cx="288.9956132679471" cy="162.92063036708706" r="0.3814822686480619" fill="#d9bd7a" opacity="0.027360992362654393"></circle><circle cx="933.3815143401115" cy="529.4789859466127" r="0.018525187813158973" fill="#d9bd7a" opacity="0.011527885434828961"></circle><circle cx="595.317261986081" cy="578.7470298918649" r="0.04408882109190415" fill="#d9bd7a" opacity="0.006535364396026472"></circle><circle cx="517.936470129609" cy="51.85701677052501" r="0.17349486700985883" fill="#d9bd7a" opacity="0.02824006949793259"></circle><circle cx="435.5443977337262" cy="475.7720902029591" r="0.06345848106657073" fill="#d9bd7a" opacity="0.03225095412462355"></circle><circle cx="48.01658115327378" cy="328.3056274328512" r="0.11691191542362463" fill="#d9bd7a" opacity="0.016397813512101633"></circle><circle cx="1126.2467256346938" cy="108.37064632465454" r="0.0684237556672862" fill="#d9bd7a" opacity="0.0335913202558831"></circle><circle cx="692.9497731266854" cy="296.5618584448146" r="0.7270107882821648" fill="#d9bd7a" opacity="0.006279075725567452"></circle><circle cx="698.7286641029866" cy="287.64543193077685" r="0.347109809530357" fill="#d9bd7a" opacity="0.000008326513089346177"></circle><circle cx="390.59232339724883" cy="618.876212367284" r="0.7238563133226962" fill="#d9bd7a" opacity="0.02193373998842986"></circle><circle cx="1056.7888725138819" cy="226.0817612792338" r="0.043507781965332275" fill="#d9bd7a" opacity="0.03662674403640249"></circle><circle cx="43.31397155332617" cy="624.8374440891369" r="0.4970969794884248" fill="#d9bd7a" opacity="0.007293246294309802"></circle><circle cx="1041.6799798157444" cy="246.93590789440006" r="0.16695382347131923" fill="#d9bd7a" opacity="0.02289388364430699"></circle><circle cx="50.69075247517145" cy="538.0528932603452" r="0.024188811284387414" fill="#d9bd7a" opacity="0.013045346917178553"></circle><circle cx="932.7729433172617" cy="746.609792585482" r="0.7532456312759328" fill="#d9bd7a" opacity="0.03312023502110794"></circle><circle cx="324.38986500139777" cy="745.341361696354" r="0.6417303192602479" fill="#d9bd7a" opacity="0.03913663088976944"></circle><circle cx="247.0596710616481" cy="610.4539248903039" r="0.6798844602485968" fill="#d9bd7a" opacity="0.010670559866988533"></circle><circle cx="491.2954401595799" cy="154.0419580850588" r="0.5404488222292795" fill="#d9bd7a" opacity="0.01700287844045887"></circle><circle cx="402.03662445401136" cy="379.1450952690651" r="0.2320587064009425" fill="#d9bd7a" opacity="0.025486098590547082"></circle><circle cx="382.510886875089" cy="496.8852340661381" r="0.306934375760899" fill="#d9bd7a" opacity="0.0024008257078721785"></circle><circle cx="1128.4374663922915" cy="230.77577113844194" r="0.490001796301962" fill="#d9bd7a" opacity="0.04265403189667707"></circle><circle cx="893.8771374622016" cy="411.7296104910319" r="0.29986318316317634" fill="#d9bd7a" opacity="0.002065188102552401"></circle><circle cx="777.6190254851647" cy="564.8182580871197" r="0.47767663076865036" fill="#d9bd7a" opacity="0.03596782581431842"></circle><circle cx="1033.42520146381" cy="69.36932396455404" r="0.45699872653955276" fill="#d9bd7a" opacity="0.02083314913033374"></circle><circle cx="898.2181577928769" cy="758.8278166522056" r="0.3745858919676588" fill="#d9bd7a" opacity="0.021081865041038806"></circle><circle cx="1036.3755443947216" cy="398.2588923646888" r="0.5340012466416697" fill="#d9bd7a" opacity="0.04423281212732646"></circle><circle cx="962.0047584436969" cy="510.6031143517879" r="0.6874750144360372" fill="#d9bd7a" opacity="0.04557165688110784"></circle><circle cx="1110.2842030345985" cy="686.7745547496454" r="0.3066392441160375" fill="#d9bd7a" opacity="0.0314322389004556"></circle><circle cx="1046.0900721895773" cy="307.02615827880555" r="0.17964709162960615" fill="#d9bd7a" opacity="0.04756655962436657"></circle><circle cx="1161.0398373363687" cy="521.9344484169152" r="0.2116105242222135" fill="#d9bd7a" opacity="0.03150782548196912"></circle><circle cx="878.9346264200809" cy="44.306286054831205" r="0.05870449528564432" fill="#d9bd7a" opacity="0.04385163997410255"></circle><circle cx="188.98263932589342" cy="215.17018799073756" r="0.29783317568782497" fill="#d9bd7a" opacity="0.02535692959500101"></circle><circle cx="139.70961362916253" cy="19.15212482121369" r="0.7912300217538625" fill="#d9bd7a" opacity="0.02597708958055724"></circle><circle cx="131.6680411169944" cy="85.89777478460707" r="0.4329198527722767" fill="#d9bd7a" opacity="0.03343850811722606"></circle><circle cx="237.61350032351532" cy="36.680341791706006" r="0.0019418330703251385" fill="#d9bd7a" opacity="0.04810513249450604"></circle><circle cx="498.91326134539855" cy="213.11514975885385" r="0.7282321038508723" fill="#d9bd7a" opacity="0.0119621550556624"></circle><circle cx="701.5737897072908" cy="788.99828365196" r="0.2932272884845221" fill="#d9bd7a" opacity="0.029600357470145833"></circle><circle cx="835.1638536582361" cy="383.273804154703" r="0.3879782868711539" fill="#d9bd7a" opacity="0.015466461019304057"></circle><circle cx="275.65968198297355" cy="89.27119260681442" r="0.28461498964797327" fill="#d9bd7a" opacity="0.008451782393742486"></circle><circle cx="1072.9130933162774" cy="663.1878952074394" r="0.2789135242427669" fill="#d9bd7a" opacity="0.04655438822644275"></circle><circle cx="752.5629091622512" cy="377.1978588723168" r="0.6913479778176168" fill="#d9bd7a" opacity="0.01098392204641615"></circle><circle cx="45.545611552478604" cy="53.48451151950382" r="0.526593052846553" fill="#d9bd7a" opacity="0.017789466593259473"></circle><circle cx="1192.1064621248997" cy="695.8258402851135" r="0.7770153181220099" fill="#d9bd7a" opacity="0.03613268358032225"></circle><circle cx="993.0486853258527" cy="551.137796964874" r="0.7546956453379075" fill="#d9bd7a" opacity="0.047397359122315914"></circle><circle cx="1135.3975390930082" cy="600.467143890377" r="0.2541789521814072" fill="#d9bd7a" opacity="0.0008425329666425564"></circle><circle cx="800.9040311637157" cy="652.4525828818975" r="0.30051458115487933" fill="#d9bd7a" opacity="0.01952938388925822"></circle><circle cx="487.2012130473622" cy="614.363789407749" r="0.24092579435010394" fill="#d9bd7a" opacity="0.012623868320777882"></circle><circle cx="408.59658100888635" cy="548.8432262415985" r="0.6663969416046113" fill="#d9bd7a" opacity="0.018350403945608468"></circle><circle cx="727.4571516471799" cy="300.089347052279" r="0.7205028648564572" fill="#d9bd7a" opacity="0.01500943467074739"></circle><circle cx="88.27595853878324" cy="254.57549561238793" r="0.6966002109118005" fill="#d9bd7a" opacity="0.04682651980092199"></circle><circle cx="501.2218091074415" cy="736.4256320651618" r="0.7440067699729327" fill="#d9bd7a" opacity="0.03319681111421834"></circle><circle cx="99.26130845191494" cy="473.1807694632213" r="0.25107033768211506" fill="#d9bd7a" opacity="0.01072065015264816"></circle><circle cx="460.48442854569595" cy="125.80451950345619" r="0.15316339917181523" fill="#d9bd7a" opacity="0.04487925336062157"></circle><circle cx="234.64641095385872" cy="797.230381305739" r="0.5595627866702816" fill="#d9bd7a" opacity="0.04301981682812097"></circle><circle cx="613.6356520277047" cy="173.46558017202628" r="0.15644336434212863" fill="#d9bd7a" opacity="0.018296446537718114"></circle><circle cx="158.06378709955746" cy="667.2355601465412" r="0.4193362901509211" fill="#d9bd7a" opacity="0.015206762366910088"></circle><circle cx="455.1374553961254" cy="753.1240365407117" r="0.6615270362105163" fill="#d9bd7a" opacity="0.027311111421683684"></circle><circle cx="1044.651474955963" cy="636.4045655814742" r="0.1494119305790033" fill="#d9bd7a" opacity="0.03362990152049588"></circle><circle cx="25.511521932836345" cy="299.93266101475535" r="0.15304330943653366" fill="#d9bd7a" opacity="0.03308132159597717"></circle><circle cx="19.24554905608904" cy="505.06894324460046" r="0.5513834911648806" fill="#d9bd7a" opacity="0.039640371778209435"></circle><circle cx="259.2310494909671" cy="279.08182778331366" r="0.5466178405830843" fill="#d9bd7a" opacity="0.0308087965446705"></circle><circle cx="173.26399145299942" cy="242.7585331633196" r="0.09823865169836088" fill="#d9bd7a" opacity="0.025246924522491235"></circle><circle cx="612.939241751129" cy="463.9387425313777" r="0.3041306196258357" fill="#d9bd7a" opacity="0.008184357754820066"></circle><circle cx="743.2842258110741" cy="149.4053390183452" r="0.529682543963662" fill="#d9bd7a" opacity="0.04024408964062621"></circle><circle cx="839.1027764080038" cy="235.8053332190507" r="0.43274983690371593" fill="#d9bd7a" opacity="0.00887399349799124"></circle><circle cx="395.32249749062834" cy="78.5107546414367" r="0.6261012056617545" fill="#d9bd7a" opacity="0.024358891010258815"></circle><circle cx="1023.8187443217364" cy="460.406283816413" r="0.5567896877385772" fill="#d9bd7a" opacity="0.02596742804413585"></circle><circle cx="839.9827303883817" cy="327.6972992762898" r="0.758183550002944" fill="#d9bd7a" opacity="0.015046586182933959"></circle><circle cx="847.1771633379916" cy="579.4006535674182" r="0.3306448039145535" fill="#d9bd7a" opacity="0.011419388328784292"></circle><circle cx="991.9143474574047" cy="502.263351965183" r="0.7946462688215807" fill="#d9bd7a" opacity="0.041945353316538675"></circle><circle cx="750.007263702171" cy="109.7324274933591" r="0.23638834712545506" fill="#d9bd7a" opacity="0.04565932022517302"></circle><circle cx="765.8557932358035" cy="137.9511444044554" r="0.4970122433377288" fill="#d9bd7a" opacity="0.0037631012409845514"></circle><circle cx="398.4370533506249" cy="439.33579293784544" r="0.39420400692510854" fill="#d9bd7a" opacity="0.035701335902178555"></circle><circle cx="640.8040799072616" cy="763.0920288245349" r="0.738706159857315" fill="#d9bd7a" opacity="0.03267507588445362"></circle><circle cx="1070.9886282717234" cy="302.7184111298022" r="0.02746729118233615" fill="#d9bd7a" opacity="0.045056252152750255"></circle><circle cx="1108.5856042010214" cy="706.7881451401029" r="0.20248014143645465" fill="#d9bd7a" opacity="0.006879006453543263"></circle><circle cx="49.47070644385896" cy="638.1316994403664" r="0.5661346359008618" fill="#d9bd7a" opacity="0.010198298544361068"></circle><circle cx="1065.8071027910578" cy="23.421379331899228" r="0.24536885194632527" fill="#d9bd7a" opacity="0.042005291207588294"></circle><circle cx="62.93528367002903" cy="378.5657641748215" r="0.00407337456596526" fill="#d9bd7a" opacity="0.0016234010568519253"></circle><circle cx="839.2718308169415" cy="144.31510221472078" r="0.3783696196748967" fill="#d9bd7a" opacity="0.029341225017877143"></circle><circle cx="913.0513622971072" cy="597.4487725173323" r="0.7218472397072135" fill="#d9bd7a" opacity="0.03276189863799174"></circle><circle cx="596.3781514251602" cy="519.9604215475127" r="0.18918253383773262" fill="#d9bd7a" opacity="0.02330472247751027"></circle><circle cx="699.0087898645779" cy="184.93887274673054" r="0.6717702212683045" fill="#d9bd7a" opacity="0.01710019270508736"></circle><circle cx="545.2152707956866" cy="208.8051684445773" r="0.44531934261042" fill="#d9bd7a" opacity="0.04609866367326601"></circle><circle cx="930.5487731440637" cy="238.4011452027015" r="0.7735239229199927" fill="#d9bd7a" opacity="0.011117102316686328"></circle><circle cx="980.6209610275394" cy="717.0097158086813" r="0.7593619220896539" fill="#d9bd7a" opacity="0.04853363584401842"></circle><circle cx="380.51702024516317" cy="64.1085400428131" r="0.23542695939557" fill="#d9bd7a" opacity="0.010198855367123588"></circle><circle cx="150.22191320330137" cy="498.7042234245504" r="0.24243552308959038" fill="#d9bd7a" opacity="0.032684349870193745"></circle><circle cx="937.1430238396028" cy="219.18717420119557" r="0.5433637797240796" fill="#d9bd7a" opacity="0.004369894813586628"></circle><circle cx="994.6911910818812" cy="642.2086297210832" r="0.4632067781238755" fill="#d9bd7a" opacity="0.013521048484974886"></circle><circle cx="18.262438476404252" cy="709.9871529367463" r="0.21866510777568424" fill="#d9bd7a" opacity="0.02606410610714271"></circle><circle cx="893.7490296532742" cy="372.0632902902553" r="0.5485141958537638" fill="#d9bd7a" opacity="0.01965256509931987"></circle><circle cx="586.2274959486216" cy="624.3302668566902" r="0.20701751430270107" fill="#d9bd7a" opacity="0.002533623121859735"></circle><circle cx="776.0047021739736" cy="343.0028765237588" r="0.17214962900386804" fill="#d9bd7a" opacity="0.007886800980237635"></circle><circle cx="1045.0919070817874" cy="278.79706747388065" r="0.667851767483522" fill="#d9bd7a" opacity="0.012204529389740627"></circle><circle cx="537.6800592515451" cy="727.4345080620265" r="0.5986889975165313" fill="#d9bd7a" opacity="0.03010355672921642"></circle><circle cx="979.5481796775822" cy="38.29554641520829" r="0.6459108876411847" fill="#d9bd7a" opacity="0.01129190561762657"></circle><circle cx="88.48252133171832" cy="683.5975645343798" r="0.71597034754845" fill="#d9bd7a" opacity="0.005150980875393146"></circle><circle cx="659.1705095351374" cy="649.3693153201613" r="0.0020512351716545753" fill="#d9bd7a" opacity="0.029578212434221197"></circle><circle cx="774.347189332671" cy="731.3009396622535" r="0.20044298630515672" fill="#d9bd7a" opacity="0.04315022510803964"></circle><circle cx="557.3630119878641" cy="470.16362602277" r="0.2095137698558797" fill="#d9bd7a" opacity="0.019821311854092832"></circle><circle cx="1004.8079901792892" cy="279.529288662752" r="0.45670673215878044" fill="#d9bd7a" opacity="0.008190819207186372"></circle><circle cx="642.2603212199247" cy="390.54621537599115" r="0.7154812876125075" fill="#d9bd7a" opacity="0.002449695144627129"></circle><circle cx="243.4603283259031" cy="639.4037853128403" r="0.37722626933434217" fill="#d9bd7a" opacity="0.003623054423798922"></circle><circle cx="1123.0388286976963" cy="571.1828385465659" r="0.4951942642393255" fill="#d9bd7a" opacity="0.001821876309159637"></circle><circle cx="848.2719395814624" cy="673.9329025301572" r="0.6332511575347524" fill="#d9bd7a" opacity="0.017428811703499553"></circle><circle cx="756.8783443175936" cy="741.5876980822394" r="0.06454932431409528" fill="#d9bd7a" opacity="0.03414836245375488"></circle><circle cx="737.0936366151778" cy="338.11116356831843" r="0.09954307632380717" fill="#d9bd7a" opacity="0.004239596846192412"></circle><circle cx="53.708672640406704" cy="200.41053086075902" r="0.3971565448995518" fill="#d9bd7a" opacity="0.018965654776080077"></circle><circle cx="793.3029811136274" cy="24.53262795319855" r="0.6298480589181626" fill="#d9bd7a" opacity="0.03704953799149351"></circle><circle cx="481.13273112369825" cy="470.68006314271" r="0.7814863123617821" fill="#d9bd7a" opacity="0.0365602350005185"></circle><circle cx="212.70833761964366" cy="357.04345700989313" r="0.07694900771679541" fill="#d9bd7a" opacity="0.01184472205300381"></circle><circle cx="1136.5125876946306" cy="750.8424440311053" r="0.6486852936621722" fill="#d9bd7a" opacity="0.005214275519632428"></circle><circle cx="845.4874133327189" cy="793.7963621349174" r="0.5640578676446729" fill="#d9bd7a" opacity="0.004220388105030254"></circle><circle cx="797.9128766807933" cy="664.5579576316181" r="0.3420603048200418" fill="#d9bd7a" opacity="0.03609075024690689"></circle><circle cx="877.172193258945" cy="204.76038477707766" r="0.04050679446973807" fill="#d9bd7a" opacity="0.01742698816320436"></circle><circle cx="954.9342873407245" cy="24.598462645509844" r="0.41892155030380596" fill="#d9bd7a" opacity="0.0073662599958523815"></circle><circle cx="277.3513047622179" cy="413.99841644915074" r="0.7759124930864361" fill="#d9bd7a" opacity="0.041860226111235334"></circle><circle cx="224.4679495685222" cy="72.69008292790966" r="0.3067548303831431" fill="#d9bd7a" opacity="0.014375263495009711"></circle><circle cx="675.409068529041" cy="588.893166915596" r="0.0018054558778187514" fill="#d9bd7a" opacity="0.00007909098151739902"></circle><circle cx="1068.4736409059553" cy="248.31817594394101" r="0.41581328120314165" fill="#d9bd7a" opacity="0.04830237184118629"></circle><circle cx="297.3631838437844" cy="630.9094899285068" r="0.10257667056392572" fill="#d9bd7a" opacity="0.04128818245275499"></circle><circle cx="246.0137164395797" cy="176.98006911098983" r="0.28852873737075735" fill="#d9bd7a" opacity="0.010838134304146863"></circle><circle cx="839.060170515162" cy="467.07028077738045" r="0.24637025767108992" fill="#d9bd7a" opacity="0.011729797609053579"></circle><circle cx="15.394588415103305" cy="34.79545262025931" r="0.3332307476440667" fill="#d9bd7a" opacity="0.019805312391788017"></circle><circle cx="44.16789078495125" cy="718.40627272733" r="0.2921320479422157" fill="#d9bd7a" opacity="0.043902375262458916"></circle><circle cx="299.0428076132549" cy="725.1672234240766" r="0.5255789756522072" fill="#d9bd7a" opacity="0.002388456554832186"></circle><circle cx="1103.4392646217784" cy="211.47181000786253" r="0.44669278067948776" fill="#d9bd7a" opacity="0.0316266516157804"></circle><circle cx="628.9890921823608" cy="101.70304916398436" r="0.08987727039272225" fill="#d9bd7a" opacity="0.005316770798475756"></circle><circle cx="1055.1196334174413" cy="522.8809242769748" r="0.41899383059818895" fill="#d9bd7a" opacity="0.009984872662093747"></circle><circle cx="1018.8432619583706" cy="748.7220091459004" r="0.43491391350881214" fill="#d9bd7a" opacity="0.016168131849839586"></circle><circle cx="778.8106584122227" cy="773.520626001805" r="0.2794662505207862" fill="#d9bd7a" opacity="0.045461300255199684"></circle><circle cx="799.7484981372996" cy="349.5575241714734" r="0.40900595294783015" fill="#d9bd7a" opacity="0.02611535907106667"></circle><circle cx="397.41910952459" cy="287.9640193124533" r="0.291199726539055" fill="#d9bd7a" opacity="0.021573224976091404"></circle><circle cx="494.13393920303963" cy="583.6179972788311" r="0.6772618795309342" fill="#d9bd7a" opacity="0.022633049498265785"></circle><circle cx="596.1289397776692" cy="84.27991259832783" r="0.6736670301428609" fill="#d9bd7a" opacity="0.004985507645722476"></circle><circle cx="1128.347048851836" cy="183.0324543159332" r="0.35303174550534244" fill="#d9bd7a" opacity="0.037438079453512144"></circle><circle cx="813.286990960935" cy="378.623734287504" r="0.18699718087137596" fill="#d9bd7a" opacity="0.015324660673421836"></circle><circle cx="54.20365951133319" cy="101.96837348598268" r="0.6166515649233464" fill="#d9bd7a" opacity="0.021982423500407657"></circle><circle cx="26.518501213502965" cy="693.9753200761315" r="0.7319392361887833" fill="#d9bd7a" opacity="0.04409696025239761"></circle><circle cx="380.35531100905547" cy="335.92949048906917" r="0.5372491454453144" fill="#d9bd7a" opacity="0.00850043271471479"></circle><circle cx="675.6367298912973" cy="432.00157661968757" r="0.46454061025666543" fill="#d9bd7a" opacity="0.025199761483640105"></circle><circle cx="777.529517475232" cy="41.08915643931104" r="0.7727354586117725" fill="#d9bd7a" opacity="0.017095259254553675"></circle><circle cx="280.0076575120291" cy="136.27321444437922" r="0.16902726638521176" fill="#d9bd7a" opacity="0.00874969890154626"></circle><circle cx="182.8578392087659" cy="480.26219626334967" r="0.41720159680862157" fill="#d9bd7a" opacity="0.03204937183123042"></circle><circle cx="45.04291436084608" cy="627.5489405657081" r="0.5099470689981948" fill="#d9bd7a" opacity="0.04961648295089946"></circle><circle cx="251.3856574311825" cy="294.7663209494929" r="0.7537957871751599" fill="#d9bd7a" opacity="0.005158308672701484"></circle><circle cx="971.9340776068077" cy="66.91678816648388" r="0.5913934204302775" fill="#d9bd7a" opacity="0.005543407947447444"></circle><circle cx="924.6280197885046" cy="352.9690414379979" r="0.5544780709681988" fill="#d9bd7a" opacity="0.04419478274299797"></circle>
    <rect width="1200" height="800" fill="url(#vg-06)"></rect>
    
    <g transform="translate(72, 64)">
      <text x="0" y="0" font-family="Playfair Display, serif" font-style="italic" font-size="30.4" fill="#d9bd7a">Le Bien</text>
      <line x1="0" y1="16" x2="112.00000000000001" y2="16" stroke="#d9bd7a" stroke-width="0.6" opacity="0.8"></line>
      <text x="0" y="35.199999999999996" font-family="Playfair Display, serif" font-style="italic" font-size="14.399999999999999" fill="#d9bd7a" letter-spacing="3">DÉCO</text>
    </g>
  
    
    <text x="1128" y="72" text-anchor="end" font-family="Playfair Display, serif" font-style="italic" font-size="40" fill="#d9bd7a" opacity="0.9">— 06</text>
  
    
    <g transform="translate(72, 720)">
      <text x="0" y="0" font-family="&#39;Courier New&#39;, monospace" font-size="12" fill="#d9bd7a" letter-spacing="3" opacity="0.7">[ BALLROOM · WIDE ]</text>
      <text x="0" y="29.120000000000005" font-family="Playfair Display, serif" font-style="italic" font-size="22.400000000000002" fill="#f4f0e6">Onyx, ivory, candlelight</text>
    </g>
  
  </svg>