<svg xmlns="http://www.w3.org/2000/svg" viewBox="0 0 800 1100" preserveAspectRatio="xMidYMid slice">
    <defs><radialGradient id="vg-07" cx="50%" cy="50%" r="65%"><stop offset="60%" stop-color="#0a0a0a" stop-opacity="0"></stop><stop offset="100%" stop-color="#0a0a0a" stop-opacity="0.55"></stop></radialGradient></defs>
    <rect width="800" height="1100" fill="#0a0a0a"></rect>
    
      <circle cx="400" cy="550" r="256" fill="none" stroke="#c8a96a" stroke-width="0.5" opacity="0.4"></circle>
      <circle cx="400" cy="550" r="176" fill="none" stroke="#c8a96a" stroke-width="0.5" opacity="0.3"></circle>
      <circle cx="400" cy="550" r="96" fill="#c8a96a" opacity="0.12"></circle>
    
    <circle cx="516.1906606697398" cy="773.2180274307693" r="0.24251401192694813" fill="#c8a96a" opacity="0.030364983955227076"></circle><circle cx="176.93002717421447" cy="799.7012255938718" r="0.26944123749519466" fill="#c8a96a" opacity="0.006835195628683777"></circle><circle cx="453.9725018648757" cy="98.43359559479048" r="0.0997604689663973" fill="#c8a96a" opacity="0.043403009574351954"></circle><circle cx="90.84981718438536" cy="875.9597829863521" r="0.6481479284029691" fill="#c8a96a" opacity="0.024083993023366626"></circle><circle cx="400.412864526758" cy="820.4414251279885" r="0.4366578329188598" fill="#c8a96a" opacity="0.010980048483618965"></circle><circle cx="211.51755794837754" cy="796.177665857706" r="0.21624342822336973" fill="#c8a96a" opacity="0.013649158320424543"></circle><circle cx="163.47630643259734" cy="558.624772437174" r="0.21246329161380456" fill="#c8a96a" opacity="0.015434989215662016"></circle><circle cx="57.06099522018544" cy="509.0226182239727" r="0.6960549923054469" fill="#c8a96a" opacity="0.002535321280162356"></circle><circle cx="395.15002363526685" cy="631.7539059182419" r="0.5593745594900471" fill="#c8a96a" opacity="0.0004386538110268179"></circle><circle cx="612.8498640402282" cy="556.454066277573" r="0.45836984429963873" fill="#c8a96a" opacity="0.0031188309392059244"></circle><circle cx="325.2175291197058" cy="1084.4719997026425" r="0.18418438737336143" fill="#c8a96a" opacity="0.04373789356022781"></circle><circle cx="313.2767918525545" cy="349.76021163402396" r="0.7423170091058131" fill="#c8a96a" opacity="0.040854827801475146"></circle><circle cx="206.68567623812146" cy="811.8578938724204" r="0.016378347409614948" fill="#c8a96a" opacity="0.000714625270121816"></circle><circle cx="367.2240708138331" cy="968.5224910214068" r="0.6856128284922696" fill="#c8a96a" opacity="0.013097010766805379"></circle><circle cx="573.1075944899237" cy="1064.8093032128236" r="0.3874918656267677" fill="#c8a96a" opacity="0.013901794823838527"></circle><circle cx="796.3540241635313" cy="29.06680716054818" r="0.20366494218224931" fill="#c8a96a" opacity="0.0036533039188508146"></circle><circle cx="325.97127737571975" cy="856.0788526246051" r="0.7031021541297404" fill="#c8a96a" opacity="0.04925317684147101"></circle><circle cx="264.56334819355175" cy="217.40319550692735" r="0.7002409927148944" fill="#c8a96a" opacity="0.04061282942234509"></circle><circle cx="701.8745481069698" cy="536.2310546200241" r="0.0202063151564027" fill="#c8a96a" opacity="0.01932702149582142"></circle><circle cx="591.465272464186" cy="961.1794524309624" r="0.7725994992349298" fill="#c8a96a" opacity="0.03897580765150148"></circle><circle cx="100.9288012848316" cy="908.0697510643379" r="0.2785869188899645" fill="#c8a96a" opacity="0.0023650021703750025"></circle><circle cx="535.3756814673737" cy="1069.994526162964" r="0.7518995460214294" fill="#c8a96a" opacity="0.023024001769115544"></circle><circle cx="92.74630224269788" cy="368.33564464696207" r="0.3823648666271474" fill="#c8a96a" opacity="0.015401742800224216"></circle><circle cx="674.0471818515925" cy="822.2146433095282" r="0.2836655196191156" fill="#c8a96a" opacity="0.03011350633485359"></circle><circle cx="496.33167997400693" cy="861.3507711778008" r="0.5280854701615817" fill="#c8a96a" opacity="0.0013072198682177517"></circle><circle cx="676.1749721794517" cy="299.6567326656967" r="0.5688205990601963" fill="#c8a96a" opacity="0.04977605672197083"></circle><circle cx="316.3893595020988" cy="323.92846530110705" r="0.47006919960010296" fill="#c8a96a" opacity="0.04544800886428854"></circle><circle cx="292.4657862893314" cy="537.3594447541534" r="0.25331966226189595" fill="#c8a96a" opacity="0.019377508449039117"></circle><circle cx="342.3075326299432" cy="749.4842072820542" r="0.6328226535080864" fill="#c8a96a" opacity="0.0002235957174745451"></circle><circle cx="198.58913008317617" cy="1079.78808149503" r="0.44868299519133253" fill="#c8a96a" opacity="0.02589310964488858"></circle><circle cx="323.62170943142604" cy="1070.2014748025083" r="0.5436105614688324" fill="#c8a96a" opacity="0.0013072375744384913"></circle><circle cx="698.5868017415504" cy="952.7579724423528" r="0.472807089464919" fill="#c8a96a" opacity="0.023715954438218584"></circle><circle cx="340.9270677675091" cy="743.358622306122" r="0.7386816671202232" fill="#c8a96a" opacity="0.04993778021783066"></circle><circle cx="570.1602329119128" cy="244.1405284624139" r="0.17660814914481682" fill="#c8a96a" opacity="0.009038069159200952"></circle><circle cx="627.2930089249056" cy="133.65060316299414" r="0.25215823879998495" fill="#c8a96a" opacity="0.020418853473964313"></circle><circle cx="750.0130976642158" cy="245.5845324954869" r="0.008652958138300715" fill="#c8a96a" opacity="0.030838508468213933"></circle><circle cx="686.272215640451" cy="137.0370929490379" r="0.2730813194735445" fill="#c8a96a" opacity="0.030587526717623572"></circle><circle cx="617.6512240628985" cy="70.34952988404874" r="0.7294196730718714" fill="#c8a96a" opacity="0.023157652570231602"></circle><circle cx="440.28749434084284" cy="1048.0091100704406" r="0.30159024838330145" fill="#c8a96a" opacity="0.04642681179034703"></circle><circle cx="340.88031058944495" cy="355.5197358596608" r="0.21007551474467628" fill="#c8a96a" opacity="0.04518820660041892"></circle><circle cx="142.73667388279162" cy="688.9575625913249" r="0.3705357506053897" fill="#c8a96a" opacity="0.008189402045253286"></circle><circle cx="331.98272916430227" cy="520.707768554962" r="0.3901191256542297" fill="#c8a96a" opacity="0.0433102911811189"></circle><circle cx="752.0707785126884" cy="480.7997813155744" r="0.6520515976262281" fill="#c8a96a" opacity="0.0025834601948200087"></circle><circle cx="767.0188205777773" cy="1013.4754307613168" r="0.7518817925106598" fill="#c8a96a" opacity="0.029636819218598905"></circle><circle cx="118.30248936328954" cy="554.3121114062848" r="0.1061515067401297" fill="#c8a96a" opacity="0.04446544197097256"></circle><circle cx="792.9050192341701" cy="609.8742589911685" r="0.18984194529816031" fill="#c8a96a" opacity="0.022710845094727313"></circle><circle cx="511.83315376034415" cy="1080.7949611799881" r="0.40240699312571915" fill="#c8a96a" opacity="0.004061045879987868"></circle><circle cx="272.8048101646051" cy="530.1013452325348" r="0.19884079534416665" fill="#c8a96a" opacity="0.033659242125309505"></circle><circle cx="155.46360414108963" cy="341.45374286153634" r="0.029267727086599662" fill="#c8a96a" opacity="0.005463913779714258"></circle><circle cx="602.1437801238593" cy="501.91096745763707" r="0.547288523240485" fill="#c8a96a" opacity="0.003610312324111159"></circle><circle cx="497.8754743815884" cy="451.71713273129615" r="0.6158427194622468" fill="#c8a96a" opacity="0.036616159238429015"></circle><circle cx="595.326307408064" cy="861.8529971851524" r="0.2961862401259506" fill="#c8a96a" opacity="0.044404497391433914"></circle><circle cx="552.1653935962829" cy="143.9610870344917" r="0.06453553258194988" fill="#c8a96a" opacity="0.0483873245328492"></circle><circle cx="117.79153286776616" cy="988.3192244579132" r="0.7879961743368642" fill="#c8a96a" opacity="0.04791883898998431"></circle><circle cx="140.97374233686145" cy="1073.3788298127288" r="0.7721593579133296" fill="#c8a96a" opacity="0.028579053911904836"></circle><circle cx="229.77632676886205" cy="528.6214205421676" r="0.09487011030935087" fill="#c8a96a" opacity="0.027709143441435276"></circle><circle cx="7.951575878459227" cy="551.8120822133147" r="0.23945095026938246" fill="#c8a96a" opacity="0.038062351623682204"></circle><circle cx="191.4929118795219" cy="480.586213417846" r="0.4411393681863762" fill="#c8a96a" opacity="0.036418989595242444"></circle><circle cx="262.5643872530096" cy="1036.871326960093" r="0.04456829466536885" fill="#c8a96a" opacity="0.009217870474251372"></circle><circle cx="692.3666704917239" cy="200.94781548245052" r="0.7491699827737812" fill="#c8a96a" opacity="0.027516912393640115"></circle><circle cx="172.06750152545416" cy="747.5698372706214" r="0.6364465964046536" fill="#c8a96a" opacity="0.03901359937314111"></circle><circle cx="23.339743770797128" cy="233.95310793944284" r="0.5109714911875031" fill="#c8a96a" opacity="0.04236461399328967"></circle><circle cx="348.47031464247647" cy="376.18673096536105" r="0.10209400304555959" fill="#c8a96a" opacity="0.021738675845940872"></circle><circle cx="170.56628168063054" cy="940.8417849029565" r="0.5603675913299576" fill="#c8a96a" opacity="0.02349232038283727"></circle><circle cx="127.1065809728003" cy="133.76156697430864" r="0.6407831100161078" fill="#c8a96a" opacity="0.03649102032524519"></circle><circle cx="298.0001973401422" cy="861.8188882146754" r="0.6225187905140717" fill="#c8a96a" opacity="0.03209994355629254"></circle><circle cx="559.7130692758467" cy="196.89220387308754" r="0.2145203329484769" fill="#c8a96a" opacity="0.007535421481706184"></circle><circle cx="491.5655351621311" cy="768.3189282225724" r="0.7201370898376895" fill="#c8a96a" opacity="0.03528737129719732"></circle><circle cx="36.891866214263125" cy="240.0590577207142" r="0.19688458929828362" fill="#c8a96a" opacity="0.0008015989566026006"></circle><circle cx="270.31989669000006" cy="704.2670225053394" r="0.591214519678635" fill="#c8a96a" opacity="0.03624311610703604"></circle><circle cx="38.57052923617354" cy="459.2017691484876" r="0.2597745780510361" fill="#c8a96a" opacity="0.03778177402702315"></circle><circle cx="232.50624091397088" cy="372.0487645795631" r="0.2076334084343796" fill="#c8a96a" opacity="0.025082000637471548"></circle><circle cx="411.74704778202226" cy="642.0224082249314" r="0.36193366126590915" fill="#c8a96a" opacity="0.006864801812269273"></circle><circle cx="724.1046161881292" cy="692.2544069892772" r="0.6725855953587755" fill="#c8a96a" opacity="0.008362292983147395"></circle><circle cx="233.03726874886382" cy="446.93968425867325" r="0.15359422441570222" fill="#c8a96a" opacity="0.031245951519744148"></circle><circle cx="758.2352147198854" cy="609.286759906702" r="0.7116741923426984" fill="#c8a96a" opacity="0.025872135780027797"></circle><circle cx="222.90147602107123" cy="268.8348525664802" r="0.2716451762017738" fill="#c8a96a" opacity="0.029733452197994836"></circle><circle cx="514.384163609155" cy="603.5836756763268" r="0.3200459008640117" fill="#c8a96a" opacity="0.03916727493831805"></circle><circle cx="198.03992109454418" cy="996.3206550545755" r="0.5287467000226627" fill="#c8a96a" opacity="0.013952134688818025"></circle><circle cx="652.6720742204964" cy="515.3266856737907" r="0.31842434454328866" fill="#c8a96a" opacity="0.0343437260915628"></circle><circle cx="574.4696678431504" cy="1007.9917105752845" r="0.47441870237994366" fill="#c8a96a" opacity="0.03857985195525973"></circle><circle cx="616.6415064068298" cy="72.31740225128993" r="0.06708910837832126" fill="#c8a96a" opacity="0.013950912590884035"></circle><circle cx="435.9055718770127" cy="180.40425547134652" r="0.5974366319606998" fill="#c8a96a" opacity="0.041245706426400575"></circle><circle cx="678.3758911494185" cy="158.79005567853523" r="0.18793326011729505" fill="#c8a96a" opacity="0.019412489522586503"></circle><circle cx="476.27053620811955" cy="1010.9049881929849" r="0.3660465114645164" fill="#c8a96a" opacity="0.008715149090879231"></circle><circle cx="583.3316817148265" cy="773.8353664872827" r="0.012748144812644746" fill="#c8a96a" opacity="0.03252793346930652"></circle><circle cx="285.8504507741878" cy="340.4895365963713" r="0.2841267914818788" fill="#c8a96a" opacity="0.03358871116755862"></circle><circle cx="773.1197989190538" cy="314.4304644650077" r="0.6702259557634808" fill="#c8a96a" opacity="0.044043950660309916"></circle><circle cx="758.3376736856019" cy="488.56134540902997" r="0.3064975622751068" fill="#c8a96a" opacity="0.0482500492891265"></circle><circle cx="655.4415454271893" cy="449.9343448343798" r="0.5733469842007108" fill="#c8a96a" opacity="0.02496633709066358"></circle><circle cx="763.7265041547674" cy="657.1586901835756" r="0.5684747385408201" fill="#c8a96a" opacity="0.003747308014919021"></circle><circle cx="499.7762913695804" cy="1094.9280869748752" r="0.1807119470327132" fill="#c8a96a" opacity="0.026686526989183196"></circle><circle cx="757.2219265529051" cy="279.1904997450107" r="0.17833247991041068" fill="#c8a96a" opacity="0.029739101969230547"></circle><circle cx="388.77436007195973" cy="953.7782717336414" r="0.5907627957712783" fill="#c8a96a" opacity="0.036429244944357106"></circle><circle cx="524.3615991180269" cy="216.6309530034396" r="0.5806254545898404" fill="#c8a96a" opacity="0.0046238448433158445"></circle><circle cx="102.99704201122628" cy="1095.9509674074066" r="0.11827266151897753" fill="#c8a96a" opacity="0.03438807007719134"></circle><circle cx="789.7572486860536" cy="130.51642502105489" r="0.10831460915256796" fill="#c8a96a" opacity="0.007224488975212856"></circle><circle cx="47.03714678674977" cy="773.8603017437706" r="0.5139062883921796" fill="#c8a96a" opacity="0.03787901964016006"></circle><circle cx="17.4045711933994" cy="283.878170771475" r="0.5161721316947471" fill="#c8a96a" opacity="0.0397269388612294"></circle><circle cx="503.0107955262361" cy="284.39762504430263" r="0.09881348543238372" fill="#c8a96a" opacity="0.01720344730039641"></circle><circle cx="621.6601079680491" cy="1008.9347204377276" r="0.34894949061303093" fill="#c8a96a" opacity="0.015185112299897097"></circle><circle cx="99.70934471796946" cy="1056.334307333811" r="0.7930391400436942" fill="#c8a96a" opacity="0.0370747787386445"></circle><circle cx="538.9741359416772" cy="529.2755965384534" r="0.30661302383105327" fill="#c8a96a" opacity="0.010997289125559535"></circle><circle cx="121.6185270839139" cy="740.9191388644359" r="0.2038089501379317" fill="#c8a96a" opacity="0.02862579217848505"></circle><circle cx="439.49630142343057" cy="741.824023808651" r="0.15023918751159587" fill="#c8a96a" opacity="0.04815942377355836"></circle><circle cx="583.7638006219057" cy="436.8374885905257" r="0.1497175838613096" fill="#c8a96a" opacity="0.04561061489585544"></circle><circle cx="351.2760368332478" cy="861.2831738722468" r="0.7355564047692215" fill="#c8a96a" opacity="0.030007574405748767"></circle><circle cx="660.0260879245019" cy="779.9135604561702" r="0.5576029832735487" fill="#c8a96a" opacity="0.005728753297461287"></circle><circle cx="753.020712021169" cy="288.95847593721925" r="0.6059367715876421" fill="#c8a96a" opacity="0.0058301858768757325"></circle><circle cx="27.418499886170533" cy="532.3221472675236" r="0.48204201165965693" fill="#c8a96a" opacity="0.023678126108038967"></circle><circle cx="271.89383805830136" cy="884.325269593168" r="0.06536520646689743" fill="#c8a96a" opacity="0.00009655145426918922"></circle><circle cx="20.80811451382054" cy="220.1628889977431" r="0.022452811307202582" fill="#c8a96a" opacity="0.04001135903655148"></circle><circle cx="486.7577293881962" cy="999.8318705549995" r="0.23040351739987824" fill="#c8a96a" opacity="0.03747400419264296"></circle><circle cx="397.54333167256675" cy="899.759819833967" r="0.6320981413674653" fill="#c8a96a" opacity="0.012684375989443076"></circle><circle cx="126.23365461970133" cy="206.1404123502368" r="0.20251515164544012" fill="#c8a96a" opacity="0.04292639915183785"></circle><circle cx="293.7152635022762" cy="879.0371165531855" r="0.4487841729105223" fill="#c8a96a" opacity="0.01589530447723116"></circle><circle cx="722.2931114552724" cy="1059.8813168173501" r="0.7159434487832166" fill="#c8a96a" opacity="0.03437489243956173"></circle><circle cx="333.13392411879016" cy="272.9957416113781" r="0.05624058127668344" fill="#c8a96a" opacity="0.019699259139953892"></circle><circle cx="634.8477811640631" cy="1033.7063956494528" r="0.2999607817526034" fill="#c8a96a" opacity="0.016399682208167184"></circle><circle cx="458.9806680289575" cy="903.4874129012409" r="0.5849902613818482" fill="#c8a96a" opacity="0.041100406891286634"></circle><circle cx="369.81321466794645" cy="577.5658552084262" r="0.7443648449599762" fill="#c8a96a" opacity="0.047082105070096095"></circle><circle cx="264.1155772249058" cy="196.9559893201066" r="0.09736607020858212" fill="#c8a96a" opacity="0.0032991834084477424"></circle><circle cx="226.58621323372364" cy="230.63668316968975" r="0.7541641250051636" fill="#c8a96a" opacity="0.021887268321737097"></circle><circle cx="24.351343070020448" cy="626.3479419381742" r="0.6134043493094836" fill="#c8a96a" opacity="0.0429432263387928"></circle><circle cx="665.5662765126991" cy="132.76916809707203" r="0.19326124636440714" fill="#c8a96a" opacity="0.018567778161545402"></circle><circle cx="769.5702474885331" cy="829.7448046065508" r="0.012523868181836751" fill="#c8a96a" opacity="0.006893111011954262"></circle><circle cx="768.601010295606" cy="425.70364287992373" r="0.5053114435017053" fill="#c8a96a" opacity="0.011274241036781358"></circle><circle cx="121.21539739311338" cy="648.9339009494688" r="0.5857165585527141" fill="#c8a96a" opacity="0.015268423036291952"></circle><circle cx="418.34846861413234" cy="612.151227105047" r="0.0057926154685234545" fill="#c8a96a" opacity="0.00013502516500894514"></circle><circle cx="635.0162697521795" cy="201.5502276366402" r="0.2723045268800915" fill="#c8a96a" opacity="0.047281350331340566"></circle><circle cx="76.14054616457776" cy="416.7004564233779" r="0.5796505514070541" fill="#c8a96a" opacity="0.011450681802878677"></circle><circle cx="494.6671326080426" cy="408.82599119621244" r="0.6068532952439796" fill="#c8a96a" opacity="0.042092642453551786"></circle><circle cx="741.4597839444955" cy="449.163818917628" r="0.1290672473714225" fill="#c8a96a" opacity="0.00995820470341447"></circle><circle cx="387.61726232825345" cy="805.8584658691741" r="0.15406962122710022" fill="#c8a96a" opacity="0.016015070031034164"></circle><circle cx="196.71090756508906" cy="738.0607651729125" r="0.29251106371000113" fill="#c8a96a" opacity="0.0179663116729655"></circle><circle cx="358.5917188488116" cy="627.2591603961432" r="0.26741513226654173" fill="#c8a96a" opacity="0.01219761639186786"></circle><circle cx="343.3671440934397" cy="31.99567906030264" r="0.15220807534122668" fill="#c8a96a" opacity="0.039554090000308996"></circle><circle cx="150.5332554399641" cy="127.25371815859218" r="0.3578207514091279" fill="#c8a96a" opacity="0.04593347652587983"></circle><circle cx="664.9545058084283" cy="862.2457847318476" r="0.29815761012608927" fill="#c8a96a" opacity="0.02053434062869146"></circle><circle cx="331.1540965930708" cy="38.72092170890299" r="0.658214263027304" fill="#c8a96a" opacity="0.03449976195175706"></circle><circle cx="211.63838944813423" cy="528.2744151008583" r="0.6917490325340765" fill="#c8a96a" opacity="0.014848094238147182"></circle><circle cx="319.8337525662835" cy="197.62742773658607" r="0.4662766257068219" fill="#c8a96a" opacity="0.014151566389586269"></circle><circle cx="336.0148161053736" cy="507.9374698682125" r="0.24323366149046732" fill="#c8a96a" opacity="0.03651385896113763"></circle><circle cx="551.7698542834712" cy="568.4710758625791" r="0.3362589268369556" fill="#c8a96a" opacity="0.045474593628248086"></circle><circle cx="692.9211492669933" cy="11.421043388489583" r="0.20744484757515824" fill="#c8a96a" opacity="0.036769053257682635"></circle><circle cx="686.3981834584802" cy="318.86072384082007" r="0.01773862721842159" fill="#c8a96a" opacity="0.037539112631487244"></circle><circle cx="437.4705007661215" cy="225.06609194653666" r="0.7730186764231184" fill="#c8a96a" opacity="0.0025538193566232606"></circle><circle cx="475.28271894047424" cy="649.8211678518414" r="0.6093890352598736" fill="#c8a96a" opacity="0.03335234818554669"></circle><circle cx="756.340893446887" cy="27.05849160766206" r="0.3791300382622894" fill="#c8a96a" opacity="0.02433369775679177"></circle><circle cx="590.9099837022716" cy="144.89012056951802" r="0.058508258348048514" fill="#c8a96a" opacity="0.0291905124653888"></circle><circle cx="729.4803290270711" cy="196.40071640397326" r="0.7606314365288005" fill="#c8a96a" opacity="0.021100421115166523"></circle><circle cx="679.0934917778362" cy="1069.7127733698353" r="0.26276319458654884" fill="#c8a96a" opacity="0.00595644557386999"></circle><circle cx="707.2602123366611" cy="793.5291157906568" r="0.5925824758622865" fill="#c8a96a" opacity="0.01556233867936251"></circle><circle cx="214.38061468688971" cy="654.3002398451376" r="0.6023626757413738" fill="#c8a96a" opacity="0.009032267186159338"></circle><circle cx="206.38568827473512" cy="950.1781085603527" r="0.5443867844030196" fill="#c8a96a" opacity="0.007250996214370531"></circle><circle cx="337.47930263257933" cy="738.0843110354593" r="0.5825873272115414" fill="#c8a96a" opacity="0.021693771324599112"></circle><circle cx="29.996033356945162" cy="1022.6530595736685" r="0.2027356876155751" fill="#c8a96a" opacity="0.011402237939069854"></circle><circle cx="591.5998232300424" cy="29.67772087676652" r="0.6427182689724181" fill="#c8a96a" opacity="0.020330169036210613"></circle><circle cx="291.3015119548302" cy="59.268648925762214" r="0.2816195218202907" fill="#c8a96a" opacity="0.010746317572342547"></circle><circle cx="345.26468005634354" cy="777.7016566999175" r="0.34005135360172667" fill="#c8a96a" opacity="0.04904431057014344"></circle><circle cx="6.685311511859826" cy="975.5115496017378" r="0.7725298068468385" fill="#c8a96a" opacity="0.018039892799163033"></circle><circle cx="530.4572834278745" cy="97.80883707112396" r="0.38999424566305385" fill="#c8a96a" opacity="0.010363008338212399"></circle><circle cx="371.72892519897715" cy="721.4929469942668" r="0.08907045291625267" fill="#c8a96a" opacity="0.0350944744633659"></circle><circle cx="254.270053681584" cy="432.5190250168844" r="0.5173605135587057" fill="#c8a96a" opacity="0.0174391163480823"></circle><circle cx="221.48357150673644" cy="35.2338192517294" r="0.7736733115276881" fill="#c8a96a" opacity="0.04914508396184336"></circle><circle cx="624.3746890696224" cy="907.6896631961479" r="0.5087665467034851" fill="#c8a96a" opacity="0.03219109131553134"></circle><circle cx="261.7407134711783" cy="615.1984523775544" r="0.4276345801324725" fill="#c8a96a" opacity="0.015013358657316435"></circle><circle cx="370.22216005421933" cy="1061.9226968182602" r="0.35715999403034193" fill="#c8a96a" opacity="0.00853555387703599"></circle><circle cx="255.6305558937348" cy="304.6576537364467" r="0.7221505337578593" fill="#c8a96a" opacity="0.008849129101083443"></circle><circle cx="528.7597071475104" cy="524.45766408637" r="0.4917266977956216" fill="#c8a96a" opacity="0.021411237990475618"></circle><circle cx="227.9756040573833" cy="287.3893359632245" r="0.2994107389260205" fill="#c8a96a" opacity="0.022916116739452205"></circle><circle cx="457.3655585560334" cy="675.6423534057875" r="0.36788202247449997" fill="#c8a96a" opacity="0.03905200995589329"></circle><circle cx="616.5537342560195" cy="1088.767385432549" r="0.3369529528707987" fill="#c8a96a" opacity="0.0413786145301484"></circle><circle cx="236.62346748257406" cy="370.29335952382996" r="0.4821030679358358" fill="#c8a96a" opacity="0.04385983691803521"></circle><circle cx="367.86440003627536" cy="44.33927139344964" r="0.7167184646296725" fill="#c8a96a" opacity="0.0182280400349597"></circle><circle cx="524.0872680050456" cy="774.3583156423093" r="0.7307831395790051" fill="#c8a96a" opacity="0.03896863648279475"></circle><circle cx="16.657325233643583" cy="435.9494471954999" r="0.04420625493702044" fill="#c8a96a" opacity="0.014962361471032649"></circle><circle cx="21.476062547243036" cy="1091.4205822539295" r="0.5439838673692756" fill="#c8a96a" opacity="0.018044139082408827"></circle><circle cx="173.294106810033" cy="720.5077888868243" r="0.163177560230593" fill="#c8a96a" opacity="0.017585705628039412"></circle><circle cx="300.9362434929156" cy="122.39903232449336" r="0.7802683597428433" fill="#c8a96a" opacity="0.016514119625741435"></circle><circle cx="743.2851265826185" cy="327.96772473812916" r="0.5079179123253073" fill="#c8a96a" opacity="0.03565285428866642"></circle><circle cx="23.221490316778493" cy="766.4098922517242" r="0.48083687315127543" fill="#c8a96a" opacity="0.03969608592428553"></circle><circle cx="166.07304429125688" cy="690.9706679775468" r="0.20550507673896945" fill="#c8a96a" opacity="0.01253573818355136"></circle><circle cx="643.4273901087887" cy="1076.2266093730782" r="0.2633585777986932" fill="#c8a96a" opacity="0.017828780380108857"></circle><circle cx="137.02029426858147" cy="936.7965150811078" r="0.6225181665400985" fill="#c8a96a" opacity="0.02864221584111705"></circle><circle cx="491.8025084147195" cy="723.5306678591596" r="0.5518978515227083" fill="#c8a96a" opacity="0.013723827846801024"></circle><circle cx="280.98656991429135" cy="139.83225704593576" r="0.5646653957916455" fill="#c8a96a" opacity="0.03194397709820508"></circle><circle cx="715.0417349940295" cy="605.7232242706829" r="0.16057362807131048" fill="#c8a96a" opacity="0.04867110129530903"></circle><circle cx="305.09248517748466" cy="220.06086036101863" r="0.6652398129129067" fill="#c8a96a" opacity="0.017140443789544397"></circle><circle cx="418.46284752953187" cy="175.7442558993833" r="0.1816515060646955" fill="#c8a96a" opacity="0.01115097868913828"></circle><circle cx="686.2784961863956" cy="194.67024113101508" r="0.4511968846195206" fill="#c8a96a" opacity="0.04941803006937187"></circle><circle cx="254.63677836348035" cy="691.5895030503914" r="0.326664366223569" fill="#c8a96a" opacity="0.03929391628317433"></circle><circle cx="386.7899259844404" cy="110.51758548487331" r="0.1706352803039023" fill="#c8a96a" opacity="0.016001032076478513"></circle><circle cx="692.4362904421342" cy="178.09235787589222" r="0.6192853408082969" fill="#c8a96a" opacity="0.024830269035774555"></circle><circle cx="21.419114563009067" cy="972.9676800701213" r="0.35887130769157705" fill="#c8a96a" opacity="0.03142430222357375"></circle><circle cx="708.5963798437145" cy="35.217343728983785" r="0.5980493865655055" fill="#c8a96a" opacity="0.015385785172911993"></circle><circle cx="547.7938054352155" cy="498.76913412364996" r="0.5533853455257977" fill="#c8a96a" opacity="0.00315633888886771"></circle><circle cx="354.3391279164542" cy="774.0959595454724" r="0.3926065316002825" fill="#c8a96a" opacity="0.04944672475824273"></circle><circle cx="620.506503791309" cy="695.757879652017" r="0.5473315879449906" fill="#c8a96a" opacity="0.009730154944589682"></circle><circle cx="350.4834109862039" cy="313.2092581887813" r="0.180949080285834" fill="#c8a96a" opacity="0.03602603470618763"></circle>
    <rect width="800" height="1100" fill="url(#vg-07)"></rect>
    
    <g transform="translate(48, 88)">
      <text x="0" y="0" font-family="Playfair Display, serif" font-style="italic" font-size="30.4" fill="#c8a96a">Le Bien</text>
      <line x1="0" y1="16" x2="112.00000000000001" y2="16" stroke="#c8a96a" stroke-width="0.6" opacity="0.8"></line>
      <text x="0" y="35.199999999999996" font-family="Playfair Display, serif" font-style="italic" font-size="14.399999999999999" fill="#c8a96a" letter-spacing="3">DÉCO</text>
    </g>
  
    
    <text x="752" y="99" text-anchor="end" font-family="Playfair Display, serif" font-style="italic" font-size="40" fill="#c8a96a" opacity="0.9">— 07</text>
  
    
    <g transform="translate(48, 990)">
      <text x="0" y="0" font-family="&#39;Courier New&#39;, monospace" font-size="12" fill="#c8a96a" letter-spacing="3" opacity="0.7">[ PORTRAIT · COUPLE ]</text>
      <text x="0" y="29.120000000000005" font-family="Playfair Display, serif" font-style="italic" font-size="22.400000000000002" fill="#cdc7b8">A quiet portrait, after</text>
    </g>
  
  </svg>