<svg xmlns="http://www.w3.org/2000/svg" viewBox="0 0 1200 800" preserveAspectRatio="xMidYMid slice">
    <defs><radialGradient id="vg-09" cx="50%" cy="50%" r="65%"><stop offset="60%" stop-color="#2a1f1d" stop-opacity="0"></stop><stop offset="100%" stop-color="#2a1f1d" stop-opacity="0.55"></stop></radialGradient></defs>
    <rect width="1200" height="800" fill="#2a1f1d"></rect>
    
      <rect x="0" y="0" width="1200" height="496" fill="#4a3a36" opacity="0.5"></rect>
      <line x1="0" y1="496" x2="1200" y2="496" stroke="#d9b6b0" stroke-width="1" opacity="0.6"></line>
    
    <circle cx="830.4672884338978" cy="493.63588643488157" r="0.5358372439726002" fill="#d9b6b0" opacity="0.02632559821136775"></circle><circle cx="871.8525217995318" cy="552.0127812725846" r="0.160937715644846" fill="#d9b6b0" opacity="0.03167722296597568"></circle><circle cx="592.6342873423016" cy="359.23933171297955" r="0.7468477232190324" fill="#d9b6b0" opacity="0.04296316131798888"></circle><circle cx="676.2184587045917" cy="799.1137343220712" r="0.217871967818156" fill="#d9b6b0" opacity="0.035009715316175916"></circle><circle cx="619.2868820856005" cy="415.36544120936674" r="0.6038789986389397" fill="#d9b6b0" opacity="0.04277354708962758"></circle><circle cx="90.08788645494796" cy="330.1196040881496" r="0.46783935550163513" fill="#d9b6b0" opacity="0.014687698226888308"></circle><circle cx="1129.5278831580647" cy="92.17964794135804" r="0.7016409710478392" fill="#d9b6b0" opacity="0.024054147486371857"></circle><circle cx="485.3485447074461" cy="515.8126564224966" r="0.3223836982118635" fill="#d9b6b0" opacity="0.04786545082390303"></circle><circle cx="445.06771320986786" cy="91.21985903498206" r="0.08595873237825408" fill="#d9b6b0" opacity="0.007810245042121139"></circle><circle cx="738.1381178386325" cy="289.44805818018085" r="0.5610135154315554" fill="#d9b6b0" opacity="0.02643413209726401"></circle><circle cx="462.3144770060715" cy="663.6631045118314" r="0.32341345632594803" fill="#d9b6b0" opacity="0.010917014517793078"></circle><circle cx="891.5764257445651" cy="779.134135326777" r="0.1999525088041577" fill="#d9b6b0" opacity="0.04692475103293997"></circle><circle cx="1142.4702261899824" cy="129.403580003546" r="0.2360087120320169" fill="#d9b6b0" opacity="0.022320921367400316"></circle><circle cx="760.8588234843384" cy="76.6232343351743" r="0.1841378432481011" fill="#d9b6b0" opacity="0.021350570094413775"></circle><circle cx="866.5771758988889" cy="16.670701640414975" r="0.045510793562913945" fill="#d9b6b0" opacity="0.03480380985497631"></circle><circle cx="270.9684207122383" cy="741.232577904984" r="0.5012151572843994" fill="#d9b6b0" opacity="0.012848291215927177"></circle><circle cx="539.161521927025" cy="623.4310655784418" r="0.34610470187400505" fill="#d9b6b0" opacity="0.017884811297644642"></circle><circle cx="470.19919279346936" cy="369.86900069529946" r="0.10183754177705158" fill="#d9b6b0" opacity="0.03156797310461034"></circle><circle cx="778.537430385611" cy="750.3616110063106" r="0.5996874235120186" fill="#d9b6b0" opacity="0.04214982371835116"></circle><circle cx="1026.6163962674143" cy="464.65106624293287" r="0.3820748565859745" fill="#d9b6b0" opacity="0.017325798128726085"></circle><circle cx="24.79902888415979" cy="544.6776367152034" r="0.4065132265733941" fill="#d9b6b0" opacity="0.021299394063311678"></circle><circle cx="342.29734431286045" cy="645.5614281527214" r="0.25594347069017653" fill="#d9b6b0" opacity="0.007759281711332095"></circle><circle cx="78.45063793299825" cy="524.5132681649892" r="0.12628559430872635" fill="#d9b6b0" opacity="0.0058872320117007715"></circle><circle cx="597.3042694723955" cy="113.08128723428635" r="0.40874308421163286" fill="#d9b6b0" opacity="0.006429644017904268"></circle><circle cx="814.447286933727" cy="223.6328995837561" r="0.07814984314413503" fill="#d9b6b0" opacity="0.035087467030464045"></circle><circle cx="644.9512397721891" cy="39.01118987940748" r="0.7207306520040508" fill="#d9b6b0" opacity="0.04627847734156412"></circle><circle cx="800.2901112634717" cy="9.729119073755399" r="0.03102495081680212" fill="#d9b6b0" opacity="0.026854923028508282"></circle><circle cx="836.7173033223455" cy="549.3951354901621" r="0.7651381404978296" fill="#d9b6b0" opacity="0.02774154974623886"></circle><circle cx="884.2665042040346" cy="391.1434449856587" r="0.26570247020682497" fill="#d9b6b0" opacity="0.000877369140115969"></circle><circle cx="900.3574760773043" cy="767.313601802796" r="0.7090613743979435" fill="#d9b6b0" opacity="0.006205551453408215"></circle><circle cx="1172.4702013257709" cy="767.7323263806869" r="0.5999101919279469" fill="#d9b6b0" opacity="0.00247799896990189"></circle><circle cx="859.8263185425612" cy="511.2063379136753" r="0.5468788814144275" fill="#d9b6b0" opacity="0.031813639216553294"></circle><circle cx="722.7994670814137" cy="596.809199327677" r="0.6441956842790871" fill="#d9b6b0" opacity="0.002787727126634454"></circle><circle cx="584.7086530042394" cy="339.1404131200809" r="0.05528031514100924" fill="#d9b6b0" opacity="0.011959997007013041"></circle><circle cx="194.8841560808235" cy="17.705343134523943" r="0.6796911348659286" fill="#d9b6b0" opacity="0.038708656668541445"></circle><circle cx="1100.8516777868713" cy="517.8811554101642" r="0.06017814589963058" fill="#d9b6b0" opacity="0.041211190913658435"></circle><circle cx="393.0499188162653" cy="205.4921384606038" r="0.4739057368619302" fill="#d9b6b0" opacity="0.0041428282927887805"></circle><circle cx="646.0697674569669" cy="683.5751210788655" r="0.5317138784502875" fill="#d9b6b0" opacity="0.03563511909417474"></circle><circle cx="159.21936612717755" cy="190.72827491061187" r="0.4342670977672882" fill="#d9b6b0" opacity="0.02519044696862709"></circle><circle cx="248.87806349671683" cy="252.5344481434635" r="0.0461637671833711" fill="#d9b6b0" opacity="0.04508382624753024"></circle><circle cx="864.1814778654012" cy="676.7545681555124" r="0.5899688319903825" fill="#d9b6b0" opacity="0.001950716454688195"></circle><circle cx="587.1227949454351" cy="526.5349198978561" r="0.5013932450776007" fill="#d9b6b0" opacity="0.017611429810542523"></circle><circle cx="3.059902568808548" cy="629.0583473114568" r="0.01927063599767749" fill="#d9b6b0" opacity="0.0014239209118350805"></circle><circle cx="884.9936824380981" cy="681.1940507836395" r="0.4846237652546929" fill="#d9b6b0" opacity="0.0005522025353289272"></circle><circle cx="782.2743054819996" cy="611.5836741777367" r="0.2685132262563667" fill="#d9b6b0" opacity="0.046768580906468536"></circle><circle cx="617.2225120803481" cy="448.0651835696589" r="0.5851851636273266" fill="#d9b6b0" opacity="0.025058813114839817"></circle><circle cx="1024.0201829587668" cy="385.66400137721206" r="0.048430976476893144" fill="#d9b6b0" opacity="0.009474571854399634"></circle><circle cx="1039.3178345289796" cy="339.997172160194" r="0.0645448168099703" fill="#d9b6b0" opacity="0.03549674667251359"></circle><circle cx="1050.8165627224741" cy="760.9536851106649" r="0.6435285890152498" fill="#d9b6b0" opacity="0.018948181474901862"></circle><circle cx="976.5899077505513" cy="32.022335737585465" r="0.21113327791856504" fill="#d9b6b0" opacity="0.024884970155054177"></circle><circle cx="899.4344450010461" cy="319.4385862899802" r="0.16639371724899005" fill="#d9b6b0" opacity="0.04068517697083575"></circle><circle cx="159.00590632452793" cy="583.4186878324994" r="0.027154213167773823" fill="#d9b6b0" opacity="0.0022807971034683352"></circle><circle cx="501.85013566086224" cy="349.9988620660594" r="0.530498085610941" fill="#d9b6b0" opacity="0.016315568115306402"></circle><circle cx="1003.9192359164364" cy="59.06529995273493" r="0.1773052230445072" fill="#d9b6b0" opacity="0.0419485021601569"></circle><circle cx="768.9611691930023" cy="593.2966409514282" r="0.2000045143897481" fill="#d9b6b0" opacity="0.007364021903863655"></circle><circle cx="838.9853704428874" cy="771.2792904937176" r="0.485586985782362" fill="#d9b6b0" opacity="0.036477929966308824"></circle><circle cx="1036.9657168125002" cy="79.36659140669695" r="0.6453872395088969" fill="#d9b6b0" opacity="0.02877597738325291"></circle><circle cx="458.56356191684745" cy="40.68901598326544" r="0.4347441792705203" fill="#d9b6b0" opacity="0.035974525978222587"></circle><circle cx="741.4580577175046" cy="13.132014182315377" r="0.6472816375483579" fill="#d9b6b0" opacity="0.044800860307753"></circle><circle cx="74.62047975892622" cy="258.13682970640474" r="0.7895000211732901" fill="#d9b6b0" opacity="0.0376413279926457"></circle><circle cx="219.2178610582168" cy="354.73130809953693" r="0.2729115394255414" fill="#d9b6b0" opacity="0.026898179116896632"></circle><circle cx="1117.6314688747332" cy="681.5966149475823" r="0.42922760641299834" fill="#d9b6b0" opacity="0.033055961271729675"></circle><circle cx="977.7382413755429" cy="745.2251654680554" r="0.7263216892359666" fill="#d9b6b0" opacity="0.00023040760621060308"></circle><circle cx="4.888358224613887" cy="770.1017422349892" r="0.4566026047411591" fill="#d9b6b0" opacity="0.0002723750986621032"></circle><circle cx="837.0374615973444" cy="521.753689008605" r="0.3702692545832923" fill="#d9b6b0" opacity="0.03902154545687239"></circle><circle cx="713.5196747658568" cy="265.04549250876755" r="0.3307424103814454" fill="#d9b6b0" opacity="0.03293318514702844"></circle><circle cx="1053.160948205772" cy="75.69254623652242" r="0.38664377178526865" fill="#d9b6b0" opacity="0.026208960327433542"></circle><circle cx="607.7893435105348" cy="686.4689946789946" r="0.6754341611133142" fill="#d9b6b0" opacity="0.018458815622448412"></circle><circle cx="457.64649775236535" cy="642.6248470262256" r="0.4310656182599707" fill="#d9b6b0" opacity="0.015518001207153416"></circle><circle cx="568.3162161551552" cy="261.698610352442" r="0.04596026662708175" fill="#d9b6b0" opacity="0.02389096768127463"></circle><circle cx="297.8492371453211" cy="270.0540949397707" r="0.06356468106533174" fill="#d9b6b0" opacity="0.04899220906709751"></circle><circle cx="996.6004450269596" cy="607.2053337196136" r="0.004911462823262447" fill="#d9b6b0" opacity="0.03922264863634294"></circle><circle cx="618.5575548337174" cy="725.6154816804636" r="0.7240025983700612" fill="#d9b6b0" opacity="0.04592164092697053"></circle><circle cx="461.98591540534863" cy="349.7323067885675" r="0.5287980691185981" fill="#d9b6b0" opacity="0.04423972753182269"></circle><circle cx="997.5505345225062" cy="342.6221420667731" r="0.10068631438229714" fill="#d9b6b0" opacity="0.04105696753528059"></circle><circle cx="14.732059123306973" cy="336.38885154833235" r="0.17681210635311936" fill="#d9b6b0" opacity="0.02913816402998179"></circle><circle cx="788.0305166315566" cy="413.3051273253931" r="0.14177510413986713" fill="#d9b6b0" opacity="0.017760316703280717"></circle><circle cx="1111.7184511253981" cy="631.6249578744965" r="0.30026154410978984" fill="#d9b6b0" opacity="0.028323763723280666"></circle><circle cx="328.54069134028174" cy="229.2810006712516" r="0.7145641436376887" fill="#d9b6b0" opacity="0.03037497998972369"></circle><circle cx="1174.7140312081883" cy="783.3283762234826" r="0.4176561839277346" fill="#d9b6b0" opacity="0.012452045025289833"></circle><circle cx="887.1468766998123" cy="712.9169094885652" r="0.10547485160601884" fill="#d9b6b0" opacity="0.030244495679254614"></circle><circle cx="41.25889223466732" cy="507.401545035424" r="0.20925255768052242" fill="#d9b6b0" opacity="0.045598323483221764"></circle><circle cx="380.85269256958696" cy="2.9507187529410395" r="0.1297947429715669" fill="#d9b6b0" opacity="0.006050181258170412"></circle><circle cx="127.47131973317236" cy="682.9921116722373" r="0.005705183945372916" fill="#d9b6b0" opacity="0.010642467743775669"></circle><circle cx="957.1740162391354" cy="354.2452677131811" r="0.5441629263935653" fill="#d9b6b0" opacity="0.007808875968753371"></circle><circle cx="838.8778514856102" cy="251.96939191212815" r="0.501889703724815" fill="#d9b6b0" opacity="0.026176970031572013"></circle><circle cx="563.702973593615" cy="238.54548534966716" r="0.3621016380458213" fill="#d9b6b0" opacity="0.004168107778475605"></circle><circle cx="413.29657884095946" cy="470.3609809069287" r="0.6186846287072505" fill="#d9b6b0" opacity="0.031688264413209315"></circle><circle cx="568.0912452148835" cy="28.92845210005257" r="0.39846810235510166" fill="#d9b6b0" opacity="0.0103715494080316"></circle><circle cx="68.9618698037902" cy="755.7905108640672" r="0.11970660736851704" fill="#d9b6b0" opacity="0.016955720875164056"></circle><circle cx="835.56885668246" cy="338.93212638212964" r="0.22103467451969527" fill="#d9b6b0" opacity="0.00819513613102924"></circle><circle cx="444.41321150346835" cy="210.97115979409082" r="0.1734769419539215" fill="#d9b6b0" opacity="0.030000655572622964"></circle><circle cx="812.8506903307681" cy="487.9532425066234" r="0.719630912045989" fill="#d9b6b0" opacity="0.0016280307940891637"></circle><circle cx="361.6574256326153" cy="76.20571429930729" r="0.3883205715681382" fill="#d9b6b0" opacity="0.03474038676383434"></circle><circle cx="705.3089794109916" cy="411.236106233868" r="0.539392876423915" fill="#d9b6b0" opacity="0.035325840030756325"></circle><circle cx="751.8059626909451" cy="179.53016080240357" r="0.21702964841858297" fill="#d9b6b0" opacity="0.018209053467379766"></circle><circle cx="491.71558991955976" cy="527.773793309479" r="0.26714957151527774" fill="#d9b6b0" opacity="0.03923208780331129"></circle><circle cx="186.31050141383145" cy="758.3986445127115" r="0.3571650825993195" fill="#d9b6b0" opacity="0.0338472227952425"></circle><circle cx="70.5801554251106" cy="706.0274599950305" r="0.7697278844034282" fill="#d9b6b0" opacity="0.03988011086645442"></circle><circle cx="79.8413181025571" cy="244.34014124524762" r="0.6178194546436145" fill="#d9b6b0" opacity="0.001196351585939154"></circle><circle cx="197.1117642464518" cy="714.9939295376953" r="0.2429623913016469" fill="#d9b6b0" opacity="0.0339124343081789"></circle><circle cx="161.74701691983682" cy="479.379644444865" r="0.4297677645945693" fill="#d9b6b0" opacity="0.04119993415972133"></circle><circle cx="587.481176154978" cy="489.7089031728992" r="0.6025031214280141" fill="#d9b6b0" opacity="0.004705164115772625"></circle><circle cx="882.8746917763539" cy="703.6510747065963" r="0.28086958269044987" fill="#d9b6b0" opacity="0.00827455930048236"></circle><circle cx="1000.5214708431653" cy="637.4270573693759" r="0.5618813255952321" fill="#d9b6b0" opacity="0.013434232281064397"></circle><circle cx="690.1828800744273" cy="392.8352233946339" r="0.19121521367848643" fill="#d9b6b0" opacity="0.016090432344289637"></circle><circle cx="1044.5861897341686" cy="242.20254456929132" r="0.7180552988800872" fill="#d9b6b0" opacity="0.04792829517585186"></circle><circle cx="1068.8138124634154" cy="379.25439376488424" r="0.3274381769507271" fill="#d9b6b0" opacity="0.028395816358514014"></circle><circle cx="451.66452095352736" cy="340.9510249759187" r="0.34590284896320594" fill="#d9b6b0" opacity="0.025112947143640447"></circle><circle cx="977.4351960728122" cy="512.0123789046474" r="0.3865318208731604" fill="#d9b6b0" opacity="0.005166171232496075"></circle><circle cx="194.99898655375398" cy="103.89939331625851" r="0.09658716590521986" fill="#d9b6b0" opacity="0.048594534632561144"></circle><circle cx="772.0465012033872" cy="475.37821974665064" r="0.2830943377978303" fill="#d9b6b0" opacity="0.03627515394470392"></circle><circle cx="3.070928286286101" cy="215.19661026534473" r="0.6145439630226899" fill="#d9b6b0" opacity="0.04989819824255912"></circle><circle cx="23.182899086754773" cy="220.32697240773098" r="0.4227172159733911" fill="#d9b6b0" opacity="0.017432009998720778"></circle><circle cx="1039.573406264224" cy="43.280931634498465" r="0.3306121981591285" fill="#d9b6b0" opacity="0.017436397220811046"></circle><circle cx="80.61845861892874" cy="442.3323907353228" r="0.6967111224404013" fill="#d9b6b0" opacity="0.0318090420425293"></circle><circle cx="359.13741180665903" cy="54.18619790249038" r="0.6722626635507911" fill="#d9b6b0" opacity="0.016868236327305403"></circle><circle cx="367.30078224924597" cy="408.8856137795983" r="0.7521405473544786" fill="#d9b6b0" opacity="0.00820543253101732"></circle><circle cx="149.32948656161182" cy="402.3569544378819" r="0.2518730226152366" fill="#d9b6b0" opacity="0.03646264641649745"></circle><circle cx="894.5828233326364" cy="470.44548312996096" r="0.03534847624390114" fill="#d9b6b0" opacity="0.014546222564739732"></circle><circle cx="651.0648670931782" cy="422.16346824348926" r="0.4906461122197353" fill="#d9b6b0" opacity="0.01960457957956719"></circle><circle cx="96.33583448970575" cy="329.78365108947577" r="0.705451828700929" fill="#d9b6b0" opacity="0.017880368818734976"></circle><circle cx="296.6569323966754" cy="285.1531537227979" r="0.554195292715537" fill="#d9b6b0" opacity="0.011798118667546383"></circle><circle cx="424.9651465854972" cy="579.7183658007511" r="0.6476260720227278" fill="#d9b6b0" opacity="0.046284260420254575"></circle><circle cx="533.8028780492934" cy="239.05384713942954" r="0.36555274599712534" fill="#d9b6b0" opacity="0.031194325695403438"></circle><circle cx="1149.0060155084875" cy="661.374901881711" r="0.6291988292443519" fill="#d9b6b0" opacity="0.04910465455125891"></circle><circle cx="902.9067202561655" cy="415.8509972949307" r="0.7282322724569724" fill="#d9b6b0" opacity="0.015015000315382604"></circle><circle cx="755.1262628763642" cy="375.28630341381506" r="0.05069133908364059" fill="#d9b6b0" opacity="0.01449077884127713"></circle><circle cx="511.5204185118404" cy="309.16106700959244" r="0.48327087416119713" fill="#d9b6b0" opacity="0.042952882212195655"></circle><circle cx="350.022799476815" cy="705.0803641341658" r="0.3437364506377592" fill="#d9b6b0" opacity="0.03995265811242289"></circle><circle cx="517.4673645570338" cy="277.3370553016657" r="0.05071298261395834" fill="#d9b6b0" opacity="0.035107082227780625"></circle><circle cx="452.8107733967736" cy="141.16711569657053" r="0.681290254158725" fill="#d9b6b0" opacity="0.04112391868138"></circle><circle cx="616.4479633277053" cy="734.6644199846631" r="0.3312314992400713" fill="#d9b6b0" opacity="0.021287172425673212"></circle><circle cx="390.32196688839406" cy="371.74849987812416" r="0.7295013644732766" fill="#d9b6b0" opacity="0.023418158448035978"></circle><circle cx="874.7651976468785" cy="542.8535070277067" r="0.29072088410469593" fill="#d9b6b0" opacity="0.029012208128391975"></circle><circle cx="980.5038160427727" cy="74.88890938218704" r="0.09786826056523311" fill="#d9b6b0" opacity="0.046287100708564136"></circle><circle cx="480.86465806075586" cy="478.2325865944816" r="0.58654349120287" fill="#d9b6b0" opacity="0.023131288310637904"></circle><circle cx="865.3329883505625" cy="746.0479574937663" r="0.4618149399157192" fill="#d9b6b0" opacity="0.048274953992278054"></circle><circle cx="1024.5092104240703" cy="687.7886744875158" r="0.1846614087241381" fill="#d9b6b0" opacity="0.003977291062205401"></circle><circle cx="366.81796892466326" cy="348.2014348636028" r="0.6047861450764814" fill="#d9b6b0" opacity="0.027571077666747053"></circle><circle cx="471.83752039738863" cy="392.9848321500585" r="0.16029070399579012" fill="#d9b6b0" opacity="0.012480392810645297"></circle><circle cx="774.688325659352" cy="115.37511333255175" r="0.715231837446928" fill="#d9b6b0" opacity="0.04507011572586415"></circle><circle cx="303.2445110424749" cy="159.96581622829905" r="0.2638389207211657" fill="#d9b6b0" opacity="0.03646350893067052"></circle><circle cx="587.2629342697883" cy="84.8569480939422" r="0.7136784693943178" fill="#d9b6b0" opacity="0.012954179156189655"></circle><circle cx="1049.9953770666073" cy="471.0708643911704" r="0.4295987824938048" fill="#d9b6b0" opacity="0.001745199547885884"></circle><circle cx="871.5468024058499" cy="152.87060734723815" r="0.2598333493431957" fill="#d9b6b0" opacity="0.034340384942202075"></circle><circle cx="661.9328769364732" cy="123.98030540292409" r="0.5034576559983628" fill="#d9b6b0" opacity="0.018675442553726163"></circle><circle cx="1155.4604575292553" cy="109.48014998701385" r="0.27765342437175394" fill="#d9b6b0" opacity="0.025780626021466274"></circle><circle cx="1020.8369233003948" cy="613.309281119051" r="0.30051799185978895" fill="#d9b6b0" opacity="0.03138328927509406"></circle><circle cx="609.5445524044196" cy="446.3022893402502" r="0.23243229467346868" fill="#d9b6b0" opacity="0.037146069973792724"></circle><circle cx="738.3097640047539" cy="666.7518399492689" r="0.7394689279704884" fill="#d9b6b0" opacity="0.036939928433912354"></circle><circle cx="125.79205428174731" cy="84.59069621454213" r="0.1993334049688782" fill="#d9b6b0" opacity="0.015394552566678939"></circle><circle cx="507.34729445961455" cy="440.47717471524595" r="0.19492043316079696" fill="#d9b6b0" opacity="0.024907050791624304"></circle><circle cx="584.0644981055294" cy="153.0558419075871" r="0.5748905165495785" fill="#d9b6b0" opacity="0.031351520622170254"></circle><circle cx="1103.6460366706365" cy="45.172239642301015" r="0.5870809946396663" fill="#d9b6b0" opacity="0.03631710977141027"></circle><circle cx="1155.6696717091463" cy="410.6199541063103" r="0.6454029760607205" fill="#d9b6b0" opacity="0.00935197096050549"></circle><circle cx="1014.142017618101" cy="407.2773821120467" r="0.33945028862408266" fill="#d9b6b0" opacity="0.003975541568096658"></circle><circle cx="303.86844310489624" cy="427.9686560554664" r="0.6874837413882425" fill="#d9b6b0" opacity="0.0021943764718266533"></circle><circle cx="18.426716039453204" cy="55.42477631643257" r="0.5592519174680429" fill="#d9b6b0" opacity="0.0003898583540626555"></circle><circle cx="282.0598275621188" cy="650.8346893024153" r="0.6949048242199408" fill="#d9b6b0" opacity="0.039727870574903894"></circle><circle cx="605.7215859297306" cy="467.09519602571265" r="0.7404686067933681" fill="#d9b6b0" opacity="0.047764215543708466"></circle><circle cx="979.3427876987537" cy="627.0090065039916" r="0.7076899600252639" fill="#d9b6b0" opacity="0.031173577946300737"></circle><circle cx="984.1954591788121" cy="111.65675320722626" r="0.2679950729100879" fill="#d9b6b0" opacity="0.04573474953371681"></circle><circle cx="988.0472997426533" cy="116.85020803805895" r="0.7834621102389093" fill="#d9b6b0" opacity="0.039947623269672355"></circle><circle cx="1163.2200081264407" cy="591.0779411173497" r="0.37749106369725277" fill="#d9b6b0" opacity="0.012569400543350913"></circle><circle cx="453.4942249178397" cy="668.8001442233375" r="0.6037099167902692" fill="#d9b6b0" opacity="0.04550422434261542"></circle><circle cx="1096.3145602181985" cy="290.6140044841013" r="0.18695943701608864" fill="#d9b6b0" opacity="0.04637624066902808"></circle><circle cx="559.0308306421668" cy="116.28355555826069" r="0.31436527069658404" fill="#d9b6b0" opacity="0.01981863170203621"></circle><circle cx="1182.8156654649447" cy="7.8984661646361864" r="0.12192143245657983" fill="#d9b6b0" opacity="0.04213758662208586"></circle><circle cx="150.71176030018748" cy="459.4922492740205" r="0.4291299907712004" fill="#d9b6b0" opacity="0.017766888926981268"></circle><circle cx="531.2492065241015" cy="741.2805463299117" r="0.21807902226081943" fill="#d9b6b0" opacity="0.00936544037250212"></circle><circle cx="956.1136891903224" cy="437.7453743725823" r="0.6004405021544823" fill="#d9b6b0" opacity="0.04038438140011482"></circle><circle cx="574.4737454138304" cy="626.0771828018347" r="0.048134206859598905" fill="#d9b6b0" opacity="0.028788611720032577"></circle><circle cx="1192.4018898986646" cy="27.75358180451022" r="0.48730386442238083" fill="#d9b6b0" opacity="0.03333689515408747"></circle><circle cx="1111.360552550387" cy="278.0611183885541" r="0.31897133359783425" fill="#d9b6b0" opacity="0.029293635373679985"></circle><circle cx="1056.761912925111" cy="671.1854432916115" r="0.560590004203628" fill="#d9b6b0" opacity="0.04513107639495585"></circle><circle cx="956.1507477938028" cy="120.25120205451555" r="0.7615099993323219" fill="#d9b6b0" opacity="0.049295645560499465"></circle><circle cx="936.5829309971028" cy="343.63535588881024" r="0.6737308691946949" fill="#d9b6b0" opacity="0.011600785266991466"></circle><circle cx="1154.0872410368506" cy="338.983983701839" r="0.32901057788962396" fill="#d9b6b0" opacity="0.029791168026408694"></circle><circle cx="1190.1599688849728" cy="607.8324918379126" r="0.20309490995225962" fill="#d9b6b0" opacity="0.03319806033958584"></circle><circle cx="490.81764240235464" cy="187.89992378018593" r="0.2692196269593041" fill="#d9b6b0" opacity="0.043140755625182846"></circle><circle cx="183.72654292328878" cy="619.5147021400509" r="0.680890307081623" fill="#d9b6b0" opacity="0.029810980218305708"></circle><circle cx="741.1282359959372" cy="409.80439434292464" r="0.2667428551879382" fill="#d9b6b0" opacity="0.025649164263927354"></circle><circle cx="104.32306688780102" cy="28.722804125279477" r="0.6300744263224273" fill="#d9b6b0" opacity="0.0015941576396512004"></circle><circle cx="250.67739986640433" cy="24.028835677350457" r="0.3863819268271844" fill="#d9b6b0" opacity="0.028402441263458963"></circle><circle cx="963.1833001025664" cy="243.74466433860897" r="0.17118165110944467" fill="#d9b6b0" opacity="0.007028128001341023"></circle><circle cx="307.7575673129576" cy="471.4190019082022" r="0.3613249665554166" fill="#d9b6b0" opacity="0.004415376249589598"></circle><circle cx="1161.2860437991433" cy="690.602014999215" r="0.4517529572081731" fill="#d9b6b0" opacity="0.027334921239410545"></circle><circle cx="905.0438637068144" cy="434.78419409275847" r="0.43002860525038006" fill="#d9b6b0" opacity="0.04734746170646211"></circle><circle cx="729.6517850096149" cy="511.1886934939937" r="0.1860299898823482" fill="#d9b6b0" opacity="0.005675158163964716"></circle><circle cx="1176.615881853153" cy="189.1930220384836" r="0.6635980975145502" fill="#d9b6b0" opacity="0.041515739198124416"></circle><circle cx="1093.5570946852793" cy="302.8624254027469" r="0.4715437526720934" fill="#d9b6b0" opacity="0.00009293149906390852"></circle><circle cx="552.3839917871813" cy="305.2350922237292" r="0.09831281327572815" fill="#d9b6b0" opacity="0.026332263859097288"></circle><circle cx="37.50591810373201" cy="141.45119335906332" r="0.762976046890897" fill="#d9b6b0" opacity="0.02566914696270632"></circle><circle cx="914.3418499610711" cy="286.3478556300194" r="0.521923617103071" fill="#d9b6b0" opacity="0.03136594697590625"></circle><circle cx="271.8533625814828" cy="404.72370680064023" r="0.1376743452241569" fill="#d9b6b0" opacity="0.009097918962090569"></circle><circle cx="805.3178305306576" cy="35.56380652652322" r="0.40362709748595915" fill="#d9b6b0" opacity="0.010340823242422548"></circle><circle cx="503.2780902234755" cy="759.7103343108824" r="0.17914659290384388" fill="#d9b6b0" opacity="0.0349678362908604"></circle><circle cx="1083.4558599323952" cy="638.0530924800892" r="0.08457072166700766" fill="#d9b6b0" opacity="0.007121908051725701"></circle><circle cx="200.36028012677997" cy="247.46179845487424" r="0.15154438468639128" fill="#d9b6b0" opacity="0.012881381073159138"></circle>
    <rect width="1200" height="800" fill="url(#vg-09)"></rect>
    
    <g transform="translate(72, 64)">
      <text x="0" y="0" font-family="Playfair Display, serif" font-style="italic" font-size="30.4" fill="#d9b6b0">Le Bien</text>
      <line x1="0" y1="16" x2="112.00000000000001" y2="16" stroke="#d9b6b0" stroke-width="0.6" opacity="0.8"></line>
      <text x="0" y="35.199999999999996" font-family="Playfair Display, serif" font-style="italic" font-size="14.399999999999999" fill="#d9b6b0" letter-spacing="3">DÉCO</text>
    </g>
  
    
    <text x="1128" y="72" text-anchor="end" font-family="Playfair Display, serif" font-style="italic" font-size="40" fill="#d9b6b0" opacity="0.9">— 09</text>
  
    
    <g transform="translate(72, 720)">
      <text x="0" y="0" font-family="&#39;Courier New&#39;, monospace" font-size="12" fill="#d9b6b0" letter-spacing="3" opacity="0.7">[ OUTDOOR · RECEPTION ]</text>
      <text x="0" y="29.120000000000005" font-family="Playfair Display, serif" font-style="italic" font-size="22.400000000000002" fill="#f4f0e6">A garden, late August</text>
    </g>
  
  </svg>