<svg xmlns="http://www.w3.org/2000/svg" viewBox="0 0 900 1100" preserveAspectRatio="xMidYMid slice">
    <defs><radialGradient id="vg-10" cx="50%" cy="50%" r="65%"><stop offset="60%" stop-color="#f4f0e6" stop-opacity="0"></stop><stop offset="100%" stop-color="#f4f0e6" stop-opacity="0.55"></stop></radialGradient></defs>
    <rect width="900" height="1100" fill="#f4f0e6"></rect>
    <rect x="0" y="198" width="178" height="792" fill="#8a7240" opacity="0.1"></rect><rect x="180" y="198" width="178" height="792" fill="#8a7240" opacity="0.16"></rect><rect x="360" y="198" width="178" height="792" fill="#8a7240" opacity="0.22"></rect><rect x="540" y="198" width="178" height="792" fill="#8a7240" opacity="0.1"></rect><rect x="720" y="198" width="178" height="792" fill="#8a7240" opacity="0.16"></rect>
    <circle cx="559.5365270914951" cy="1031.700980849412" r="0.0850437485665828" fill="#8a7240" opacity="0.03342935144935498"></circle><circle cx="200.0222609105391" cy="421.82779932196047" r="0.5994118118762263" fill="#8a7240" opacity="0.045863237667250964"></circle><circle cx="80.40437003821833" cy="37.88723440718875" r="0.6951643118642917" fill="#8a7240" opacity="0.017418274389248044"></circle><circle cx="825.221159308977" cy="1042.6188408724433" r="0.33676105883061097" fill="#8a7240" opacity="0.015373934290900854"></circle><circle cx="482.2798747557415" cy="790.3310723990802" r="0.38816439007425213" fill="#8a7240" opacity="0.02263453771481452"></circle><circle cx="524.3327413577888" cy="761.3718234299838" r="0.21538266264842518" fill="#8a7240" opacity="0.030105197603486185"></circle><circle cx="466.68942220630635" cy="354.89798226527984" r="0.095436793633937" fill="#8a7240" opacity="0.04159064425624124"></circle><circle cx="129.28199660225454" cy="194.5769981932901" r="0.19953263004856867" fill="#8a7240" opacity="0.00007734948328745329"></circle><circle cx="386.97365884483327" cy="1083.4943184774072" r="0.053547044489160193" fill="#8a7240" opacity="0.01326630746355238"></circle><circle cx="597.3924785580751" cy="747.5168298460004" r="0.3554108553324633" fill="#8a7240" opacity="0.029924427309483078"></circle><circle cx="753.9474314373549" cy="862.8837231180387" r="0.7924786585329973" fill="#8a7240" opacity="0.00485753482716283"></circle><circle cx="346.6111180337296" cy="229.21442314346115" r="0.27268920112115985" fill="#8a7240" opacity="0.017852534574652756"></circle><circle cx="867.0718419650128" cy="589.5760250218926" r="0.5153615776777233" fill="#8a7240" opacity="0.013932860139388593"></circle><circle cx="889.8362059757761" cy="992.3446890651887" r="0.7763735835931521" fill="#8a7240" opacity="0.002441793423905503"></circle><circle cx="439.4576743046456" cy="900.1025547861481" r="0.39654457368395013" fill="#8a7240" opacity="0.04472044577306789"></circle><circle cx="211.65663536060225" cy="358.8775734429247" r="0.12026968585902109" fill="#8a7240" opacity="0.045967049722492374"></circle><circle cx="465.6572608401625" cy="38.23161356054936" r="0.21968853403088798" fill="#8a7240" opacity="0.035483744527489196"></circle><circle cx="133.31723682076498" cy="1054.994735615737" r="0.4509724860156258" fill="#8a7240" opacity="0.02403282598213102"></circle><circle cx="157.30247022300776" cy="699.2932540448123" r="0.46242486146456363" fill="#8a7240" opacity="0.040932109168287614"></circle><circle cx="127.44773137392671" cy="798.5427198589488" r="0.24367388165930787" fill="#8a7240" opacity="0.03400680501865833"></circle><circle cx="408.9199619637596" cy="934.8423765954161" r="0.763808590575109" fill="#8a7240" opacity="0.042439462211014266"></circle><circle cx="30.785984411011245" cy="292.71070693117673" r="0.4033184300445033" fill="#8a7240" opacity="0.01849261449548343"></circle><circle cx="670.9878860705188" cy="582.2469253089704" r="0.40136110008164705" fill="#8a7240" opacity="0.034239424995030465"></circle><circle cx="404.8981874083228" cy="410.09619173900563" r="0.4512737885505823" fill="#8a7240" opacity="0.0332459263632925"></circle><circle cx="725.0724173291273" cy="549.907342141148" r="0.18583864801280764" fill="#8a7240" opacity="0.001196123249021014"></circle><circle cx="507.01252465099657" cy="525.491885215143" r="0.18517099440024876" fill="#8a7240" opacity="0.041266506498899985"></circle><circle cx="80.6687767750122" cy="279.4395449958043" r="0.285169917651487" fill="#8a7240" opacity="0.03972915835496441"></circle><circle cx="521.4603127479313" cy="1068.5334271830773" r="0.7202472202024066" fill="#8a7240" opacity="0.026092471746620785"></circle><circle cx="367.936294013136" cy="1019.3640753082732" r="0.6343128765356739" fill="#8a7240" opacity="0.046739149522823153"></circle><circle cx="692.4645471658005" cy="216.8945760019571" r="0.31288136518122234" fill="#8a7240" opacity="0.036752655880242714"></circle><circle cx="98.99655455958352" cy="868.1714025648143" r="0.3136721452749866" fill="#8a7240" opacity="0.018417282496374792"></circle><circle cx="646.1088801866591" cy="912.5035179906059" r="0.7035815014274913" fill="#8a7240" opacity="0.039244531182930344"></circle><circle cx="515.6424820435075" cy="970.5459903401689" r="0.7331153525432323" fill="#8a7240" opacity="0.0025747836707054107"></circle><circle cx="717.9672287987179" cy="450.5940894442787" r="0.047949176585681035" fill="#8a7240" opacity="0.033224981921207604"></circle><circle cx="549.3725174329693" cy="524.0550542696694" r="0.687029170234986" fill="#8a7240" opacity="0.04407731017072341"></circle><circle cx="213.15764795520255" cy="381.1486017325325" r="0.7416726534082533" fill="#8a7240" opacity="0.022424966811330604"></circle><circle cx="208.84572143123972" cy="209.56839350883342" r="0.4345322645513706" fill="#8a7240" opacity="0.027278225505393158"></circle><circle cx="701.2599266244436" cy="1099.2821624046985" r="0.43852011710394195" fill="#8a7240" opacity="0.02100468336023921"></circle><circle cx="61.289460774373794" cy="29.55905986536006" r="0.6558683474764307" fill="#8a7240" opacity="0.018971189987656914"></circle><circle cx="286.7209811306205" cy="881.4742634363016" r="0.5156824500935646" fill="#8a7240" opacity="0.015296684629201552"></circle><circle cx="69.09010908411094" cy="843.8482646985565" r="0.4509933111851428" fill="#8a7240" opacity="0.040262311747103346"></circle><circle cx="266.3289843241963" cy="698.1470999698619" r="0.36739183893660626" fill="#8a7240" opacity="0.03859623788089383"></circle><circle cx="827.990028598095" cy="644.2858479716531" r="0.5966611904923881" fill="#8a7240" opacity="0.027934706725272096"></circle><circle cx="777.8981003205438" cy="1036.5427562445184" r="0.13765964802347136" fill="#8a7240" opacity="0.017099738941961318"></circle><circle cx="615.7720487697849" cy="533.8372312318943" r="0.2847174115561277" fill="#8a7240" opacity="0.04314052457900372"></circle><circle cx="362.11183132197874" cy="340.60409019895536" r="0.10221578760494775" fill="#8a7240" opacity="0.027094716001800707"></circle><circle cx="145.52949195131973" cy="300.77895878250325" r="0.03293228673429551" fill="#8a7240" opacity="0.02121542338484947"></circle><circle cx="373.98663571152554" cy="760.2935582127288" r="0.421934628353791" fill="#8a7240" opacity="0.009680209179723615"></circle><circle cx="66.34804443094173" cy="520.9307367586628" r="0.6814357265095062" fill="#8a7240" opacity="0.002583692679233418"></circle><circle cx="840.1979144706468" cy="299.7707052099044" r="0.21939402207765435" fill="#8a7240" opacity="0.011520757374326042"></circle><circle cx="141.55958491838715" cy="13.580596414785296" r="0.6915914544403501" fill="#8a7240" opacity="0.044106679967340676"></circle><circle cx="291.9839245417466" cy="92.57468255327102" r="0.44126317629215495" fill="#8a7240" opacity="0.018425655149085878"></circle><circle cx="147.33517735900227" cy="1051.8522426629327" r="0.29715427009482404" fill="#8a7240" opacity="0.010759085075388787"></circle><circle cx="177.19114883503624" cy="391.72361302803785" r="0.6261671660876684" fill="#8a7240" opacity="0.036534632414163555"></circle><circle cx="100.73077441930002" cy="412.89693501146394" r="0.7889121796864443" fill="#8a7240" opacity="0.028058898921279104"></circle><circle cx="621.3653555976852" cy="904.7328322195524" r="0.49475912883217155" fill="#8a7240" opacity="0.0028178778791332626"></circle><circle cx="27.586886496638062" cy="1025.1874538678185" r="0.4865909035877987" fill="#8a7240" opacity="0.014281044062164877"></circle><circle cx="698.6085156039549" cy="627.3670974054513" r="0.32933915774492545" fill="#8a7240" opacity="0.04975969210235011"></circle><circle cx="815.5220771294086" cy="990.3670086818129" r="0.5692301002725988" fill="#8a7240" opacity="0.004959768847570789"></circle><circle cx="590.5028673903594" cy="261.7586269424127" r="0.3837524035142266" fill="#8a7240" opacity="0.00691097431111789"></circle><circle cx="533.0844220029005" cy="593.7243358031303" r="0.12850548981809" fill="#8a7240" opacity="0.02331517692280849"></circle><circle cx="250.40137307975644" cy="848.8125893695017" r="0.5821047082497212" fill="#8a7240" opacity="0.0359617815210678"></circle><circle cx="649.812102277687" cy="261.4385483418742" r="0.455585763523123" fill="#8a7240" opacity="0.04588102860363839"></circle><circle cx="649.8494489265645" cy="1004.4599793659063" r="0.7782888203350397" fill="#8a7240" opacity="0.009699261872215826"></circle><circle cx="180.36229145353175" cy="986.6398049315341" r="0.5091660319330062" fill="#8a7240" opacity="0.047461337460840775"></circle><circle cx="510.63930379393867" cy="339.1401749574363" r="0.4621040134540659" fill="#8a7240" opacity="0.00589935851181912"></circle><circle cx="27.883764569162395" cy="944.4497849494915" r="0.5976689386487624" fill="#8a7240" opacity="0.012558702451458254"></circle><circle cx="842.3498394552553" cy="231.35808965609257" r="0.668701607084496" fill="#8a7240" opacity="0.0405970122731179"></circle><circle cx="138.80811964406274" cy="33.56221434148209" r="0.40757774046044304" fill="#8a7240" opacity="0.04158686764001785"></circle><circle cx="165.76752655646217" cy="470.3561343836481" r="0.04604798053075623" fill="#8a7240" opacity="0.04120248662810095"></circle><circle cx="670.8888153897791" cy="91.78634546559698" r="0.39393393156491074" fill="#8a7240" opacity="0.045583203322930615"></circle><circle cx="720.7026428512833" cy="106.10619886395695" r="0.5908774917401289" fill="#8a7240" opacity="0.009532273172900747"></circle><circle cx="49.87718647595389" cy="744.7482160883717" r="0.7107304797677987" fill="#8a7240" opacity="0.04107878869754832"></circle><circle cx="605.0184036897955" cy="350.40779687651076" r="0.23967577433504408" fill="#8a7240" opacity="0.03725011769139436"></circle><circle cx="42.53922956269716" cy="34.698272256298104" r="0.6522711145682434" fill="#8a7240" opacity="0.045872473698256755"></circle><circle cx="205.4149528388835" cy="757.3123026458165" r="0.531402902407987" fill="#8a7240" opacity="0.008876199917999211"></circle><circle cx="41.757309921303" cy="410.0559289108212" r="0.7666206966099396" fill="#8a7240" opacity="0.04093712112864285"></circle><circle cx="834.4831887340304" cy="337.3491656064558" r="0.0044076803079178715" fill="#8a7240" opacity="0.015017905323726578"></circle><circle cx="247.46752175572004" cy="501.50300271947395" r="0.7547034991195876" fill="#8a7240" opacity="0.038487298617947606"></circle><circle cx="823.7111993702443" cy="157.89900987244548" r="0.5536086534309584" fill="#8a7240" opacity="0.00862108096946188"></circle><circle cx="713.3850329951847" cy="62.65501144072062" r="0.2006938838621614" fill="#8a7240" opacity="0.03103714329743726"></circle><circle cx="547.8098383144725" cy="80.85593458569976" r="0.6071917125285577" fill="#8a7240" opacity="0.037402701005649075"></circle><circle cx="0.8600234808219254" cy="551.075629171792" r="0.03877825293528972" fill="#8a7240" opacity="0.020339245254782163"></circle><circle cx="127.67258894840562" cy="368.8682015018803" r="0.02514570598158157" fill="#8a7240" opacity="0.0321158255883672"></circle><circle cx="577.3729794172721" cy="447.6120293469362" r="0.6043207356022737" fill="#8a7240" opacity="0.006260446975256667"></circle><circle cx="562.8636801355946" cy="778.9965088558743" r="0.2957883637650662" fill="#8a7240" opacity="0.03969237874714839"></circle><circle cx="599.1279555918778" cy="576.1454523455525" r="0.49429981764646896" fill="#8a7240" opacity="0.0226143396392446"></circle><circle cx="676.289645197832" cy="1075.4297198018369" r="0.3947720317262798" fill="#8a7240" opacity="0.011820276337375325"></circle><circle cx="79.19411620127563" cy="1064.5458097107185" r="0.7964066395062739" fill="#8a7240" opacity="0.043823791435642655"></circle><circle cx="731.9885791796091" cy="991.4948534831915" r="0.21336315339895853" fill="#8a7240" opacity="0.04433915301899488"></circle><circle cx="15.964121721862256" cy="1040.5105723276988" r="0.549459574455249" fill="#8a7240" opacity="0.013546763923626854"></circle><circle cx="19.62201543529619" cy="136.53676687346143" r="0.5001794553610613" fill="#8a7240" opacity="0.002437887787078508"></circle><circle cx="524.1492558983853" cy="933.0561936268289" r="0.5247420655505934" fill="#8a7240" opacity="0.014750108582635025"></circle><circle cx="822.891775826777" cy="368.12338315080586" r="0.47341202940618166" fill="#8a7240" opacity="0.012636500623101427"></circle><circle cx="780.0899455735779" cy="1027.4332838363437" r="0.473099622752995" fill="#8a7240" opacity="0.023057143070205885"></circle><circle cx="579.6404045009297" cy="913.9009291637611" r="0.6509717585524135" fill="#8a7240" opacity="0.03181513979160281"></circle><circle cx="82.63456266706203" cy="168.4189700686317" r="0.788693584762146" fill="#8a7240" opacity="0.009753654041602278"></circle><circle cx="104.22870779040305" cy="360.4268583369225" r="0.4645945878987613" fill="#8a7240" opacity="0.021820895715695322"></circle><circle cx="713.5811291700068" cy="820.8566150476375" r="0.350637485137084" fill="#8a7240" opacity="0.04628574187127781"></circle><circle cx="331.8168309172864" cy="697.7309522858998" r="0.4479417128135767" fill="#8a7240" opacity="0.03277519207552338"></circle><circle cx="686.642271049271" cy="514.2132175349183" r="0.1266128287765568" fill="#8a7240" opacity="0.04710064680989451"></circle><circle cx="125.3873986547673" cy="72.62409176739926" r="0.23046916898557193" fill="#8a7240" opacity="0.03416759655602184"></circle><circle cx="876.3595378183653" cy="190.78753563731172" r="0.06287239825145266" fill="#8a7240" opacity="0.0482568327427861"></circle><circle cx="542.6399221789388" cy="59.531501691915835" r="0.14376701470419864" fill="#8a7240" opacity="0.0226158188859084"></circle><circle cx="321.7920220193834" cy="13.402687154801217" r="0.5366065040699443" fill="#8a7240" opacity="0.010789729251129476"></circle><circle cx="140.9035823851956" cy="523.1409287177538" r="0.35584217321164857" fill="#8a7240" opacity="0.001681340102111806"></circle><circle cx="666.1686561420769" cy="118.23127817318773" r="0.7475559639506036" fill="#8a7240" opacity="0.04877933026190327"></circle><circle cx="487.66331090091586" cy="508.6757691242081" r="0.6250920401361266" fill="#8a7240" opacity="0.023936367987336834"></circle><circle cx="110.35000699518844" cy="1056.005476204588" r="0.7748548351077884" fill="#8a7240" opacity="0.017394844282609567"></circle><circle cx="473.71449770977966" cy="656.6747546208345" r="0.6840846691574812" fill="#8a7240" opacity="0.01679768516485695"></circle><circle cx="795.9837704036095" cy="469.87469989812814" r="0.6052348050270293" fill="#8a7240" opacity="0.023929037292001777"></circle><circle cx="535.9903467083647" cy="399.13733948080613" r="0.12843775922227732" fill="#8a7240" opacity="0.0006941450490855872"></circle><circle cx="728.0913168379386" cy="547.5398393975147" r="0.6947976894647762" fill="#8a7240" opacity="0.041871908477854956"></circle><circle cx="415.15408072169834" cy="397.11582900679014" r="0.3168401245269542" fill="#8a7240" opacity="0.041057322843735505"></circle><circle cx="834.4822702265742" cy="382.8953523923314" r="0.2716627936116958" fill="#8a7240" opacity="0.04460049219421252"></circle><circle cx="489.2138967589943" cy="84.4771913167686" r="0.22956087551322135" fill="#8a7240" opacity="0.026312012575421297"></circle><circle cx="763.7924356381228" cy="691.2508580669474" r="0.30926982290902294" fill="#8a7240" opacity="0.03193946556567547"></circle><circle cx="797.7367438868687" cy="773.6152496405231" r="0.49931166512301267" fill="#8a7240" opacity="0.007129615725363182"></circle><circle cx="127.86311670784981" cy="283.1316134244004" r="0.2775343182698025" fill="#8a7240" opacity="0.019366985239534708"></circle><circle cx="368.618840423144" cy="1081.5419762495249" r="0.7350859252267992" fill="#8a7240" opacity="0.034591293274543404"></circle><circle cx="24.451393698301572" cy="541.5094043768314" r="0.4613242996475153" fill="#8a7240" opacity="0.026812401502871504"></circle><circle cx="839.3242717679143" cy="893.4339728575084" r="0.31522260743443564" fill="#8a7240" opacity="0.03718183139143553"></circle><circle cx="527.1753360021422" cy="678.7306469789669" r="0.6407086159671025" fill="#8a7240" opacity="0.038718574277705704"></circle><circle cx="466.5807172908379" cy="547.8251054329606" r="0.7835333823983035" fill="#8a7240" opacity="0.01068656622617032"></circle><circle cx="359.23054128756564" cy="397.0300358814215" r="0.04787942500965956" fill="#8a7240" opacity="0.043376622820011264"></circle><circle cx="180.40396663978433" cy="493.5977928187871" r="0.1778157198499608" fill="#8a7240" opacity="0.011823162237308655"></circle><circle cx="188.7345165437488" cy="468.9840075868139" r="0.3834536326068605" fill="#8a7240" opacity="0.039250327546947766"></circle><circle cx="446.4391191547069" cy="393.4185004370803" r="0.5009448782470998" fill="#8a7240" opacity="0.014716738335251795"></circle><circle cx="791.3483488706477" cy="34.35487855473788" r="0.33248894084945607" fill="#8a7240" opacity="0.009315884181276041"></circle><circle cx="128.9531661467791" cy="381.44356044721644" r="0.07351800112663734" fill="#8a7240" opacity="0.00871999073256628"></circle><circle cx="355.78186287869624" cy="900.741678374317" r="0.4426509328279631" fill="#8a7240" opacity="0.009307859362317079"></circle><circle cx="713.0404926111725" cy="435.01685442746714" r="0.33386160715346813" fill="#8a7240" opacity="0.00010111874615605365"></circle><circle cx="351.81593601628276" cy="1075.350490502842" r="0.2851108800430952" fill="#8a7240" opacity="0.03496784088054052"></circle><circle cx="351.5451308931453" cy="791.9070563834603" r="0.5270129364324866" fill="#8a7240" opacity="0.009228511174335879"></circle><circle cx="741.3054223266067" cy="644.9974412333542" r="0.11784435567952355" fill="#8a7240" opacity="0.008171722066303178"></circle><circle cx="230.36830949757496" cy="913.0122117227249" r="0.04811767207152471" fill="#8a7240" opacity="0.0015291576664671015"></circle><circle cx="453.727426598258" cy="716.9901105877583" r="0.32583768276797986" fill="#8a7240" opacity="0.0036044489376892254"></circle><circle cx="463.0346822916545" cy="184.3674223829486" r="0.21786834059023505" fill="#8a7240" opacity="0.0333245899572"></circle><circle cx="841.8553393929895" cy="300.82740779723457" r="0.5079087421350112" fill="#8a7240" opacity="0.019592338597181815"></circle><circle cx="729.8301365356903" cy="55.45973894728533" r="0.5412154852882752" fill="#8a7240" opacity="0.02903077574780166"></circle><circle cx="675.5050233619712" cy="70.1685160320262" r="0.5453134890417448" fill="#8a7240" opacity="0.012353458207151141"></circle><circle cx="798.4421440304832" cy="756.3372241812767" r="0.17652807992975347" fill="#8a7240" opacity="0.03625636207528371"></circle><circle cx="660.9103802130887" cy="550.4667591655971" r="0.6375754327167306" fill="#8a7240" opacity="0.0172329484415091"></circle><circle cx="840.5803450298362" cy="673.3262647674301" r="0.10936415984818337" fill="#8a7240" opacity="0.0037114170678886173"></circle><circle cx="704.1699926962021" cy="1050.2147338994705" r="0.7014188187062624" fill="#8a7240" opacity="0.017060693069706014"></circle><circle cx="201.7166808630097" cy="540.8937459243548" r="0.27891511591117596" fill="#8a7240" opacity="0.042915916457723365"></circle><circle cx="73.40194111908662" cy="500.43983125801924" r="0.07883713780291438" fill="#8a7240" opacity="0.022396736173155588"></circle><circle cx="16.29734093512448" cy="616.266391783571" r="0.5475151629374236" fill="#8a7240" opacity="0.005919903551044725"></circle><circle cx="351.02810495692086" cy="368.42499453905583" r="0.27440799682304046" fill="#8a7240" opacity="0.034527160012472524"></circle><circle cx="465.51595791114454" cy="73.79729817319406" r="0.020583297980133076" fill="#8a7240" opacity="0.02869763587430616"></circle><circle cx="608.9758018906354" cy="1033.0137433803886" r="0.7571406077011152" fill="#8a7240" opacity="0.01874888162304587"></circle><circle cx="30.628508936409027" cy="505.35359605116537" r="0.1127063955824978" fill="#8a7240" opacity="0.0267308034280481"></circle><circle cx="628.4880566022009" cy="544.6699893660659" r="0.12202717547355785" fill="#8a7240" opacity="0.023994411095941377"></circle><circle cx="590.0759333901296" cy="365.3904404577975" r="0.09369644420548413" fill="#8a7240" opacity="0.01647988363198556"></circle><circle cx="231.25234125990573" cy="744.1933305414453" r="0.6553426290090574" fill="#8a7240" opacity="0.007978499019125075"></circle><circle cx="788.722930053054" cy="489.71796562837415" r="0.6222791934175855" fill="#8a7240" opacity="0.04918201815226705"></circle><circle cx="164.060428279639" cy="1006.7815962899364" r="0.6316799955465113" fill="#8a7240" opacity="0.019136855038418527"></circle><circle cx="884.8370819076698" cy="741.6877336171752" r="0.18770223041630552" fill="#8a7240" opacity="0.0011813534576749997"></circle><circle cx="507.8219079399805" cy="1039.374775830811" r="0.080228772860682" fill="#8a7240" opacity="0.03175565289071227"></circle><circle cx="587.0050530172302" cy="917.6828144618631" r="0.23614417136687538" fill="#8a7240" opacity="0.04103568556850001"></circle><circle cx="454.01719582810597" cy="331.2105899006216" r="0.11971439248575147" fill="#8a7240" opacity="0.025690118713975054"></circle><circle cx="574.1207551537291" cy="186.49264872128663" r="0.7254468559575188" fill="#8a7240" opacity="0.010035589166739424"></circle><circle cx="446.7684897059509" cy="260.16170650250933" r="0.7610220234144844" fill="#8a7240" opacity="0.041394471306717764"></circle><circle cx="288.2498474289369" cy="53.61721915236715" r="0.08558193405384813" fill="#8a7240" opacity="0.0031344473736720224"></circle><circle cx="545.079224431104" cy="213.21348719681254" r="0.7274485414047769" fill="#8a7240" opacity="0.03718312397168397"></circle><circle cx="646.9840721612392" cy="382.5227226573308" r="0.3716596402976784" fill="#8a7240" opacity="0.027938875209586007"></circle><circle cx="633.0641565639262" cy="813.4045354767281" r="0.42160916444686614" fill="#8a7240" opacity="0.018248708824268055"></circle><circle cx="594.8255368372659" cy="480.4169112590628" r="0.5532858809240472" fill="#8a7240" opacity="0.002497088501354089"></circle><circle cx="243.54805503652875" cy="300.15876518615494" r="0.34705296104614636" fill="#8a7240" opacity="0.03934424295460005"></circle><circle cx="558.4993563991228" cy="993.0040289428578" r="0.310054646046729" fill="#8a7240" opacity="0.006299955313766909"></circle><circle cx="439.9323554568348" cy="95.52079623085376" r="0.7508974765670814" fill="#8a7240" opacity="0.021687297032938625"></circle><circle cx="858.368312551076" cy="10.550029526282023" r="0.537173973514815" fill="#8a7240" opacity="0.0014582893352995951"></circle><circle cx="482.305049821274" cy="912.656049323927" r="0.5667450272616427" fill="#8a7240" opacity="0.009191174668898816"></circle><circle cx="222.02336695066063" cy="535.3532030456975" r="0.33627688015685764" fill="#8a7240" opacity="0.04587992329289977"></circle><circle cx="513.1283554532424" cy="674.989249923283" r="0.14496389674262453" fill="#8a7240" opacity="0.01043969627136719"></circle><circle cx="29.25506904494617" cy="99.47207081569978" r="0.6609247420225657" fill="#8a7240" opacity="0.020718210429477513"></circle><circle cx="671.0272361873242" cy="953.6900780413931" r="0.7407761268432766" fill="#8a7240" opacity="0.035900191065702566"></circle><circle cx="371.45104007749694" cy="17.175723910223873" r="0.41723328710684016" fill="#8a7240" opacity="0.04640889530631848"></circle><circle cx="208.34376995919658" cy="477.62767549530315" r="0.6248154236762716" fill="#8a7240" opacity="0.04289796047708615"></circle><circle cx="669.9700553711584" cy="580.826470682259" r="0.23163352109848373" fill="#8a7240" opacity="0.019741829534056562"></circle><circle cx="471.1776943254601" cy="767.4514639968838" r="0.23657551971063295" fill="#8a7240" opacity="0.01657948335319769"></circle><circle cx="832.4850287762289" cy="96.15969033905574" r="0.1296470643345744" fill="#8a7240" opacity="0.04503299546395061"></circle><circle cx="700.7896516406701" cy="726.5534277310329" r="0.7846989247163427" fill="#8a7240" opacity="0.00433845678221349"></circle><circle cx="28.232296291105452" cy="189.2179250857209" r="0.4569381184250088" fill="#8a7240" opacity="0.01780355271050767"></circle><circle cx="430.8008002514801" cy="863.4906909773125" r="0.17953986035544942" fill="#8a7240" opacity="0.015484357580795999"></circle><circle cx="624.9355645367755" cy="864.34528133199" r="0.35494931724435114" fill="#8a7240" opacity="0.03537440255027499"></circle><circle cx="157.30952580733157" cy="800.8493976786839" r="0.7457724686657408" fill="#8a7240" opacity="0.04827578501768107"></circle><circle cx="33.21250736704753" cy="295.4208840722524" r="0.6145965073773767" fill="#8a7240" opacity="0.025954455247113074"></circle><circle cx="87.99304889617852" cy="113.31558501509265" r="0.7736910782825812" fill="#8a7240" opacity="0.014265963901799433"></circle><circle cx="669.5090877258782" cy="984.3930502283846" r="0.02791422075986514" fill="#8a7240" opacity="0.04303755291286685"></circle><circle cx="611.1690473377579" cy="519.5546885294917" r="0.3874857116237418" fill="#8a7240" opacity="0.035886086228865424"></circle><circle cx="771.5285051156208" cy="417.85165960103757" r="0.13613758896151937" fill="#8a7240" opacity="0.044789642723574837"></circle><circle cx="278.3461521611743" cy="675.8955874757859" r="0.6505245692846016" fill="#8a7240" opacity="0.032315983939698555"></circle><circle cx="631.3029350469286" cy="800.3356411966843" r="0.23979466183154843" fill="#8a7240" opacity="0.006010960698314228"></circle><circle cx="538.9497460456632" cy="538.2495531467711" r="0.4353592243367528" fill="#8a7240" opacity="0.006201714805134085"></circle><circle cx="287.2802777684206" cy="694.0624689292499" r="0.28881683140612785" fill="#8a7240" opacity="0.025049735810469542"></circle><circle cx="357.4621518567997" cy="151.7814196403387" r="0.22343296316060401" fill="#8a7240" opacity="0.03557136315043067"></circle><circle cx="316.2624720370888" cy="275.7011346954208" r="0.43251846877507866" fill="#8a7240" opacity="0.02127699911926821"></circle><circle cx="320.2870269759665" cy="484.63466836159444" r="0.7243003658362669" fill="#8a7240" opacity="0.038699240629561475"></circle><circle cx="394.439804730593" cy="277.48472582252225" r="0.19640212567844462" fill="#8a7240" opacity="0.023221791939457767"></circle>
    <rect width="900" height="1100" fill="url(#vg-10)"></rect>
    
    <g transform="translate(54, 88)">
      <text x="0" y="0" font-family="Playfair Display, serif" font-style="italic" font-size="34.199999999999996" fill="#8a7240">Le Bien</text>
      <line x1="0" y1="18" x2="126.00000000000001" y2="18" stroke="#8a7240" stroke-width="0.6" opacity="0.8"></line>
      <text x="0" y="39.599999999999994" font-family="Playfair Display, serif" font-style="italic" font-size="16.2" fill="#8a7240" letter-spacing="3">DÉCO</text>
    </g>
  
    
    <text x="846" y="99" text-anchor="end" font-family="Playfair Display, serif" font-style="italic" font-size="45" fill="#8a7240" opacity="0.9">— 10</text>
  
    
    <g transform="translate(54, 990)">
      <text x="0" y="0" font-family="&#39;Courier New&#39;, monospace" font-size="13.5" fill="#8a7240" letter-spacing="3" opacity="0.7">[ PÂTISSERIE · DETAIL ]</text>
      <text x="0" y="32.76" font-family="Playfair Display, serif" font-style="italic" font-size="25.2" fill="#3a3528">Three tiers, hand piped</text>
    </g>
  
  </svg>