<svg xmlns="http://www.w3.org/2000/svg" viewBox="0 0 900 1200" preserveAspectRatio="xMidYMid slice">
    <defs><radialGradient id="vg-11" cx="50%" cy="50%" r="65%"><stop offset="60%" stop-color="#141414" stop-opacity="0"></stop><stop offset="100%" stop-color="#141414" stop-opacity="0.55"></stop></radialGradient></defs>
    <rect width="900" height="1200" fill="#141414"></rect>
    
      <rect x="72" y="72" width="756" height="1056" fill="none" stroke="#c8a96a" stroke-width="0.6" opacity="0.5"></rect>
      <rect x="115.2" y="115.2" width="669.6" height="969.6" fill="none" stroke="#c8a96a" stroke-width="0.4" opacity="0.3"></rect>
    
    <circle cx="431.8704971239785" cy="455.1010008231796" r="0.4268170946599925" fill="#c8a96a" opacity="0.048361075276109"></circle><circle cx="496.28257649182984" cy="215.13936389170306" r="0.49061775345425496" fill="#c8a96a" opacity="0.0112769956557502"></circle><circle cx="495.952255363342" cy="638.7570915324499" r="0.12393816243919203" fill="#c8a96a" opacity="0.035408367114175006"></circle><circle cx="889.4963288414893" cy="3.897326191662165" r="0.3076870580727247" fill="#c8a96a" opacity="0.04361269785250936"></circle><circle cx="849.3403223684145" cy="1015.6722113761077" r="0.6519472511577811" fill="#c8a96a" opacity="0.03692769244385483"></circle><circle cx="63.46274183228059" cy="1106.9208410945216" r="0.7538358720466771" fill="#c8a96a" opacity="0.0359180998710999"></circle><circle cx="604.9986274065384" cy="136.67522313236802" r="0.5697181928003462" fill="#c8a96a" opacity="0.047964826958368255"></circle><circle cx="862.5027406823644" cy="822.3418681716524" r="0.6229282445229224" fill="#c8a96a" opacity="0.04086604541685759"></circle><circle cx="819.9420823129201" cy="58.48352153792562" r="0.6186049831149864" fill="#c8a96a" opacity="0.02255660765846239"></circle><circle cx="180.6867425351836" cy="815.1465084356149" r="0.31301374869854315" fill="#c8a96a" opacity="0.009123739776449424"></circle><circle cx="309.70721276945693" cy="255.5829121402942" r="0.05725576732716142" fill="#c8a96a" opacity="0.011172123968657788"></circle><circle cx="230.77408680715652" cy="1131.7947993190514" r="0.09838241915748283" fill="#c8a96a" opacity="0.013826174435076622"></circle><circle cx="521.292943356173" cy="854.3648867591653" r="0.5842957358825535" fill="#c8a96a" opacity="0.022822800647037463"></circle><circle cx="224.98803991157678" cy="167.1155911745603" r="0.19725030491797596" fill="#c8a96a" opacity="0.04815086506280237"></circle><circle cx="791.3593943777743" cy="407.55062133754734" r="0.29759444347876274" fill="#c8a96a" opacity="0.020188190765821602"></circle><circle cx="745.4609517421023" cy="598.8900376237337" r="0.29249489833747716" fill="#c8a96a" opacity="0.021024497157405245"></circle><circle cx="842.6587744010778" cy="310.79111764737394" r="0.42783329721220814" fill="#c8a96a" opacity="0.004945046796029778"></circle><circle cx="30.764236736353322" cy="610.8369104303905" r="0.5364790745145233" fill="#c8a96a" opacity="0.0385716400138724"></circle><circle cx="390.0653242279515" cy="540.6036044293496" r="0.27359491991175267" fill="#c8a96a" opacity="0.01429121745922028"></circle><circle cx="323.3193192374538" cy="744.6044572098817" r="0.600589990313873" fill="#c8a96a" opacity="0.030248966965246506"></circle><circle cx="690.8412238523368" cy="654.8195097247119" r="0.7856488066381455" fill="#c8a96a" opacity="0.03566566274488814"></circle><circle cx="321.69756473046056" cy="884.721408871808" r="0.383037075799334" fill="#c8a96a" opacity="0.023399450022333387"></circle><circle cx="564.076432812319" cy="480.9377085703471" r="0.5231087570163976" fill="#c8a96a" opacity="0.012994837999302945"></circle><circle cx="446.83436471022014" cy="362.823048710418" r="0.3193152994402321" fill="#c8a96a" opacity="0.004200017749978269"></circle><circle cx="393.0617713718007" cy="524.7399382630888" r="0.5337994295011377" fill="#c8a96a" opacity="0.040057483834363486"></circle><circle cx="779.849349344112" cy="1063.0794759485718" r="0.7603893092308474" fill="#c8a96a" opacity="0.021468790565912055"></circle><circle cx="145.63184489394274" cy="945.4723917010006" r="0.7701043390557115" fill="#c8a96a" opacity="0.00014626299990770365"></circle><circle cx="120.3010339693145" cy="50.86267066326986" r="0.4656129195818651" fill="#c8a96a" opacity="0.02467994065473111"></circle><circle cx="141.4501300024643" cy="867.5113772054467" r="0.5153525277333032" fill="#c8a96a" opacity="0.026382441242086576"></circle><circle cx="354.5239276460159" cy="1057.067157930469" r="0.6440853541940195" fill="#c8a96a" opacity="0.03069966548820348"></circle><circle cx="600.9126580076091" cy="1094.1830479733464" r="0.2625596625805434" fill="#c8a96a" opacity="0.0492625798652346"></circle><circle cx="549.5029824268721" cy="370.54013972536444" r="0.06456292948826406" fill="#c8a96a" opacity="0.0301783478541812"></circle><circle cx="327.25914576033426" cy="657.5808462953136" r="0.3118972609346405" fill="#c8a96a" opacity="0.030831174585653473"></circle><circle cx="734.280516041518" cy="154.49437313576536" r="0.49120456756484404" fill="#c8a96a" opacity="0.03235740099160068"></circle><circle cx="310.27056517911745" cy="647.00815856576" r="0.0024075333016034153" fill="#c8a96a" opacity="0.029882418416776826"></circle><circle cx="358.7885949544161" cy="1135.7979511399985" r="0.002166145461393487" fill="#c8a96a" opacity="0.026975509775496228"></circle><circle cx="182.49989254510376" cy="12.610714654914723" r="0.079497597632417" fill="#c8a96a" opacity="0.012970195238493088"></circle><circle cx="723.4584371228101" cy="816.5319648397198" r="0.3415568668301095" fill="#c8a96a" opacity="0.01755112644147403"></circle><circle cx="247.20368570148676" cy="174.25220689635879" r="0.12006409440665325" fill="#c8a96a" opacity="0.012320031180824021"></circle><circle cx="214.0483644770706" cy="23.286003984285976" r="0.7783488903471616" fill="#c8a96a" opacity="0.041895949874313713"></circle><circle cx="896.0254061081241" cy="424.6907887844938" r="0.6923090466632598" fill="#c8a96a" opacity="0.03902552861555447"></circle><circle cx="309.80806381959303" cy="875.7515550501003" r="0.5991654086981608" fill="#c8a96a" opacity="0.02811539147337577"></circle><circle cx="116.39502981032764" cy="1015.6115728386499" r="0.19286389903164558" fill="#c8a96a" opacity="0.013418114940046112"></circle><circle cx="628.2794375623155" cy="319.0309285970716" r="0.30223609782119853" fill="#c8a96a" opacity="0.04963897691351782"></circle><circle cx="813.4213817039998" cy="1061.1631444266218" r="0.281589641105016" fill="#c8a96a" opacity="0.02984190655842639"></circle><circle cx="824.3564028847849" cy="958.1598094976293" r="0.4376663618247334" fill="#c8a96a" opacity="0.008693460820841565"></circle><circle cx="539.94927818056" cy="649.0180667593181" r="0.5592996853675262" fill="#c8a96a" opacity="0.03042979516720446"></circle><circle cx="744.6342150289508" cy="227.11127829420872" r="0.32941302851685106" fill="#c8a96a" opacity="0.03255623760686246"></circle><circle cx="385.23377946234154" cy="646.8129263301832" r="0.5496291222008095" fill="#c8a96a" opacity="0.024743473699440972"></circle><circle cx="730.3117376987573" cy="1023.9164077073318" r="0.3446642299341762" fill="#c8a96a" opacity="0.01887545484964402"></circle><circle cx="151.07349519015358" cy="408.6625718615517" r="0.02108484114007041" fill="#c8a96a" opacity="0.046146081837249886"></circle><circle cx="398.1258009536212" cy="644.0378647310655" r="0.7110228806293915" fill="#c8a96a" opacity="0.017688757193469417"></circle><circle cx="610.9890509532038" cy="963.6962963610288" r="0.6816377289420069" fill="#c8a96a" opacity="0.02795341912805324"></circle><circle cx="294.5150923480394" cy="654.4044663948431" r="0.4358286517180373" fill="#c8a96a" opacity="0.048528206566969136"></circle><circle cx="295.51657998372735" cy="722.4229945674931" r="0.02412002153426318" fill="#c8a96a" opacity="0.01744662010372806"></circle><circle cx="178.72847267110137" cy="209.22264706244445" r="0.5912675633490012" fill="#c8a96a" opacity="0.007981561679705285"></circle><circle cx="196.41685359042043" cy="336.83012213020305" r="0.34576402931817474" fill="#c8a96a" opacity="0.0444570078702607"></circle><circle cx="667.2108276932399" cy="820.8158494733652" r="0.17111031573604782" fill="#c8a96a" opacity="0.011936105542481257"></circle><circle cx="815.2164058816271" cy="1117.1345810029102" r="0.6217792520183525" fill="#c8a96a" opacity="0.02993167789157078"></circle><circle cx="161.8904565275314" cy="1119.6180414880894" r="0.746769589131443" fill="#c8a96a" opacity="0.016715224985847755"></circle><circle cx="276.0732192428792" cy="692.4837331596406" r="0.6459411198279527" fill="#c8a96a" opacity="0.024229012451841933"></circle><circle cx="854.6296542725117" cy="879.4841438656562" r="0.27904438366512746" fill="#c8a96a" opacity="0.017659346787922452"></circle><circle cx="606.2513793806406" cy="983.0173737611976" r="0.4672218740874026" fill="#c8a96a" opacity="0.0379517919031359"></circle><circle cx="835.2167937281417" cy="779.1524621562464" r="0.4606816220240149" fill="#c8a96a" opacity="0.049575673510705846"></circle><circle cx="189.16402765971316" cy="365.71363239675753" r="0.05958881270747929" fill="#c8a96a" opacity="0.03620197148575009"></circle><circle cx="316.3867050066456" cy="87.48272468956979" r="0.5218963080395361" fill="#c8a96a" opacity="0.037141846171373165"></circle><circle cx="772.4672626755042" cy="79.8258770987005" r="0.4542318000494048" fill="#c8a96a" opacity="0.01885234192116347"></circle><circle cx="342.6480621132466" cy="674.9140871850932" r="0.47345548534500526" fill="#c8a96a" opacity="0.000541067024553682"></circle><circle cx="2.0468928977383616" cy="993.4908148642555" r="0.3378944781559751" fill="#c8a96a" opacity="0.01623153530115538"></circle><circle cx="510.25855871534475" cy="1106.0144583881229" r="0.21936663263975867" fill="#c8a96a" opacity="0.02698709256907519"></circle><circle cx="77.22972510722451" cy="1060.1411247428537" r="0.6312618247658391" fill="#c8a96a" opacity="0.040422766396684615"></circle><circle cx="116.86981625200853" cy="220.53750423522897" r="0.7196300303884283" fill="#c8a96a" opacity="0.025528765739574667"></circle><circle cx="368.252407008119" cy="455.5721947090081" r="0.54182038788948" fill="#c8a96a" opacity="0.03948383038011491"></circle><circle cx="480.51958595908906" cy="998.1456714465078" r="0.47481758974057897" fill="#c8a96a" opacity="0.014451667876076286"></circle><circle cx="63.1702736436643" cy="945.4603685106434" r="0.7604701771851463" fill="#c8a96a" opacity="0.0051984253555202205"></circle><circle cx="102.48431046144428" cy="204.7734322542338" r="0.08161907626113481" fill="#c8a96a" opacity="0.022479042098608112"></circle><circle cx="283.78137153121247" cy="1096.6485252651742" r="0.520862097546951" fill="#c8a96a" opacity="0.0019325661774834968"></circle><circle cx="771.3232319052236" cy="864.2969197341197" r="0.2978986243136372" fill="#c8a96a" opacity="0.0333272634822769"></circle><circle cx="817.7962588064992" cy="622.8557505726712" r="0.22812256114284085" fill="#c8a96a" opacity="0.01473651250523575"></circle><circle cx="124.36109001493737" cy="259.38940690144506" r="0.4373542278811144" fill="#c8a96a" opacity="0.04931667084732164"></circle><circle cx="121.25103281793874" cy="488.7292752544619" r="0.21133670886469622" fill="#c8a96a" opacity="0.019196024789457863"></circle><circle cx="752.4456306176961" cy="97.68525378950895" r="0.772529074517583" fill="#c8a96a" opacity="0.037619393347792573"></circle><circle cx="185.75757369927308" cy="99.92070638940795" r="0.3044558998219552" fill="#c8a96a" opacity="0.005742744765544811"></circle><circle cx="417.4032467997445" cy="312.40674030013895" r="0.6906650472781625" fill="#c8a96a" opacity="0.042599870270214564"></circle><circle cx="498.7420356285611" cy="106.01618990173489" r="0.20922949640951086" fill="#c8a96a" opacity="0.011975675471861659"></circle><circle cx="64.88992166218122" cy="712.8380650258031" r="0.520721065608883" fill="#c8a96a" opacity="0.00486390099165408"></circle><circle cx="65.4256896659528" cy="816.793524747053" r="0.6641073981770333" fill="#c8a96a" opacity="0.038751538838972505"></circle><circle cx="90.37068590390318" cy="565.560667652818" r="0.4205859059177286" fill="#c8a96a" opacity="0.006937091939588991"></circle><circle cx="153.9479810609847" cy="506.4149540481301" r="0.20797548212520933" fill="#c8a96a" opacity="0.007352177446657133"></circle><circle cx="279.45437349687415" cy="117.71191640071189" r="0.5163643761013647" fill="#c8a96a" opacity="0.009700118132463088"></circle><circle cx="352.8592709184754" cy="289.29662530972473" r="0.4902890463927705" fill="#c8a96a" opacity="0.04236059622366409"></circle><circle cx="804.8199258430329" cy="299.72177656615594" r="0.4967629655888606" fill="#c8a96a" opacity="0.040757570099271015"></circle><circle cx="793.1148492358152" cy="803.138942301365" r="0.2212261712390019" fill="#c8a96a" opacity="0.006133243719344067"></circle><circle cx="105.2936267256975" cy="951.9300293591183" r="0.6520541085517694" fill="#c8a96a" opacity="0.039379708377560656"></circle><circle cx="517.3591577106981" cy="401.3761394214574" r="0.2759319488586826" fill="#c8a96a" opacity="0.015567341143518921"></circle><circle cx="779.867825554995" cy="733.7769541973893" r="0.24827553639084066" fill="#c8a96a" opacity="0.010417453414850104"></circle><circle cx="229.77983810485014" cy="52.69918712512505" r="0.4842522689780707" fill="#c8a96a" opacity="0.02086956414509536"></circle><circle cx="316.7752723842946" cy="813.1650506824113" r="0.3295487485211228" fill="#c8a96a" opacity="0.030784451248000617"></circle><circle cx="359.5549540169606" cy="360.57864071504645" r="0.6689349112896821" fill="#c8a96a" opacity="0.043949286458005735"></circle><circle cx="632.8825697947939" cy="513.081075319184" r="0.25753952077425996" fill="#c8a96a" opacity="0.004347016984416108"></circle><circle cx="451.34455804483713" cy="1.1717890081719418" r="0.21261865937395888" fill="#c8a96a" opacity="0.035582015422613814"></circle><circle cx="423.3632009756131" cy="780.2114212671371" r="0.4889757687519349" fill="#c8a96a" opacity="0.04569637226084699"></circle><circle cx="194.6854767151579" cy="988.6994839576996" r="0.586715233308109" fill="#c8a96a" opacity="0.021484884697035935"></circle><circle cx="34.45908035002916" cy="1159.2897335906407" r="0.461842946231923" fill="#c8a96a" opacity="0.01648363899620422"></circle><circle cx="703.1052218007987" cy="701.6223448667133" r="0.6200648273275946" fill="#c8a96a" opacity="0.03303724789212553"></circle><circle cx="287.6945356795936" cy="456.29765182459425" r="0.4183775449649081" fill="#c8a96a" opacity="0.04307786654709366"></circle><circle cx="324.5889947896779" cy="1069.9857587960962" r="0.7313131937579129" fill="#c8a96a" opacity="0.024468019430141853"></circle><circle cx="820.9515013415834" cy="441.88384228288544" r="0.512696750160882" fill="#c8a96a" opacity="0.023385030542031268"></circle><circle cx="224.60265264550722" cy="636.1152294475754" r="0.5618472471729796" fill="#c8a96a" opacity="0.017866600686459132"></circle><circle cx="490.6971456942432" cy="114.16041632368055" r="0.2388570068982488" fill="#c8a96a" opacity="0.008299375478984655"></circle><circle cx="410.41376302108245" cy="675.3644664747114" r="0.3619032525812941" fill="#c8a96a" opacity="0.036619598971366324"></circle><circle cx="5.533801997424748" cy="896.4588419632132" r="0.3011452076281047" fill="#c8a96a" opacity="0.02077077181627504"></circle><circle cx="343.8131666965964" cy="414.2376943517062" r="0.49862114507099586" fill="#c8a96a" opacity="0.03807521181314257"></circle><circle cx="773.6595645156129" cy="776.8961255474977" r="0.5510742029807103" fill="#c8a96a" opacity="0.04440373720010754"></circle><circle cx="667.9839342368599" cy="350.0073283897012" r="0.0031059728291465308" fill="#c8a96a" opacity="0.0002723140388799839"></circle><circle cx="731.7738017856134" cy="17.650979936232947" r="0.6477084716217136" fill="#c8a96a" opacity="0.032195178259842076"></circle><circle cx="291.09740657410697" cy="338.77238313570047" r="0.24756900323622874" fill="#c8a96a" opacity="0.03962830146609144"></circle><circle cx="323.7610939781417" cy="1066.6946244661701" r="0.11683438790964713" fill="#c8a96a" opacity="0.038232514211021806"></circle><circle cx="726.319596824165" cy="1018.7964222459393" r="0.4487582672903374" fill="#c8a96a" opacity="0.00607067548419844"></circle><circle cx="839.9314334512416" cy="231.7813922385922" r="0.19895830066323736" fill="#c8a96a" opacity="0.027898022523580358"></circle><circle cx="616.7698188504207" cy="396.5466879387475" r="0.07064872369925466" fill="#c8a96a" opacity="0.048924077873639185"></circle><circle cx="698.5669621948846" cy="174.9246009920008" r="0.6360050621591072" fill="#c8a96a" opacity="0.03773626901176089"></circle><circle cx="769.4207322514236" cy="1059.529947521906" r="0.24973886282702865" fill="#c8a96a" opacity="0.029903140409832076"></circle><circle cx="829.8769088419548" cy="1116.2609365655424" r="0.145545928281809" fill="#c8a96a" opacity="0.007998716656237753"></circle><circle cx="510.1249977474041" cy="403.46906506878634" r="0.26187549137020943" fill="#c8a96a" opacity="0.04328669682061603"></circle><circle cx="318.17776216611963" cy="882.6985724841181" r="0.6200099126048698" fill="#c8a96a" opacity="0.005640363343002658"></circle><circle cx="10.982804854009043" cy="199.42971702666838" r="0.4006762836300136" fill="#c8a96a" opacity="0.03277697966782288"></circle><circle cx="30.93282992821206" cy="559.289783380988" r="0.21838248652442369" fill="#c8a96a" opacity="0.04782904820326433"></circle><circle cx="732.4495852540231" cy="987.6133786137503" r="0.24780905654040153" fill="#c8a96a" opacity="0.0272774163398282"></circle><circle cx="19.964670000135463" cy="686.2279188115417" r="0.5282509708563363" fill="#c8a96a" opacity="0.03195694435795254"></circle><circle cx="306.8551035348801" cy="544.3420537626566" r="0.3474654814815825" fill="#c8a96a" opacity="0.0011489560199981264"></circle><circle cx="212.4625092235733" cy="1098.1674254314473" r="0.7031022717395253" fill="#c8a96a" opacity="0.033011830265451535"></circle><circle cx="607.3150773283833" cy="437.2267160134654" r="0.20240978607660687" fill="#c8a96a" opacity="0.0469815966887473"></circle><circle cx="749.980627167676" cy="339.41075408414576" r="0.5357524725206314" fill="#c8a96a" opacity="0.004852521840054292"></circle><circle cx="53.763846364098896" cy="1121.5052834681815" r="0.3910383810578408" fill="#c8a96a" opacity="0.047920468898729245"></circle><circle cx="581.6706921609226" cy="273.861273172757" r="0.1278629675243889" fill="#c8a96a" opacity="0.005717670516682788"></circle><circle cx="83.46611886276197" cy="228.34936003240585" r="0.10803412863848667" fill="#c8a96a" opacity="0.010116626274509273"></circle><circle cx="60.15604727454939" cy="789.3805784161868" r="0.4549518542217701" fill="#c8a96a" opacity="0.01524751547060847"></circle><circle cx="632.1700201355878" cy="919.9564003422911" r="0.5508437515107037" fill="#c8a96a" opacity="0.014097435127957636"></circle><circle cx="375.89397676619035" cy="353.05547527731017" r="0.4849547603499616" fill="#c8a96a" opacity="0.01844360918773501"></circle><circle cx="251.99795103797769" cy="627.4829972659475" r="0.05095842522516217" fill="#c8a96a" opacity="0.008733378309712865"></circle><circle cx="762.4370959216692" cy="309.46207897439973" r="0.6904063745518065" fill="#c8a96a" opacity="0.04778972217082378"></circle><circle cx="0.47916642180148017" cy="880.7166061693623" r="0.29022794910474403" fill="#c8a96a" opacity="0.014646744215598518"></circle><circle cx="519.8979253123429" cy="483.6884078760321" r="0.043914393800438226" fill="#c8a96a" opacity="0.008102316575259139"></circle><circle cx="453.13518100284375" cy="787.8365007714235" r="0.7169667012060399" fill="#c8a96a" opacity="0.04109874165319778"></circle><circle cx="269.3111845057552" cy="650.3846249143766" r="0.20543451100792193" fill="#c8a96a" opacity="0.03285260531910122"></circle><circle cx="79.38395150781781" cy="806.6120209384263" r="0.7174874484636957" fill="#c8a96a" opacity="0.025517253440995244"></circle><circle cx="525.6529967464536" cy="1187.2126459989963" r="0.366318697702915" fill="#c8a96a" opacity="0.04098047984002548"></circle><circle cx="173.5792455513689" cy="1145.3816892819414" r="0.0964789975056041" fill="#c8a96a" opacity="0.0027265553260097833"></circle><circle cx="69.69207292311317" cy="336.9044412334932" r="0.23694532810123745" fill="#c8a96a" opacity="0.04828288528967848"></circle><circle cx="333.6740209544133" cy="784.4473956074165" r="0.5803242270895134" fill="#c8a96a" opacity="0.0009689102514019443"></circle><circle cx="750.9812371379477" cy="563.3021366888423" r="0.38909118993379893" fill="#c8a96a" opacity="0.01217935555657933"></circle><circle cx="746.5916901189308" cy="645.6195759917018" r="0.2813995774513323" fill="#c8a96a" opacity="0.04260505461556189"></circle><circle cx="526.1790332870029" cy="579.5663237993983" r="0.05318592998061016" fill="#c8a96a" opacity="0.00780568298486426"></circle><circle cx="462.3536393019125" cy="223.0447975493239" r="0.10387691674364136" fill="#c8a96a" opacity="0.026970604633830136"></circle><circle cx="148.86632293861558" cy="492.54141457599883" r="0.516033980100959" fill="#c8a96a" opacity="0.042302527382753"></circle><circle cx="4.851895617932422" cy="31.83776848114066" r="0.21424949371453517" fill="#c8a96a" opacity="0.007504493940373159"></circle><circle cx="283.7123007265324" cy="294.47884067675375" r="0.2870458214600503" fill="#c8a96a" opacity="0.03761501702442703"></circle><circle cx="467.6109953758893" cy="270.29364152287644" r="0.20866207411522214" fill="#c8a96a" opacity="0.027576986050356828"></circle><circle cx="883.1721631876405" cy="1011.9566103596246" r="0.059224579564680996" fill="#c8a96a" opacity="0.039971994580606546"></circle><circle cx="353.6738177466311" cy="278.8024872840676" r="0.5560376878506725" fill="#c8a96a" opacity="0.03970213138510406"></circle><circle cx="576.497154009085" cy="1019.92535542549" r="0.4211037328795472" fill="#c8a96a" opacity="0.03734943163439763"></circle><circle cx="612.4995451285371" cy="398.466428712018" r="0.03803972248468135" fill="#c8a96a" opacity="0.025801569483853256"></circle><circle cx="571.5958827595783" cy="104.95187489430138" r="0.33609665995508103" fill="#c8a96a" opacity="0.02038665970686279"></circle><circle cx="896.4452136105641" cy="38.202891002272565" r="0.554361453751438" fill="#c8a96a" opacity="0.03161063812133392"></circle><circle cx="104.20331681607398" cy="684.839937136135" r="0.5132868944715901" fill="#c8a96a" opacity="0.04215286844006333"></circle><circle cx="22.246897349367966" cy="790.4765512059301" r="0.537112810244435" fill="#c8a96a" opacity="0.03490211254205272"></circle><circle cx="148.4903494608939" cy="329.7562219079972" r="0.24624240004962897" fill="#c8a96a" opacity="0.02360971235178934"></circle><circle cx="38.900734898432354" cy="1197.119316851441" r="0.6329151308951201" fill="#c8a96a" opacity="0.011741557413921872"></circle><circle cx="489.7802571126738" cy="179.90170150719064" r="0.1533659093060732" fill="#c8a96a" opacity="0.015227104600858937"></circle><circle cx="812.5876907145158" cy="283.0026795939557" r="0.31108179704901806" fill="#c8a96a" opacity="0.04735742950172624"></circle><circle cx="551.0501837246725" cy="439.5567228088347" r="0.5732278786719871" fill="#c8a96a" opacity="0.014125996446261065"></circle><circle cx="55.82915512754325" cy="1104.9295105539675" r="0.725644747985825" fill="#c8a96a" opacity="0.038111115833821554"></circle><circle cx="642.6813814534638" cy="980.4287717249344" r="0.7773429526160387" fill="#c8a96a" opacity="0.020636127841197668"></circle><circle cx="357.1304417236883" cy="1021.1044002506649" r="0.43271847896961724" fill="#c8a96a" opacity="0.002565834727730948"></circle><circle cx="730.0723866084493" cy="32.80439779175701" r="0.4792466811730724" fill="#c8a96a" opacity="0.009143383825164964"></circle><circle cx="223.20749209265216" cy="777.1695495830397" r="0.18884724308691325" fill="#c8a96a" opacity="0.04204880146348502"></circle><circle cx="162.09928306113022" cy="922.8757997193" r="0.5223111213673425" fill="#c8a96a" opacity="0.022487780763193205"></circle><circle cx="400.7512838541222" cy="394.690046454502" r="0.5544139568519473" fill="#c8a96a" opacity="0.015801793059775925"></circle><circle cx="845.00396661328" cy="48.63975654678665" r="0.5790933965512536" fill="#c8a96a" opacity="0.035541260459809765"></circle><circle cx="21.254894856105565" cy="588.9711670088356" r="0.6954171809897307" fill="#c8a96a" opacity="0.03305461835864643"></circle><circle cx="661.4451824711067" cy="878.6650371189953" r="0.0075941040606251065" fill="#c8a96a" opacity="0.039584764190351084"></circle><circle cx="858.6619203896971" cy="743.2818280534605" r="0.17261044344207743" fill="#c8a96a" opacity="0.04563298414203207"></circle><circle cx="228.75409290730775" cy="339.39786685095225" r="0.7356282577157918" fill="#c8a96a" opacity="0.007846154392896076"></circle><circle cx="819.3129987618377" cy="657.6955333351087" r="0.5510980170341993" fill="#c8a96a" opacity="0.04154054929777382"></circle><circle cx="245.12119625092532" cy="1013.4410867822537" r="0.1035854164311405" fill="#c8a96a" opacity="0.012487052543700212"></circle><circle cx="414.0621714835726" cy="412.7557947089242" r="0.3843193618287953" fill="#c8a96a" opacity="0.024113183317971187"></circle><circle cx="233.0234285788559" cy="989.4919374388796" r="0.23964688028289088" fill="#c8a96a" opacity="0.04798661758898573"></circle><circle cx="103.49716059299038" cy="201.25537068744225" r="0.0011395622604482014" fill="#c8a96a" opacity="0.04678863224405959"></circle><circle cx="489.6592145107775" cy="873.5389566316962" r="0.3794233480138391" fill="#c8a96a" opacity="0.039313548308081675"></circle><circle cx="318.0154993520326" cy="825.1616662991978" r="0.03527658370695317" fill="#c8a96a" opacity="0.010424714672383446"></circle><circle cx="694.5992614892336" cy="23.33413844473813" r="0.3513431478189448" fill="#c8a96a" opacity="0.02915455325777735"></circle><circle cx="691.491946430729" cy="332.7768218986103" r="0.4042168613349552" fill="#c8a96a" opacity="0.026305202681460846"></circle><circle cx="526.2282129866624" cy="1168.7533272549945" r="0.6475837184480131" fill="#c8a96a" opacity="0.03836155497735488"></circle><circle cx="513.4418176686211" cy="711.2297515444895" r="0.7426644235738445" fill="#c8a96a" opacity="0.022734831400497563"></circle><circle cx="808.1540420131278" cy="942.868481760201" r="0.6937213877992968" fill="#c8a96a" opacity="0.04988553145515193"></circle><circle cx="468.73754836404913" cy="337.22938416400694" r="0.7521457620240938" fill="#c8a96a" opacity="0.025198202771801115"></circle><circle cx="748.030086340221" cy="969.5529693637479" r="0.4417779039794266" fill="#c8a96a" opacity="0.0002798931403098781"></circle><circle cx="793.2299031916452" cy="1024.5783863839742" r="0.3504132731574913" fill="#c8a96a" opacity="0.008768494628997715"></circle><circle cx="309.5116095960039" cy="1017.7276175282763" r="0.6524457278035035" fill="#c8a96a" opacity="0.02328208981847762"></circle>
    <rect width="900" height="1200" fill="url(#vg-11)"></rect>
    
    <g transform="translate(54, 96)">
      <text x="0" y="0" font-family="Playfair Display, serif" font-style="italic" font-size="34.199999999999996" fill="#c8a96a">Le Bien</text>
      <line x1="0" y1="18" x2="126.00000000000001" y2="18" stroke="#c8a96a" stroke-width="0.6" opacity="0.8"></line>
      <text x="0" y="39.599999999999994" font-family="Playfair Display, serif" font-style="italic" font-size="16.2" fill="#c8a96a" letter-spacing="3">DÉCO</text>
    </g>
  
    
    <text x="846" y="108" text-anchor="end" font-family="Playfair Display, serif" font-style="italic" font-size="45" fill="#c8a96a" opacity="0.9">— 11</text>
  
    
    <g transform="translate(54, 1080)">
      <text x="0" y="0" font-family="&#39;Courier New&#39;, monospace" font-size="13.5" fill="#c8a96a" letter-spacing="3" opacity="0.7">[ PORTRAIT · ATELIER ]</text>
      <text x="0" y="32.76" font-family="Playfair Display, serif" font-style="italic" font-size="25.2" fill="#cdc7b8">Mme Rosy, in the studio</text>
    </g>
  
  </svg>