<svg xmlns="http://www.w3.org/2000/svg" viewBox="0 0 1200 800" preserveAspectRatio="xMidYMid slice">
    <defs><radialGradient id="vg-13" cx="50%" cy="50%" r="65%"><stop offset="60%" stop-color="#141414" stop-opacity="0"></stop><stop offset="100%" stop-color="#141414" stop-opacity="0.55"></stop></radialGradient></defs>
    <rect width="1200" height="800" fill="#141414"></rect>
    <rect x="0" y="144" width="238" height="576" fill="#c8a96a" opacity="0.1"></rect><rect x="240" y="144" width="238" height="576" fill="#c8a96a" opacity="0.16"></rect><rect x="480" y="144" width="238" height="576" fill="#c8a96a" opacity="0.22"></rect><rect x="720" y="144" width="238" height="576" fill="#c8a96a" opacity="0.1"></rect><rect x="960" y="144" width="238" height="576" fill="#c8a96a" opacity="0.16"></rect>
    <circle cx="735.5196785064895" cy="467.9398271498081" r="0.2941561129858511" fill="#c8a96a" opacity="0.008178540377752942"></circle><circle cx="478.0155090239677" cy="118.7357761536453" r="0.6297060946072496" fill="#c8a96a" opacity="0.012501632154397214"></circle><circle cx="937.8862640388674" cy="578.1385596555812" r="0.7522411347186202" fill="#c8a96a" opacity="0.029534397285804904"></circle><circle cx="1055.4904040879749" cy="664.4138025933331" r="0.1689615468021291" fill="#c8a96a" opacity="0.011587772189491348"></circle><circle cx="1194.0266096051546" cy="303.83380583225846" r="0.10512945628106829" fill="#c8a96a" opacity="0.010610528845199097"></circle><circle cx="987.4029267249588" cy="105.94009960043084" r="0.3845093357290922" fill="#c8a96a" opacity="0.04359929286417801"></circle><circle cx="97.07126179209311" cy="451.38411038444957" r="0.08053308645175328" fill="#c8a96a" opacity="0.023173927849317183"></circle><circle cx="4.297307749987533" cy="432.0074081273606" r="0.24520952939615698" fill="#c8a96a" opacity="0.020536672253713084"></circle><circle cx="302.89621677941756" cy="614.3302026708502" r="0.16055428363530827" fill="#c8a96a" opacity="0.025296598271790732"></circle><circle cx="857.0063490541172" cy="516.2567555954201" r="0.15007641233021538" fill="#c8a96a" opacity="0.03825181291984925"></circle><circle cx="902.0485165231448" cy="52.48765229886443" r="0.5400478979735908" fill="#c8a96a" opacity="0.009986183236124675"></circle><circle cx="423.82497704533836" cy="529.5334334163887" r="0.7631733319459271" fill="#c8a96a" opacity="0.03433193231573225"></circle><circle cx="1098.037174800383" cy="316.202247433116" r="0.6945747924199861" fill="#c8a96a" opacity="0.04993771012794448"></circle><circle cx="325.8623401853741" cy="228.02781568238882" r="0.742842761331166" fill="#c8a96a" opacity="0.0008581854371622899"></circle><circle cx="433.49213083316005" cy="200.22991597321456" r="0.2158430213000851" fill="#c8a96a" opacity="0.026179423955626294"></circle><circle cx="1039.288383305056" cy="785.8347522404439" r="0.38754221305018466" fill="#c8a96a" opacity="0.02080469137515826"></circle><circle cx="509.98735737637713" cy="220.54535906586494" r="0.04244548880011454" fill="#c8a96a" opacity="0.03701066315376931"></circle><circle cx="358.9326897632931" cy="61.98259154044621" r="0.13004502143660304" fill="#c8a96a" opacity="0.015332291839383144"></circle><circle cx="154.01515739062992" cy="499.1020875686064" r="0.060988657050301855" fill="#c8a96a" opacity="0.006518233879434921"></circle><circle cx="813.2412133473507" cy="739.9008871487862" r="0.42798496272948283" fill="#c8a96a" opacity="0.04564709266642388"></circle><circle cx="843.0143756396626" cy="665.2023245402443" r="0.29806435307807755" fill="#c8a96a" opacity="0.0015102952899942457"></circle><circle cx="340.9576002199493" cy="534.651007458877" r="0.1766827544894346" fill="#c8a96a" opacity="0.02574642735173248"></circle><circle cx="598.8638631514856" cy="266.369881933241" r="0.5109123505700316" fill="#c8a96a" opacity="0.008457064001075126"></circle><circle cx="96.60079690707688" cy="621.933660542694" r="0.6753406868593964" fill="#c8a96a" opacity="0.008527917163620542"></circle><circle cx="176.92007232593147" cy="765.0964791860765" r="0.5801008339188986" fill="#c8a96a" opacity="0.03216240480222593"></circle><circle cx="606.944513329798" cy="639.4413054713383" r="0.6491732134158494" fill="#c8a96a" opacity="0.03985863754148474"></circle><circle cx="964.8898146126209" cy="696.8423482831848" r="0.07353916001053006" fill="#c8a96a" opacity="0.034721497241573"></circle><circle cx="1117.0209174333327" cy="377.21355359587943" r="0.41176653675842384" fill="#c8a96a" opacity="0.0004933476571686857"></circle><circle cx="797.4649181307417" cy="157.49306872600312" r="0.6841052348209561" fill="#c8a96a" opacity="0.029935760348146996"></circle><circle cx="243.61849429266448" cy="15.978183448065941" r="0.642344949884051" fill="#c8a96a" opacity="0.01090608505970141"></circle><circle cx="181.04578485749295" cy="665.1205919478926" r="0.253334436464015" fill="#c8a96a" opacity="0.01853022545637775"></circle><circle cx="291.62675915916554" cy="655.1772170490182" r="0.28519705228702225" fill="#c8a96a" opacity="0.031213629680258672"></circle><circle cx="594.8942821112835" cy="152.1968544970945" r="0.26512030248452056" fill="#c8a96a" opacity="0.039429474896176236"></circle><circle cx="730.9858688222532" cy="506.9909990590181" r="0.1117797967426582" fill="#c8a96a" opacity="0.038711650398538675"></circle><circle cx="457.38568863213334" cy="205.88909034106555" r="0.5164279681896174" fill="#c8a96a" opacity="0.0009874857917398338"></circle><circle cx="683.3444316045244" cy="168.40239498698253" r="0.7444424681760751" fill="#c8a96a" opacity="0.04868726580589559"></circle><circle cx="728.6954552756206" cy="447.24436437115946" r="0.48662324844391397" fill="#c8a96a" opacity="0.03703012873909453"></circle><circle cx="940.8465256071521" cy="432.36680040877087" r="0.3643977355344868" fill="#c8a96a" opacity="0.0468188408188217"></circle><circle cx="381.1439262861014" cy="686.9313723499242" r="0.2151287873822171" fill="#c8a96a" opacity="0.018961304558722206"></circle><circle cx="470.8831386506675" cy="128.51692674225737" r="0.5708707757261557" fill="#c8a96a" opacity="0.01794189097609397"></circle><circle cx="934.8853660411644" cy="647.864784168757" r="0.260782693158904" fill="#c8a96a" opacity="0.016779308436743634"></circle><circle cx="1061.8162930364244" cy="636.4724915710169" r="0.4814093407159752" fill="#c8a96a" opacity="0.04614766608525244"></circle><circle cx="935.8768621717041" cy="282.21659695633133" r="0.3033060024423632" fill="#c8a96a" opacity="0.038798083370578745"></circle><circle cx="298.5115629220888" cy="434.4606794380163" r="0.5540337942797473" fill="#c8a96a" opacity="0.009032978676468057"></circle><circle cx="1023.4867042575046" cy="25.950038448532453" r="0.023872200280191703" fill="#c8a96a" opacity="0.01650368485326643"></circle><circle cx="451.33150419908026" cy="222.79608417081772" r="0.044141879254464736" fill="#c8a96a" opacity="0.04690367408755508"></circle><circle cx="1160.60270058354" cy="99.95298106888893" r="0.052092561044704236" fill="#c8a96a" opacity="0.008096920158506294"></circle><circle cx="1072.0676087618203" cy="328.41217893754225" r="0.6660661163948244" fill="#c8a96a" opacity="0.018532489518462703"></circle><circle cx="683.5035010667867" cy="684.3934744768667" r="0.39415744136004094" fill="#c8a96a" opacity="0.025207532338411387"></circle><circle cx="484.7331920997445" cy="377.04959602445615" r="0.4810072327543684" fill="#c8a96a" opacity="0.013149375512944718"></circle><circle cx="575.9610008851906" cy="313.723366207176" r="0.5082170751352824" fill="#c8a96a" opacity="0.02275911138364511"></circle><circle cx="796.2377205972193" cy="426.29380405892385" r="0.34923873583143417" fill="#c8a96a" opacity="0.04927329967173115"></circle><circle cx="1044.197230932191" cy="119.52349981859136" r="0.402351780696302" fill="#c8a96a" opacity="0.028256939522434743"></circle><circle cx="129.78744270215907" cy="620.3500496221834" r="0.5352019319561928" fill="#c8a96a" opacity="0.04035897790799488"></circle><circle cx="441.9873156757852" cy="45.65005342724113" r="0.04130676953546404" fill="#c8a96a" opacity="0.03430047149280322"></circle><circle cx="1130.299195941649" cy="759.0808105986897" r="0.26444030658978307" fill="#c8a96a" opacity="0.040902384732718074"></circle><circle cx="976.5570108968807" cy="539.6739199253739" r="0.2289562623554665" fill="#c8a96a" opacity="0.01779433343245313"></circle><circle cx="980.3326334422038" cy="406.85880932995053" r="0.723181321244868" fill="#c8a96a" opacity="0.00039131986778255247"></circle><circle cx="874.7433722172673" cy="171.54631565903262" r="0.08049362842273614" fill="#c8a96a" opacity="0.005815173887362152"></circle><circle cx="692.7566080024211" cy="148.7867109344182" r="0.09416956801322085" fill="#c8a96a" opacity="0.014278730113199063"></circle><circle cx="1145.9178918249343" cy="370.58517849577333" r="0.34193068643073715" fill="#c8a96a" opacity="0.012200378053533452"></circle><circle cx="1183.0209987541239" cy="293.0653690783831" r="0.608963810827982" fill="#c8a96a" opacity="0.03782036815957407"></circle><circle cx="975.145937451762" cy="390.44384400323884" r="0.7721903539037974" fill="#c8a96a" opacity="0.02495573187681846"></circle><circle cx="1078.0110796983824" cy="680.280159627486" r="0.34638047548833895" fill="#c8a96a" opacity="0.006679875504945149"></circle><circle cx="119.53708606245996" cy="7.8895608995732225" r="0.6207821992743439" fill="#c8a96a" opacity="0.0009908155318606837"></circle><circle cx="81.96247093159243" cy="46.1041460624469" r="0.6646815093498124" fill="#c8a96a" opacity="0.013914868196027087"></circle><circle cx="290.4109628473093" cy="404.66051445089903" r="0.11480799827813178" fill="#c8a96a" opacity="0.03873758835459715"></circle><circle cx="755.4591176522194" cy="704.338382023657" r="0.7239981503996591" fill="#c8a96a" opacity="0.0009533703945866501"></circle><circle cx="128.143218569806" cy="499.7552623378712" r="0.2544601391651739" fill="#c8a96a" opacity="0.009400638905956432"></circle><circle cx="662.5567951909436" cy="581.4348581605418" r="0.030676136547484047" fill="#c8a96a" opacity="0.016018187679482498"></circle><circle cx="11.625584434530989" cy="780.1737464266793" r="0.07400549631182916" fill="#c8a96a" opacity="0.026113154918489007"></circle><circle cx="965.8695567222026" cy="395.4555668669131" r="0.38776742950058785" fill="#c8a96a" opacity="0.02669641103627382"></circle><circle cx="507.2837769349164" cy="499.81047386755154" r="0.37196347594826284" fill="#c8a96a" opacity="0.01800250143100347"></circle><circle cx="905.2075511844758" cy="291.78495609820783" r="0.03459943167930026" fill="#c8a96a" opacity="0.02844688975790002"></circle><circle cx="363.83848287979606" cy="394.2042120101964" r="0.7224388441201057" fill="#c8a96a" opacity="0.0005883256419442706"></circle><circle cx="441.918577755827" cy="219.05301628123678" r="0.5871996001035366" fill="#c8a96a" opacity="0.0456108302859946"></circle><circle cx="130.74530565873795" cy="621.8557966394415" r="0.23154908381205513" fill="#c8a96a" opacity="0.025040692158401785"></circle><circle cx="825.6003175192601" cy="54.97111032563424" r="0.45043954204720515" fill="#c8a96a" opacity="0.009824636129611965"></circle><circle cx="608.9195076306236" cy="171.2885950626032" r="0.19476886148002565" fill="#c8a96a" opacity="0.029873114511596084"></circle><circle cx="457.5774232004837" cy="356.3415614526344" r="0.4652266992182905" fill="#c8a96a" opacity="0.02153714289688536"></circle><circle cx="1184.8043292407785" cy="525.0218303866732" r="0.21012121142030102" fill="#c8a96a" opacity="0.015129517281725548"></circle><circle cx="224.75558110830693" cy="299.30997000456597" r="0.586917634296094" fill="#c8a96a" opacity="0.006101946606481568"></circle><circle cx="470.7604413855995" cy="1.5912766842805404" r="0.3469019111577679" fill="#c8a96a" opacity="0.0077184045915975"></circle><circle cx="762.2428994050161" cy="319.3153772771835" r="0.552477533686628" fill="#c8a96a" opacity="0.016876876814593652"></circle><circle cx="895.1113660189914" cy="658.6550808376008" r="0.09182270519689695" fill="#c8a96a" opacity="0.008968227430689469"></circle><circle cx="115.6497047153242" cy="332.6260088716697" r="0.2649298678997183" fill="#c8a96a" opacity="0.039286936137046535"></circle><circle cx="860.1102317583538" cy="468.8380629990175" r="0.040669887318122114" fill="#c8a96a" opacity="0.0049318408998686785"></circle><circle cx="252.59400858523372" cy="82.25889143073726" r="0.12252051988129607" fill="#c8a96a" opacity="0.02182903511259169"></circle><circle cx="1053.4099863847168" cy="653.8842559919424" r="0.39095385872194105" fill="#c8a96a" opacity="0.03815157395516029"></circle><circle cx="1020.638245442186" cy="25.17995337308454" r="0.5569464192364931" fill="#c8a96a" opacity="0.0439784520537145"></circle><circle cx="77.77231245476037" cy="156.12535409988152" r="0.5793972521701654" fill="#c8a96a" opacity="0.044723810756688034"></circle><circle cx="966.844815754392" cy="711.3844846114682" r="0.08194322470917773" fill="#c8a96a" opacity="0.02572234577652227"></circle><circle cx="507.3201638174781" cy="789.9167136299608" r="0.14880069600395382" fill="#c8a96a" opacity="0.001028995648344816"></circle><circle cx="895.6591176368647" cy="142.00730406895508" r="0.08756853685562219" fill="#c8a96a" opacity="0.036647633719861065"></circle><circle cx="974.1347284625888" cy="126.06577135566317" r="0.453196069414196" fill="#c8a96a" opacity="0.03468355437344486"></circle><circle cx="224.04199357926083" cy="395.9175104313229" r="0.18977890831378794" fill="#c8a96a" opacity="0.010102869049815728"></circle><circle cx="886.076727374542" cy="305.7564845392545" r="0.23416455020340907" fill="#c8a96a" opacity="0.012678246387377268"></circle><circle cx="197.63721880043863" cy="596.6274133593984" r="0.04541359328682422" fill="#c8a96a" opacity="0.00022911544514064852"></circle><circle cx="936.017012597038" cy="473.22724445838656" r="0.41882960599772867" fill="#c8a96a" opacity="0.03021847735798218"></circle><circle cx="260.73984891819737" cy="149.80605727849604" r="0.2725022439336911" fill="#c8a96a" opacity="0.010133838766972403"></circle><circle cx="55.54557206270925" cy="20.306951471770773" r="0.6933813198522597" fill="#c8a96a" opacity="0.024756274206332668"></circle><circle cx="1075.828275754221" cy="214.98416585863654" r="0.17861411184256176" fill="#c8a96a" opacity="0.04551428545124681"></circle><circle cx="83.41217644613272" cy="48.05310754045502" r="0.6459673230080485" fill="#c8a96a" opacity="0.0025598126876333893"></circle><circle cx="1069.485660037736" cy="352.37242234209623" r="0.6113437917153866" fill="#c8a96a" opacity="0.02407160941215063"></circle><circle cx="314.19988967929135" cy="353.95915901161527" r="0.7115643691538852" fill="#c8a96a" opacity="0.016519831973876364"></circle><circle cx="112.7755382640991" cy="4.417253358140272" r="0.4197138208773084" fill="#c8a96a" opacity="0.041361813564532675"></circle><circle cx="365.6576158997874" cy="604.3021339451639" r="0.7892810310520484" fill="#c8a96a" opacity="0.04990592152866082"></circle><circle cx="648.9132595107143" cy="650.7972514850932" r="0.10068785346303599" fill="#c8a96a" opacity="0.002499510270111538"></circle><circle cx="277.7862749958494" cy="122.58263108596896" r="0.7008849130289638" fill="#c8a96a" opacity="0.026820732287512486"></circle><circle cx="645.5071609477511" cy="471.3818987804773" r="0.29158013451940124" fill="#c8a96a" opacity="0.006100514000574032"></circle><circle cx="123.93141861545286" cy="767.2667482195058" r="0.18397957094329254" fill="#c8a96a" opacity="0.00028406279482677267"></circle><circle cx="101.99814415255358" cy="472.7357391390984" r="0.004900407763734283" fill="#c8a96a" opacity="0.031052087774113002"></circle><circle cx="901.982825631388" cy="750.9001431139511" r="0.3966026123433737" fill="#c8a96a" opacity="0.04990676373538965"></circle><circle cx="231.0317943432282" cy="344.48740318383517" r="0.5847124570620753" fill="#c8a96a" opacity="0.02705772068942925"></circle><circle cx="129.59712213460105" cy="676.7779080498674" r="0.4637484401141479" fill="#c8a96a" opacity="0.006864332208286895"></circle><circle cx="544.2541675195473" cy="437.67769819851867" r="0.6610548482835563" fill="#c8a96a" opacity="0.0035085370425127827"></circle><circle cx="317.9389126502943" cy="552.2184854033039" r="0.2752538722802096" fill="#c8a96a" opacity="0.035998732571808564"></circle><circle cx="549.2706806937545" cy="23.83810645759281" r="0.04424138210784437" fill="#c8a96a" opacity="0.028457490289554438"></circle><circle cx="676.2731667861008" cy="18.565556543261152" r="0.006657352872286904" fill="#c8a96a" opacity="0.020945618003466917"></circle><circle cx="1017.3203141043855" cy="467.99559890130587" r="0.17629284702863135" fill="#c8a96a" opacity="0.03480891253722356"></circle><circle cx="897.1308742228791" cy="660.5776571785646" r="0.469388247392885" fill="#c8a96a" opacity="0.0046001829872539925"></circle><circle cx="518.4545350761283" cy="778.1081564571158" r="0.12559226832866743" fill="#c8a96a" opacity="0.024255584250060032"></circle><circle cx="430.7471799758708" cy="735.0980809058533" r="0.08618903616713994" fill="#c8a96a" opacity="0.011945575867111119"></circle><circle cx="1098.789556839452" cy="309.8451293699823" r="0.04275499389211843" fill="#c8a96a" opacity="0.005954664478256744"></circle><circle cx="175.46970884194985" cy="186.98508483903655" r="0.17310694420881234" fill="#c8a96a" opacity="0.01168149860459098"></circle><circle cx="497.89116979865645" cy="611.5378941482825" r="0.11878564229867959" fill="#c8a96a" opacity="0.036515917801043025"></circle><circle cx="596.5259513030314" cy="441.1379065800688" r="0.3483316070114775" fill="#c8a96a" opacity="0.020689043225157362"></circle><circle cx="909.1354119182085" cy="698.3574362180909" r="0.578993572388469" fill="#c8a96a" opacity="0.048556537162679936"></circle><circle cx="1092.1009694366699" cy="480.44807039397324" r="0.479576102207921" fill="#c8a96a" opacity="0.01687953682732879"></circle><circle cx="257.28542471769964" cy="34.528770744089066" r="0.5379562586489114" fill="#c8a96a" opacity="0.04610752638049809"></circle><circle cx="76.79188517395347" cy="488.9749911018326" r="0.27902967659102923" fill="#c8a96a" opacity="0.022834579460976386"></circle><circle cx="874.3647153078301" cy="327.80932026243227" r="0.6422196504014264" fill="#c8a96a" opacity="0.028563689891297612"></circle><circle cx="753.3029236082003" cy="619.7088270352598" r="0.27413842766499635" fill="#c8a96a" opacity="0.024491732661147004"></circle><circle cx="226.50217571374847" cy="473.2380481389626" r="0.6463558585034289" fill="#c8a96a" opacity="0.00866470888550489"></circle><circle cx="1072.7327536810906" cy="134.19633411817964" r="0.7310012504682349" fill="#c8a96a" opacity="0.017182627110682976"></circle><circle cx="526.7249094448403" cy="547.5580727464707" r="0.527825816746939" fill="#c8a96a" opacity="0.039540786687332394"></circle><circle cx="874.8352272827635" cy="665.6342421338352" r="0.7602133606028822" fill="#c8a96a" opacity="0.008743417600663507"></circle><circle cx="24.668783565489292" cy="654.649756473745" r="0.05457423841150791" fill="#c8a96a" opacity="0.008258671888244607"></circle><circle cx="52.34512072922301" cy="696.7067695452625" r="0.48508164601034043" fill="#c8a96a" opacity="0.025115950255651467"></circle><circle cx="862.3623951798692" cy="312.1683908543308" r="0.5683588914612675" fill="#c8a96a" opacity="0.04712037789227993"></circle><circle cx="667.6885546746772" cy="165.6063647263287" r="0.4574151978640689" fill="#c8a96a" opacity="0.035817346861713804"></circle><circle cx="1196.152310986367" cy="148.92903254868645" r="0.13798103470330042" fill="#c8a96a" opacity="0.018409197911549224"></circle><circle cx="198.77658348817943" cy="633.6483004124104" r="0.761722930575024" fill="#c8a96a" opacity="0.020832072333979462"></circle><circle cx="1041.8334292222685" cy="101.61805937556511" r="0.7308772654633241" fill="#c8a96a" opacity="0.030785014239346365"></circle><circle cx="225.84018274959178" cy="289.3826328056526" r="0.5440586557331484" fill="#c8a96a" opacity="0.0206821506760356"></circle><circle cx="713.0477180885134" cy="336.2762635132535" r="0.7438849287734415" fill="#c8a96a" opacity="0.01746023946811338"></circle><circle cx="119.57320235089747" cy="214.517162379975" r="0.49942603173851" fill="#c8a96a" opacity="0.02436450493140645"></circle><circle cx="1081.669088918208" cy="117.38150266041521" r="0.511356395081233" fill="#c8a96a" opacity="0.04235878281308761"></circle><circle cx="957.575882531623" cy="726.9697261124551" r="0.391690480285296" fill="#c8a96a" opacity="0.009824558646457671"></circle><circle cx="865.2869207185988" cy="366.01828962665144" r="0.26179156872363746" fill="#c8a96a" opacity="0.04567786486101944"></circle><circle cx="953.4041713718697" cy="788.7557893534695" r="0.7238546645734771" fill="#c8a96a" opacity="0.021211067188188618"></circle><circle cx="703.8034653578995" cy="351.6563687523772" r="0.7990494589096441" fill="#c8a96a" opacity="0.0009294542840537157"></circle><circle cx="952.6059431989321" cy="138.65803700036076" r="0.5448033916058104" fill="#c8a96a" opacity="0.027112694647943476"></circle><circle cx="273.9153910505476" cy="752.9446837657094" r="0.2023274981379225" fill="#c8a96a" opacity="0.04959182929917175"></circle><circle cx="1034.3823756126383" cy="126.05318907319854" r="0.3472699089304585" fill="#c8a96a" opacity="0.018360816926686313"></circle><circle cx="590.739539727056" cy="482.4721804353339" r="0.1289853026730552" fill="#c8a96a" opacity="0.03448941190028532"></circle><circle cx="238.4656478300992" cy="403.8236613621175" r="0.13586083841524754" fill="#c8a96a" opacity="0.01370943104728949"></circle><circle cx="571.654681772333" cy="403.57701606955646" r="0.3537237726152534" fill="#c8a96a" opacity="0.030374982747264762"></circle><circle cx="927.9696707014722" cy="492.8631273276567" r="0.7394014494085946" fill="#c8a96a" opacity="0.046823080632725556"></circle><circle cx="670.013140713572" cy="632.532806243879" r="0.5118428557428794" fill="#c8a96a" opacity="0.02133446347472369"></circle><circle cx="1075.1560273011812" cy="601.5748774122766" r="0.019725067471756397" fill="#c8a96a" opacity="0.002604241098102339"></circle><circle cx="368.2366442679677" cy="649.0624004889621" r="0.1621307064394457" fill="#c8a96a" opacity="0.01541854100658795"></circle><circle cx="868.1305859149674" cy="61.97489815076756" r="0.4057337489846855" fill="#c8a96a" opacity="0.010780794760816982"></circle><circle cx="1097.8330647202968" cy="261.9950888976708" r="0.3845165571303566" fill="#c8a96a" opacity="0.03778009632894777"></circle><circle cx="75.66823396082802" cy="502.8335978493699" r="0.35653067619852374" fill="#c8a96a" opacity="0.00544031128919843"></circle><circle cx="281.5943449722853" cy="283.70983472499455" r="0.6224680511139904" fill="#c8a96a" opacity="0.0006675770272065396"></circle><circle cx="154.33574660885063" cy="118.55172795743351" r="0.5334122323691248" fill="#c8a96a" opacity="0.029641039598988336"></circle><circle cx="57.91470616124652" cy="487.7290821122276" r="0.04774985371826022" fill="#c8a96a" opacity="0.032667993297739034"></circle><circle cx="364.6432724936132" cy="85.2388557995897" r="0.6220943443659586" fill="#c8a96a" opacity="0.04098174222956781"></circle><circle cx="143.44898382734877" cy="793.574503496495" r="0.017396052843104838" fill="#c8a96a" opacity="0.017829279076775836"></circle><circle cx="979.715321366908" cy="250.35779684026923" r="0.5561534810426672" fill="#c8a96a" opacity="0.04927326537614327"></circle><circle cx="1022.3771717365923" cy="601.1663767444339" r="0.12473347088375641" fill="#c8a96a" opacity="0.0007776745521117179"></circle><circle cx="783.3817435016592" cy="366.8451019561181" r="0.7159279388206392" fill="#c8a96a" opacity="0.0171685090224877"></circle><circle cx="126.33950570501912" cy="213.2973197665475" r="0.654085341089054" fill="#c8a96a" opacity="0.04284646100267031"></circle><circle cx="1079.8690235406266" cy="444.8463899463484" r="0.04768217481818047" fill="#c8a96a" opacity="0.013948876981295722"></circle><circle cx="897.4317175636484" cy="275.2370475951186" r="0.1284083781636766" fill="#c8a96a" opacity="0.020412045347383057"></circle><circle cx="1046.05947688257" cy="292.35962290547997" r="0.23688618751451945" fill="#c8a96a" opacity="0.009952874561960829"></circle><circle cx="215.1421078228536" cy="391.50157027126136" r="0.6686181510054697" fill="#c8a96a" opacity="0.03939206867969354"></circle><circle cx="76.82488824137495" cy="140.7146549597007" r="0.012451061128552167" fill="#c8a96a" opacity="0.033581871236392204"></circle><circle cx="38.64442717918912" cy="478.82630959130915" r="0.7393931256142826" fill="#c8a96a" opacity="0.024446142867216872"></circle><circle cx="778.7378169754436" cy="659.0977140036271" r="0.1913508592925111" fill="#c8a96a" opacity="0.01463243740990921"></circle><circle cx="8.942983431947171" cy="585.6103883693612" r="0.3580067906689037" fill="#c8a96a" opacity="0.03877843061028758"></circle><circle cx="245.84979441689097" cy="659.3906473513883" r="0.16709656904840806" fill="#c8a96a" opacity="0.034665507334072955"></circle><circle cx="850.3561251222218" cy="390.56333636845426" r="0.7206713538535044" fill="#c8a96a" opacity="0.01185414761302176"></circle><circle cx="1141.5445058941666" cy="145.31770056662933" r="0.5735930936115657" fill="#c8a96a" opacity="0.027479612717255925"></circle><circle cx="17.463638585104626" cy="738.3752417746766" r="0.12065041151068599" fill="#c8a96a" opacity="0.0434928095996635"></circle><circle cx="761.0727055059643" cy="503.1051033867362" r="0.570002200552211" fill="#c8a96a" opacity="0.00063924820698264"></circle><circle cx="1197.5929783286974" cy="461.2793362311507" r="0.456465626539249" fill="#c8a96a" opacity="0.0322798988039952"></circle><circle cx="222.16352167107786" cy="708.6475628116602" r="0.685669335697931" fill="#c8a96a" opacity="0.009829665491772256"></circle><circle cx="1119.1198156394225" cy="371.9947501537467" r="0.6363524692558249" fill="#c8a96a" opacity="0.019733322046491232"></circle><circle cx="200.772796552795" cy="206.86020914560652" r="0.5163019604606535" fill="#c8a96a" opacity="0.031279842308179415"></circle><circle cx="146.00545328684706" cy="566.2895233262416" r="0.12313714683232391" fill="#c8a96a" opacity="0.03254890667013949"></circle><circle cx="117.59074675733268" cy="638.9807559695151" r="0.49406317890683477" fill="#c8a96a" opacity="0.01236516568342151"></circle><circle cx="141.75760576472805" cy="459.59029937076343" r="0.5980149825260032" fill="#c8a96a" opacity="0.020619644229818435"></circle><circle cx="313.2574889641257" cy="660.4399703833867" r="0.3125184616070721" fill="#c8a96a" opacity="0.03359647348187143"></circle><circle cx="1119.8425239745561" cy="102.1515714668567" r="0.5473204380906415" fill="#c8a96a" opacity="0.0368141476506176"></circle><circle cx="430.72840780581953" cy="612.9149329798786" r="0.2489425269613147" fill="#c8a96a" opacity="0.0383138486812197"></circle><circle cx="367.432105885339" cy="717.6886660786877" r="0.7895544430035173" fill="#c8a96a" opacity="0.0024025024218132574"></circle><circle cx="486.778222259697" cy="712.769273139071" r="0.06710754893085884" fill="#c8a96a" opacity="0.017602018843528047"></circle><circle cx="567.015990437182" cy="343.43086742240746" r="0.7950865784670756" fill="#c8a96a" opacity="0.006964966366784637"></circle>
    <rect width="1200" height="800" fill="url(#vg-13)"></rect>
    
    <g transform="translate(72, 64)">
      <text x="0" y="0" font-family="Playfair Display, serif" font-style="italic" font-size="30.4" fill="#c8a96a">Le Bien</text>
      <line x1="0" y1="16" x2="112.00000000000001" y2="16" stroke="#c8a96a" stroke-width="0.6" opacity="0.8"></line>
      <text x="0" y="35.199999999999996" font-family="Playfair Display, serif" font-style="italic" font-size="14.399999999999999" fill="#c8a96a" letter-spacing="3">DÉCO</text>
    </g>
  
    
    <text x="1128" y="72" text-anchor="end" font-family="Playfair Display, serif" font-style="italic" font-size="40" fill="#c8a96a" opacity="0.9">— 13</text>
  
    
    <g transform="translate(72, 720)">
      <text x="0" y="0" font-family="&#39;Courier New&#39;, monospace" font-size="12" fill="#c8a96a" letter-spacing="3" opacity="0.7">[ BEFORE · BARE ]</text>
      <text x="0" y="29.120000000000005" font-family="Playfair Display, serif" font-style="italic" font-size="22.400000000000002" fill="#cdc7b8">A blank room is a question</text>
    </g>
  
  </svg>