<svg xmlns="http://www.w3.org/2000/svg" viewBox="0 0 1200 800" preserveAspectRatio="xMidYMid slice">
    <defs><radialGradient id="vg-16" cx="50%" cy="50%" r="65%"><stop offset="60%" stop-color="#0a0a0a" stop-opacity="0"></stop><stop offset="100%" stop-color="#0a0a0a" stop-opacity="0.55"></stop></radialGradient></defs>
    <rect width="1200" height="800" fill="#0a0a0a"></rect>
    
      <path d="M 96 720 A 504 504 0 0 1 1104 720" fill="none" stroke="#c8a96a" stroke-width="1" opacity="0.5"></path>
      <path d="M 247.20000000000005 720 A 352.79999999999995 352.79999999999995 0 0 1 952.8 720" fill="none" stroke="#c8a96a" stroke-width="0.5" opacity="0.35"></path>
      <path d="M 373.2 720 A 226.8 226.8 0 0 1 826.8 720" fill="none" stroke="#c8a96a" stroke-width="0.5" opacity="0.25"></path>
    
    <circle cx="857.9382613551545" cy="119.77247614029736" r="0.1821769479680179" fill="#c8a96a" opacity="0.00035915930939559585"></circle><circle cx="653.3326539316103" cy="334.01917270517635" r="0.527749539679099" fill="#c8a96a" opacity="0.023374540910362996"></circle><circle cx="431.2287506447606" cy="146.03385835332983" r="0.1859378549335501" fill="#c8a96a" opacity="0.008705588434749906"></circle><circle cx="937.7644786694979" cy="115.26990138043098" r="0.3494146417888767" fill="#c8a96a" opacity="0.03179407362223257"></circle><circle cx="986.439889509309" cy="43.558490961034124" r="0.3777511381981161" fill="#c8a96a" opacity="0.00960558223843196"></circle><circle cx="361.6233828253051" cy="381.6808388366463" r="0.2011002522343368" fill="#c8a96a" opacity="0.02707167706723231"></circle><circle cx="565.2598493642274" cy="268.1277901599783" r="0.40858084795981564" fill="#c8a96a" opacity="0.035800877007141005"></circle><circle cx="1165.6429388458876" cy="283.71618631746117" r="0.09184973119646359" fill="#c8a96a" opacity="0.04536979133496878"></circle><circle cx="609.8928424392376" cy="95.66797863159442" r="0.7749343538628088" fill="#c8a96a" opacity="0.019003489800972814"></circle><circle cx="998.0081071721568" cy="146.3557804799007" r="0.7364723809860743" fill="#c8a96a" opacity="0.043865181220506096"></circle><circle cx="523.7548081125159" cy="278.75736580674896" r="0.1772663417236916" fill="#c8a96a" opacity="0.001221091191482504"></circle><circle cx="667.2030333697584" cy="295.4943025636316" r="0.7844480795037859" fill="#c8a96a" opacity="0.02693176880953564"></circle><circle cx="799.7376078475347" cy="314.43419601153374" r="0.7549406735040995" fill="#c8a96a" opacity="0.01673228242918954"></circle><circle cx="491.107342051674" cy="593.0297294145772" r="0.45575907180338104" fill="#c8a96a" opacity="0.04040465347382833"></circle><circle cx="79.10682628001986" cy="552.9892619871715" r="0.18318506611666585" fill="#c8a96a" opacity="0.0027305037817832722"></circle><circle cx="295.34389324098305" cy="693.16518798365" r="0.7258998597093818" fill="#c8a96a" opacity="0.0048853393769671795"></circle><circle cx="881.1550602950274" cy="591.4753816351331" r="0.11542690521570904" fill="#c8a96a" opacity="0.02907675383991958"></circle><circle cx="982.3203388377229" cy="309.37596217359084" r="0.6493214822022837" fill="#c8a96a" opacity="0.004908959290125342"></circle><circle cx="970.1140222015159" cy="396.55774569143836" r="0.15996889872490894" fill="#c8a96a" opacity="0.029576950199554437"></circle><circle cx="146.9866560146763" cy="360.0148987822927" r="0.4562988034143263" fill="#c8a96a" opacity="0.029103538529768876"></circle><circle cx="585.2828365483776" cy="763.3969264365431" r="0.7268496063341539" fill="#c8a96a" opacity="0.025266917496614097"></circle><circle cx="643.3117303262547" cy="443.8443742118351" r="0.40046153239177934" fill="#c8a96a" opacity="0.04759699101917625"></circle><circle cx="72.40428140260886" cy="230.16099411609792" r="0.13244978741586086" fill="#c8a96a" opacity="0.0016988078153709063"></circle><circle cx="1132.685259910325" cy="614.0897857704477" r="0.31423545863927216" fill="#c8a96a" opacity="0.02657910126990884"></circle><circle cx="675.5710854475965" cy="503.5490419383085" r="0.0545680052902843" fill="#c8a96a" opacity="0.03753637191585617"></circle><circle cx="594.9130565984624" cy="557.291789197266" r="0.1373187451014017" fill="#c8a96a" opacity="0.011184213513462488"></circle><circle cx="636.1521020404787" cy="433.69624749678815" r="0.7806830358712252" fill="#c8a96a" opacity="0.019361109092276115"></circle><circle cx="87.74783737838435" cy="795.0442176941139" r="0.20202862878887853" fill="#c8a96a" opacity="0.032891810548997064"></circle><circle cx="838.9199700533508" cy="722.0985783234842" r="0.659400617692349" fill="#c8a96a" opacity="0.009861769514673692"></circle><circle cx="1066.2185110293287" cy="566.4854063868637" r="0.6369120575560334" fill="#c8a96a" opacity="0.0048259319319252205"></circle><circle cx="119.48939215617989" cy="533.3276052520496" r="0.5141296242760434" fill="#c8a96a" opacity="0.04696705905640991"></circle><circle cx="188.57962700444105" cy="210.57712580089776" r="0.20324491383890164" fill="#c8a96a" opacity="0.04317991213016084"></circle><circle cx="894.4839674697376" cy="772.8067310800218" r="0.012992359629597062" fill="#c8a96a" opacity="0.007140683564370216"></circle><circle cx="516.950973427901" cy="514.9511678377478" r="0.2762919537338305" fill="#c8a96a" opacity="0.02525105628083954"></circle><circle cx="448.42955253616117" cy="49.56353287777038" r="0.47996686344709094" fill="#c8a96a" opacity="0.029226899613431404"></circle><circle cx="1052.2036155735225" cy="26.98066316356522" r="0.2507996470266511" fill="#c8a96a" opacity="0.03785615280025521"></circle><circle cx="1056.0093739912834" cy="282.7307741792614" r="0.515845792040061" fill="#c8a96a" opacity="0.005046571401004224"></circle><circle cx="326.4543318424631" cy="575.563649972941" r="0.15897939180442755" fill="#c8a96a" opacity="0.03544083999561965"></circle><circle cx="968.8672698956874" cy="202.2722391441845" r="0.360283470430813" fill="#c8a96a" opacity="0.0017100711773864687"></circle><circle cx="859.7365276257999" cy="321.3107079819916" r="0.3346001936001374" fill="#c8a96a" opacity="0.021778796499606942"></circle><circle cx="279.4952112236659" cy="697.2615312774711" r="0.3187260380049492" fill="#c8a96a" opacity="0.03324329174697167"></circle><circle cx="950.3825116142168" cy="588.0858048299905" r="0.5761203435086025" fill="#c8a96a" opacity="0.027318688862316705"></circle><circle cx="633.504181554838" cy="594.2539375894942" r="0.5760136125850898" fill="#c8a96a" opacity="0.03249324496611908"></circle><circle cx="699.7913146889904" cy="365.6109356753868" r="0.6499588905723107" fill="#c8a96a" opacity="0.017583900712796027"></circle><circle cx="103.64892251699342" cy="181.13264959214322" r="0.22666446248589517" fill="#c8a96a" opacity="0.04562223393113881"></circle><circle cx="511.01200056707347" cy="249.76510460460196" r="0.7829751999413851" fill="#c8a96a" opacity="0.041763900747498604"></circle><circle cx="611.7776374690682" cy="416.41818600040665" r="0.46766027832767576" fill="#c8a96a" opacity="0.0032629966429437054"></circle><circle cx="873.9409088110016" cy="244.34527323652856" r="0.4494965568750128" fill="#c8a96a" opacity="0.011135244541418378"></circle><circle cx="632.4332871963271" cy="543.9371704001366" r="0.6716687857476825" fill="#c8a96a" opacity="0.049321246761927694"></circle><circle cx="1063.8711342656204" cy="549.8624118095828" r="0.6038471265404532" fill="#c8a96a" opacity="0.033831294717801344"></circle><circle cx="513.8552430687787" cy="188.1819232130577" r="0.30049089731267425" fill="#c8a96a" opacity="0.019625590718770337"></circle><circle cx="1113.2799395166787" cy="629.6319725125265" r="0.3216295730567132" fill="#c8a96a" opacity="0.00666939307434824"></circle><circle cx="661.0168139881862" cy="88.30344328222841" r="0.6385560739658147" fill="#c8a96a" opacity="0.037462406227329687"></circle><circle cx="1036.7675668027036" cy="366.19361948630325" r="0.23419211932946926" fill="#c8a96a" opacity="0.0459259221647235"></circle><circle cx="7.971018087142179" cy="693.0616642950748" r="0.28739037499497827" fill="#c8a96a" opacity="0.001727123899878358"></circle><circle cx="861.3018072950767" cy="399.23256063711506" r="0.5835451166284574" fill="#c8a96a" opacity="0.025257860335433115"></circle><circle cx="1045.4417608982676" cy="485.83920009394774" r="0.19220909925536375" fill="#c8a96a" opacity="0.04329359073600572"></circle><circle cx="228.26792273833595" cy="474.50067742643984" r="0.11877128532590585" fill="#c8a96a" opacity="0.0043517200242689956"></circle><circle cx="134.99867259257715" cy="97.70270334404528" r="0.6710112976806901" fill="#c8a96a" opacity="0.01110018199834219"></circle><circle cx="1112.1788197499036" cy="467.403542583651" r="0.6779341634888278" fill="#c8a96a" opacity="0.03693495221198916"></circle><circle cx="444.05114130371135" cy="380.14496244422367" r="0.25520831821570406" fill="#c8a96a" opacity="0.022591021743322268"></circle><circle cx="1060.0433702809657" cy="711.4031155308771" r="0.7452114891115159" fill="#c8a96a" opacity="0.023117896715533284"></circle><circle cx="115.28112152156665" cy="539.4143066803431" r="0.013099712010784081" fill="#c8a96a" opacity="0.036141995303531786"></circle><circle cx="592.1461748376105" cy="64.1390385959153" r="0.0864677919425291" fill="#c8a96a" opacity="0.03528449939430906"></circle><circle cx="356.4693985159767" cy="302.74626255648326" r="0.3356963297007215" fill="#c8a96a" opacity="0.03761443313908889"></circle><circle cx="1085.0568912316926" cy="80.4791700828572" r="0.07667990856955216" fill="#c8a96a" opacity="0.014334868159154508"></circle><circle cx="618.0412156465114" cy="456.2040062504038" r="0.32265182543011434" fill="#c8a96a" opacity="0.03319139324185138"></circle><circle cx="938.3621013696724" cy="527.7182120331793" r="0.02302504975739126" fill="#c8a96a" opacity="0.03971805909858579"></circle><circle cx="427.76763871186097" cy="216.48385585288335" r="0.4316921593151946" fill="#c8a96a" opacity="0.018372338900098574"></circle><circle cx="746.0679604522705" cy="236.17324473248829" r="0.500776381793037" fill="#c8a96a" opacity="0.0025745676712336965"></circle><circle cx="578.0612167738408" cy="612.397631179909" r="0.3357495416020183" fill="#c8a96a" opacity="0.0285052237658382"></circle><circle cx="211.24600393724901" cy="606.4849767520012" r="0.34594456169417803" fill="#c8a96a" opacity="0.015110322979095137"></circle><circle cx="703.0139444689279" cy="681.3155720345296" r="0.21754245854277912" fill="#c8a96a" opacity="0.022515803396463488"></circle><circle cx="872.3788946270578" cy="443.7338855800492" r="0.599876864226924" fill="#c8a96a" opacity="0.02726157396964774"></circle><circle cx="660.7474070081167" cy="538.0437952054326" r="0.29629375929600904" fill="#c8a96a" opacity="0.04507031897396013"></circle><circle cx="171.71231870331556" cy="103.52391144637832" r="0.7731446249074211" fill="#c8a96a" opacity="0.004296521885356314"></circle><circle cx="561.4706547588373" cy="87.23976234489088" r="0.07013478809009169" fill="#c8a96a" opacity="0.0012734482994675612"></circle><circle cx="810.5818369385483" cy="350.96217027119206" r="0.4318477723040351" fill="#c8a96a" opacity="0.02783026386426495"></circle><circle cx="714.2703406076414" cy="283.35126003543394" r="0.03470399708112" fill="#c8a96a" opacity="0.03994954815393766"></circle><circle cx="492.94551475400925" cy="475.78223501690536" r="0.0014867838895364473" fill="#c8a96a" opacity="0.019540011981237816"></circle><circle cx="905.693526406349" cy="275.55379755544004" r="0.009938482977299845" fill="#c8a96a" opacity="0.03174456934289953"></circle><circle cx="1051.5422663199781" cy="405.47501890001644" r="0.19176963420715146" fill="#c8a96a" opacity="0.019810317862682437"></circle><circle cx="876.668873628316" cy="16.29150514724289" r="0.043228830904805365" fill="#c8a96a" opacity="0.043579735078869114"></circle><circle cx="434.3143994300794" cy="475.62657981680826" r="0.518078508316285" fill="#c8a96a" opacity="0.00351596010217326"></circle><circle cx="537.7634556061658" cy="165.7611922117784" r="0.16533855920326462" fill="#c8a96a" opacity="0.042546636098392585"></circle><circle cx="1187.4084728117236" cy="105.60837180569908" r="0.7166252378072846" fill="#c8a96a" opacity="0.0032393168003835462"></circle><circle cx="979.430060072399" cy="198.25625527093786" r="0.0677452890916551" fill="#c8a96a" opacity="0.016395315218372643"></circle><circle cx="919.8728766493274" cy="580.6962246231623" r="0.013372283687846665" fill="#c8a96a" opacity="0.002516291937256443"></circle><circle cx="938.1186387845823" cy="143.83825762876404" r="0.3717081587955859" fill="#c8a96a" opacity="0.00887647957041146"></circle><circle cx="54.83954093900088" cy="532.3160991176542" r="0.7664245688637625" fill="#c8a96a" opacity="0.0015911950442304092"></circle><circle cx="346.73706790479383" cy="223.6507392350015" r="0.08736156141926905" fill="#c8a96a" opacity="0.02088326628919776"></circle><circle cx="520.6769762228074" cy="532.8233935969585" r="0.49854852143283196" fill="#c8a96a" opacity="0.012219932358918401"></circle><circle cx="931.0515887276198" cy="36.09442506296627" r="0.26726475410512185" fill="#c8a96a" opacity="0.007860844646896693"></circle><circle cx="442.46501624168724" cy="386.7149105739988" r="0.767476579274174" fill="#c8a96a" opacity="0.020681380851942117"></circle><circle cx="342.45968121801343" cy="500.6642107198526" r="0.46063082357794616" fill="#c8a96a" opacity="0.00367477607506882"></circle><circle cx="182.26172034031399" cy="665.949701874626" r="0.7252458796387508" fill="#c8a96a" opacity="0.0275245932437029"></circle><circle cx="85.9559439882029" cy="5.893946988036802" r="0.1520789857403873" fill="#c8a96a" opacity="0.030000389077643172"></circle><circle cx="490.63482299526703" cy="756.6475999317677" r="0.798984088672134" fill="#c8a96a" opacity="0.03181261656179702"></circle><circle cx="872.3293423792867" cy="545.8006756131452" r="0.488101086087557" fill="#c8a96a" opacity="0.0008479303401952688"></circle><circle cx="183.61319361579777" cy="310.2814434480675" r="0.11102103242711073" fill="#c8a96a" opacity="0.016577730056793683"></circle><circle cx="1030.482895774522" cy="728.1293235854073" r="0.5923850721127936" fill="#c8a96a" opacity="0.02172543046362632"></circle><circle cx="72.6663540078873" cy="648.1214224786803" r="0.010066448083702096" fill="#c8a96a" opacity="0.02438394294386985"></circle><circle cx="1101.1474451405732" cy="496.73994224934273" r="0.4955908690762454" fill="#c8a96a" opacity="0.02787123649745908"></circle><circle cx="162.5509960443317" cy="706.5767011880043" r="0.5538778133475966" fill="#c8a96a" opacity="0.013318539923910739"></circle><circle cx="1137.4506470177075" cy="783.3720906536852" r="0.7361352099009807" fill="#c8a96a" opacity="0.013280868271506763"></circle><circle cx="876.6620129801752" cy="735.4034982016725" r="0.01601937598258543" fill="#c8a96a" opacity="0.04706625437403458"></circle><circle cx="1100.673867924509" cy="361.0282332358463" r="0.18732196808167983" fill="#c8a96a" opacity="0.042148172493800484"></circle><circle cx="999.498701675685" cy="403.0202461318364" r="0.43544179299758623" fill="#c8a96a" opacity="0.030988176617130398"></circle><circle cx="817.3410599958131" cy="372.2131808651664" r="0.4544784550424818" fill="#c8a96a" opacity="0.04635072799616091"></circle><circle cx="1118.7560008147095" cy="261.8027249638919" r="0.023621328388947482" fill="#c8a96a" opacity="0.0028298472088068016"></circle><circle cx="357.8517060333825" cy="45.20319081558996" r="0.557694929962839" fill="#c8a96a" opacity="0.04729468725026291"></circle><circle cx="1198.3374239994862" cy="706.7639517290003" r="0.36385216194000036" fill="#c8a96a" opacity="0.04905376690718949"></circle><circle cx="807.6049560536604" cy="486.5335544763252" r="0.0010757539148528396" fill="#c8a96a" opacity="0.004459204098604586"></circle><circle cx="395.0530284757614" cy="736.8308729363639" r="0.048251673601140604" fill="#c8a96a" opacity="0.004067223911472607"></circle><circle cx="456.1144686448273" cy="421.51172255500535" r="0.5202853684685359" fill="#c8a96a" opacity="0.029994269322707285"></circle><circle cx="1182.6066729459353" cy="78.98915170374438" r="0.27419076329235476" fill="#c8a96a" opacity="0.04455956614887533"></circle><circle cx="876.4114477418499" cy="191.0854959342876" r="0.42221088608208596" fill="#c8a96a" opacity="0.03945914208800448"></circle><circle cx="480.6624928756556" cy="209.00865592881982" r="0.6749429690239751" fill="#c8a96a" opacity="0.011840991129525968"></circle><circle cx="77.38292583880377" cy="74.31672666152016" r="0.10004083803283335" fill="#c8a96a" opacity="0.022421047590649112"></circle><circle cx="433.7296629819549" cy="86.94651950364386" r="0.7171583929244666" fill="#c8a96a" opacity="0.022050979069623385"></circle><circle cx="233.9609219783259" cy="623.6352046883866" r="0.6281502647858768" fill="#c8a96a" opacity="0.015844227753270917"></circle><circle cx="436.2875711893414" cy="425.71816950661514" r="0.22116738701617378" fill="#c8a96a" opacity="0.004944523266251305"></circle><circle cx="451.78952622034024" cy="688.5527772735554" r="0.364254668437713" fill="#c8a96a" opacity="0.005390504127867452"></circle><circle cx="8.741770013621375" cy="369.2761838013379" r="0.32253266681251613" fill="#c8a96a" opacity="0.03390803156789792"></circle><circle cx="354.2954910727117" cy="87.00470993333775" r="0.6927529255104719" fill="#c8a96a" opacity="0.04646709887470842"></circle><circle cx="693.293313586155" cy="22.59947108493412" r="0.48919818729965714" fill="#c8a96a" opacity="0.005324223497425357"></circle><circle cx="1177.2971361269915" cy="94.08013598682396" r="0.06484289245716983" fill="#c8a96a" opacity="0.03710360096707508"></circle><circle cx="268.9581065851969" cy="490.90660803403284" r="0.6032687555219556" fill="#c8a96a" opacity="0.04326888784878288"></circle><circle cx="318.475358309504" cy="165.95117503739036" r="0.20667813610292962" fill="#c8a96a" opacity="0.01188364811084779"></circle><circle cx="760.9775797174475" cy="179.20816683516244" r="0.6129896456941414" fill="#c8a96a" opacity="0.0003286274353417995"></circle><circle cx="192.07078558492054" cy="644.5875790113967" r="0.5813895273025871" fill="#c8a96a" opacity="0.008548973500573721"></circle><circle cx="1054.5283998777018" cy="88.64768553161903" r="0.640036267540461" fill="#c8a96a" opacity="0.04522222417654839"></circle><circle cx="12.912355381968643" cy="137.05978947165082" r="0.5214671590417992" fill="#c8a96a" opacity="0.0212791976066121"></circle><circle cx="810.1908910928627" cy="355.14509109831647" r="0.6788962529753272" fill="#c8a96a" opacity="0.022536807966527447"></circle><circle cx="1175.7188740669012" cy="182.53329355630123" r="0.32512058702139335" fill="#c8a96a" opacity="0.028556316613588498"></circle><circle cx="335.32517237647124" cy="56.952058217527494" r="0.41342760618405383" fill="#c8a96a" opacity="0.04616032039616105"></circle><circle cx="612.9689052352211" cy="449.0620647585744" r="0.7000232745181053" fill="#c8a96a" opacity="0.029821263058663977"></circle><circle cx="509.7073428677243" cy="205.47546662738102" r="0.4138945402847835" fill="#c8a96a" opacity="0.042693468747040345"></circle><circle cx="833.1721031418859" cy="188.92444193821945" r="0.5097300435074921" fill="#c8a96a" opacity="0.04210210034713106"></circle><circle cx="136.55392985385083" cy="595.6038210451877" r="0.104957437562173" fill="#c8a96a" opacity="0.005925223309182198"></circle><circle cx="1046.0082841867122" cy="552.776247303501" r="0.1662808993720445" fill="#c8a96a" opacity="0.04260520128727231"></circle><circle cx="880.0378165329683" cy="659.7258625628773" r="0.37781804745320713" fill="#c8a96a" opacity="0.013388725352246979"></circle><circle cx="212.72980662464676" cy="188.76908538667809" r="0.5329847675396076" fill="#c8a96a" opacity="0.03233328590486004"></circle><circle cx="1088.055594520792" cy="621.8016131248571" r="0.22953019569417057" fill="#c8a96a" opacity="0.031695758302422515"></circle><circle cx="453.55023894893884" cy="519.9107975330112" r="0.13555739940776387" fill="#c8a96a" opacity="0.0069068349523681355"></circle><circle cx="35.25566131518669" cy="748.8692296622551" r="0.5040449416868314" fill="#c8a96a" opacity="0.027872347204106803"></circle><circle cx="628.6057282471193" cy="748.8285988698011" r="0.002097180523725584" fill="#c8a96a" opacity="0.045343441705614544"></circle><circle cx="586.1475826561319" cy="440.46707225519714" r="0.2971096816765206" fill="#c8a96a" opacity="0.03823300040388064"></circle><circle cx="265.7224528430009" cy="555.7886372622247" r="0.7471939599837858" fill="#c8a96a" opacity="0.03511771218679159"></circle><circle cx="929.7796720101308" cy="118.79243401154893" r="0.4434423080727341" fill="#c8a96a" opacity="0.02704253126161324"></circle><circle cx="276.33072173871744" cy="657.1092002903287" r="0.5142106209779026" fill="#c8a96a" opacity="0.027099673273709254"></circle><circle cx="73.4059394573308" cy="66.4875568379002" r="0.5077219610027878" fill="#c8a96a" opacity="0.0427820288220202"></circle><circle cx="634.1784621403806" cy="239.11489221376348" r="0.05036403430274881" fill="#c8a96a" opacity="0.01708636614198742"></circle><circle cx="438.0548324221838" cy="524.346698008928" r="0.3719180123133839" fill="#c8a96a" opacity="0.04413334138932626"></circle><circle cx="527.2115698798691" cy="84.63626673197693" r="0.05965303395981554" fill="#c8a96a" opacity="0.013303128534238118"></circle><circle cx="211.99222257895252" cy="0.6524171599754602" r="0.16000839482349366" fill="#c8a96a" opacity="0.029512079902346507"></circle><circle cx="745.8948271917964" cy="677.0811250830429" r="0.41993800880190246" fill="#c8a96a" opacity="0.020677037621414242"></circle><circle cx="533.0880570091714" cy="746.723171823607" r="0.7347035818255296" fill="#c8a96a" opacity="0.04406189852329215"></circle><circle cx="594.9676705002843" cy="600.7085663179284" r="0.09611178730215766" fill="#c8a96a" opacity="0.03833281038642547"></circle><circle cx="172.26269315432484" cy="146.4111589395907" r="0.19341556273513572" fill="#c8a96a" opacity="0.016057483971668174"></circle><circle cx="139.02082155584736" cy="307.71488809322796" r="0.005802371731384959" fill="#c8a96a" opacity="0.04674823693883795"></circle><circle cx="1116.7335029183382" cy="539.3984994717966" r="0.23388622866601524" fill="#c8a96a" opacity="0.01816750911018734"></circle><circle cx="62.71905388432515" cy="529.0027590192602" r="0.036195510558337585" fill="#c8a96a" opacity="0.009763683965281095"></circle><circle cx="843.5173354401658" cy="546.3429611651852" r="0.12469570226684522" fill="#c8a96a" opacity="0.004820863160549799"></circle><circle cx="973.2109837855008" cy="88.72856880886548" r="0.3293203492127472" fill="#c8a96a" opacity="0.04357396412272835"></circle><circle cx="427.31492748161514" cy="190.15409900729878" r="0.5905895338440378" fill="#c8a96a" opacity="0.033150185984158385"></circle><circle cx="406.0704825601137" cy="290.1448310573901" r="0.612846493320206" fill="#c8a96a" opacity="0.04848621448146132"></circle><circle cx="101.60824570296137" cy="632.6391864622008" r="0.1047290221880239" fill="#c8a96a" opacity="0.015109000600802414"></circle><circle cx="298.7614942920261" cy="123.69301736431754" r="0.2810339145555273" fill="#c8a96a" opacity="0.03820962107740495"></circle><circle cx="161.6102849380045" cy="398.2397199959137" r="0.7760708226328381" fill="#c8a96a" opacity="0.0034646233757452353"></circle><circle cx="799.224697159144" cy="319.59731783340845" r="0.08369163163350235" fill="#c8a96a" opacity="0.004361806105355748"></circle><circle cx="687.3724341420524" cy="12.872549775532427" r="0.7763062927178472" fill="#c8a96a" opacity="0.0067411895310420696"></circle><circle cx="493.0278175976799" cy="753.4443034546609" r="0.161756535207772" fill="#c8a96a" opacity="0.0005809828799848261"></circle><circle cx="391.3840076613528" cy="257.2216037815856" r="0.5771832145252893" fill="#c8a96a" opacity="0.035340309481544624"></circle><circle cx="538.2003976028336" cy="287.65634389536086" r="0.40666500297668934" fill="#c8a96a" opacity="0.029152270804008226"></circle><circle cx="232.37923843744176" cy="490.21645200822076" r="0.56950401712959" fill="#c8a96a" opacity="0.03765188996984194"></circle><circle cx="127.24935049155408" cy="389.9090909991767" r="0.5209847201956492" fill="#c8a96a" opacity="0.009035168126970578"></circle><circle cx="87.10748978597368" cy="685.4876431760454" r="0.5977466532983919" fill="#c8a96a" opacity="0.034792194951183734"></circle><circle cx="41.79075109733033" cy="324.09629116039315" r="0.7361402998601654" fill="#c8a96a" opacity="0.015214109000629313"></circle><circle cx="888.1197123323486" cy="338.8348597488625" r="0.6494776989846378" fill="#c8a96a" opacity="0.040250339115772985"></circle><circle cx="124.50814453219627" cy="741.989625633668" r="0.3448927177133899" fill="#c8a96a" opacity="0.018386799830989477"></circle><circle cx="261.4573672393204" cy="622.244418602678" r="0.003723765121190148" fill="#c8a96a" opacity="0.03978292602975125"></circle><circle cx="490.7363233308371" cy="756.9095958822852" r="0.5765988055589506" fill="#c8a96a" opacity="0.002985187037457532"></circle><circle cx="547.6180504708933" cy="714.94069033601" r="0.24175399398645203" fill="#c8a96a" opacity="0.009972869097308469"></circle><circle cx="350.5486139849378" cy="694.7789995548515" r="0.15676485398246331" fill="#c8a96a" opacity="0.007284374780128694"></circle><circle cx="24.410809889200813" cy="382.441850785544" r="0.38670625897688915" fill="#c8a96a" opacity="0.045829808134995154"></circle><circle cx="752.971396663424" cy="618.4452951144267" r="0.5911791652567763" fill="#c8a96a" opacity="0.017106685794700073"></circle><circle cx="631.2909293529732" cy="316.60441058411084" r="0.7657325963396179" fill="#c8a96a" opacity="0.04118464456232279"></circle><circle cx="11.614342581669712" cy="499.4173585373461" r="0.25619338028146715" fill="#c8a96a" opacity="0.01947371760521473"></circle><circle cx="413.11830360888143" cy="632.0328331276312" r="0.251563417397122" fill="#c8a96a" opacity="0.03263050986408952"></circle><circle cx="458.0970990650595" cy="305.9495111148621" r="0.030076864916525815" fill="#c8a96a" opacity="0.019447420430347223"></circle><circle cx="834.7166553803722" cy="779.6893794085737" r="0.6394876050957009" fill="#c8a96a" opacity="0.018837986035325494"></circle><circle cx="183.4128391824555" cy="438.93311478902854" r="0.4546556454719225" fill="#c8a96a" opacity="0.04514899993898619"></circle><circle cx="398.5675375724039" cy="60.318817407936635" r="0.3959241150122448" fill="#c8a96a" opacity="0.005100722166660643"></circle><circle cx="257.49715744770646" cy="453.3361866134964" r="0.2656056311387894" fill="#c8a96a" opacity="0.03100492821925216"></circle><circle cx="670.2386525055246" cy="655.5537348820417" r="0.589045945665613" fill="#c8a96a" opacity="0.014710704246492335"></circle><circle cx="978.4928429608624" cy="573.6300162547226" r="0.25504793313344604" fill="#c8a96a" opacity="0.04705585414534199"></circle><circle cx="593.0826372386774" cy="666.9356126599666" r="0.08145969022904823" fill="#c8a96a" opacity="0.013575160476685133"></circle><circle cx="642.4460221263835" cy="765.7039934801049" r="0.46092244103529023" fill="#c8a96a" opacity="0.04204652251636423"></circle><circle cx="961.0000889350335" cy="572.7808708528762" r="0.1658714453843639" fill="#c8a96a" opacity="0.04511137000870115"></circle>
    <rect width="1200" height="800" fill="url(#vg-16)"></rect>
    
    <g transform="translate(72, 64)">
      <text x="0" y="0" font-family="Playfair Display, serif" font-style="italic" font-size="30.4" fill="#c8a96a">Le Bien</text>
      <line x1="0" y1="16" x2="112.00000000000001" y2="16" stroke="#c8a96a" stroke-width="0.6" opacity="0.8"></line>
      <text x="0" y="35.199999999999996" font-family="Playfair Display, serif" font-style="italic" font-size="14.399999999999999" fill="#c8a96a" letter-spacing="3">DÉCO</text>
    </g>
  
    
    <text x="1128" y="72" text-anchor="end" font-family="Playfair Display, serif" font-style="italic" font-size="40" fill="#c8a96a" opacity="0.9">— 16</text>
  
    
    <g transform="translate(72, 720)">
      <text x="0" y="0" font-family="&#39;Courier New&#39;, monospace" font-size="12" fill="#c8a96a" letter-spacing="3" opacity="0.7">[ WEDDING · BACKDROP ]</text>
      <text x="0" y="29.120000000000005" font-family="Playfair Display, serif" font-style="italic" font-size="22.400000000000002" fill="#cdc7b8">&#34;Till death do us part.&#34;</text>
    </g>
  
  </svg>